<svg xmlns="http://www.w3.org/2000/svg" xmlns:xlink="http://www.w3.org/1999/xlink" width="113" height="113" viewBox="0 0 113 113">
  <defs>
    <filter id="Path_982547" x="0" y="0" width="113" height="113" filterUnits="userSpaceOnUse">
      <feOffset dy="3" input="SourceAlpha"/>
      <feGaussianBlur stdDeviation="3" result="blur"/>
      <feFlood flood-opacity="0.161"/>
      <feComposite operator="in" in2="blur"/>
      <feComposite in="SourceGraphic"/>
    </filter>
  </defs>
  <g id="Group_1184811" data-name="Group 1184811" transform="translate(-198.239 -2853)">
    <g id="Group_1184532" data-name="Group 1184532">
      <g id="Group_1183770" data-name="Group 1183770" transform="translate(5.239 1768.568)">
        <g id="Group_1173793" data-name="Group 1173793" transform="translate(202 1090.432)">
          <g id="Group_1167519" data-name="Group 1167519">
            <g id="Group_1166845" data-name="Group 1166845">
              <g id="Group_1166720" data-name="Group 1166720">
                <g id="Group_1164305" data-name="Group 1164305">
                  <g id="Group_1163948" data-name="Group 1163948">
                    <g id="Group_1158168" data-name="Group 1158168">
                      <g id="Group_1152576" data-name="Group 1152576">
                        <g id="Group_1148633" data-name="Group 1148633">
                          <g id="Group_1148525" data-name="Group 1148525">
                            <g transform="matrix(1, 0, 0, 1, -9, -6)" filter="url(#Path_982547)">
                              <g id="Path_982547-2" data-name="Path 982547" transform="translate(9 6)" fill="#fdf4ee">
                                <path d="M 47.5 93.5 C 41.28937149047852 93.5 35.26533508300781 92.28397369384766 29.59518623352051 89.88570404052734 C 24.11771965026855 87.56893157958984 19.19813346862793 84.25196075439453 14.97309303283691 80.02691650390625 C 10.74804019927979 75.80186462402344 7.431066513061523 70.88229370117188 5.114293098449707 65.40481567382812 C 2.716026782989502 59.73468017578125 1.5 53.71062850952148 1.5 47.5 C 1.5 41.28937149047852 2.716026782989502 35.26533508300781 5.114293098449707 29.59518623352051 C 7.431066513061523 24.11771965026855 10.74804019927979 19.19813346862793 14.97309303283691 14.97309303283691 C 19.19813346862793 10.74804019927979 24.11771965026855 7.431066513061523 29.59518623352051 5.114293098449707 C 35.26533508300781 2.716026782989502 41.28937149047852 1.5 47.5 1.5 C 53.71062850952148 1.5 59.73468017578125 2.716026782989502 65.40481567382812 5.114293098449707 C 70.88229370117188 7.431066513061523 75.80186462402344 10.74804019927979 80.02691650390625 14.97309303283691 C 84.25196075439453 19.19813346862793 87.56893157958984 24.11771965026855 89.88570404052734 29.59518623352051 C 92.28397369384766 35.26533508300781 93.5 41.28937149047852 93.5 47.5 C 93.5 53.71062850952148 92.28397369384766 59.73468017578125 89.88570404052734 65.40481567382812 C 87.56893157958984 70.88229370117188 84.25196075439453 75.80186462402344 80.02691650390625 80.02691650390625 C 75.80186462402344 84.25196075439453 70.88229370117188 87.56893157958984 65.40481567382812 89.88570404052734 C 59.73468017578125 92.28397369384766 53.71062850952148 93.5 47.5 93.5 Z" stroke="none"/>
                                <path d="M 47.5 3 C 41.49121475219727 3 35.66376876831055 4.176155090332031 30.17950439453125 6.495796203613281 C 24.88084411621094 8.736953735351562 20.12152099609375 11.94598388671875 16.03375244140625 16.03375244140625 C 11.94598388671875 20.12152099609375 8.736953735351562 24.88084411621094 6.495796203613281 30.17950439453125 C 4.176155090332031 35.66376876831055 3 41.49121475219727 3 47.5 C 3 53.50878524780273 4.176155090332031 59.33623123168945 6.495796203613281 64.82049560546875 C 8.736953735351562 70.11915588378906 11.94598388671875 74.87847900390625 16.03375244140625 78.96624755859375 C 20.12152099609375 83.05401611328125 24.88084411621094 86.26304626464844 30.17950439453125 88.50419616699219 C 35.66376876831055 90.82384490966797 41.49121475219727 92 47.5 92 C 53.50878524780273 92 59.33623123168945 90.82384490966797 64.82049560546875 88.50419616699219 C 70.11915588378906 86.26304626464844 74.87847900390625 83.05401611328125 78.96624755859375 78.96624755859375 C 83.05401611328125 74.87847900390625 86.26304626464844 70.11915588378906 88.50419616699219 64.82049560546875 C 90.82384490966797 59.33623123168945 92 53.50878524780273 92 47.5 C 92 41.49121475219727 90.82384490966797 35.66376876831055 88.50419616699219 30.17950439453125 C 86.26304626464844 24.88084411621094 83.05401611328125 20.12152099609375 78.96624755859375 16.03375244140625 C 74.87847900390625 11.94598388671875 70.11915588378906 8.736953735351562 64.82049560546875 6.495796203613281 C 59.33623123168945 4.176155090332031 53.50878524780273 3 47.5 3 M 47.5 0 C 73.7335205078125 0 95 21.2664794921875 95 47.5 C 95 73.7335205078125 73.7335205078125 95 47.5 95 C 21.2664794921875 95 0 73.7335205078125 0 47.5 C 0 21.2664794921875 21.2664794921875 0 47.5 0 Z" stroke="none" fill="#ee9865"/>
                              </g>
                            </g>
                          </g>
                        </g>
                      </g>
                    </g>
                  </g>
                </g>
              </g>
            </g>
          </g>
        </g>
      </g>
      <g id="dinero" transform="translate(213.429 2875.697)">
        <g id="Group_1184530" data-name="Group 1184530" transform="translate(12.851 0.902)">
          <path id="Path_1040684" data-name="Path 1040684" d="M26.521,167.508c-6.069,0-7.9-6.109-6.683-11.657.953-4.351,4.146-7.654,4.031-12.117-.255-9.969,8.693-16.238,19.561-16.468,10.864.23,19.815,6.5,19.557,16.468-.115,4.462,3.078,7.766,4.031,12.117,1.214,5.549-.614,11.657-6.683,11.657H26.52Z" transform="translate(-19.483 -112.855)" fill="#9be69d" fill-rule="evenodd"/>
          <path id="Path_1040685" data-name="Path 1040685" d="M233.956,146.982c7.859,2.04,13.558,7.647,13.352,15.633a10.385,10.385,0,0,0,.579,3.592,11.491,11.491,0,0,1,1.284-.411v-1.2a1.041,1.041,0,0,1,1.04-1.037h1.773a9.928,9.928,0,0,1-.331-2.753c.167-6.5-3.577-11.428-9.217-14.132a2.051,2.051,0,0,1-1.082.306h-7.4Z" transform="translate(-208.15 -129.93)" fill="#6fd7a3" fill-rule="evenodd"/>
          <path id="Path_1040686" data-name="Path 1040686" d="M120.718,19.265l5.762,1.8,5.758-1.8C138.1,17.191,141.947,7.5,135.191,7.5H117.766C111.013,7.5,114.859,17.191,120.718,19.265Z" transform="translate(-102.792 -7.5)" fill="#9be69d" fill-rule="evenodd"/>
          <path id="Path_1040687" data-name="Path 1040687" d="M220.724,7.5c6.753,0,5.444,9.691-.415,11.765l-3.957,1.8,5.758-1.8c5.859-2.075,9.709-11.765,2.952-11.765Z" transform="translate(-192.663 -7.5)" fill="#6fd7a3" fill-rule="evenodd"/>
          <path id="Path_1040688" data-name="Path 1040688" d="M115.213,214.758a12.426,12.426,0,1,0,12.427-12.392A12.41,12.41,0,0,0,115.213,214.758Z" transform="translate(-103.694 -178.919)" fill="#ffd15b" fill-rule="evenodd"/>
          <path id="Path_1040689" data-name="Path 1040689" d="M201.423,202.394a12.393,12.393,0,0,1-1.344,24.564,12.558,12.558,0,0,0,2.216.195,12.394,12.394,0,1,0,0-24.787C202,202.366,201.709,202.376,201.423,202.394Z" transform="translate(-178.349 -178.919)" fill="#ffc344" fill-rule="evenodd"/>
          <path id="Path_1040690" data-name="Path 1040690" d="M293.346,290.464a11.283,11.283,0,0,0-2.942-1.218v-1.2a1.041,1.041,0,0,0-1.04-1.037h-3.483a1.041,1.041,0,0,0-1.04,1.037v1.2a11.286,11.286,0,0,0-2.942,1.218l-.848-.849a1.047,1.047,0,0,0-1.473,0l-2.464,2.454a1.04,1.04,0,0,0,0,1.469l.852.849a11.219,11.219,0,0,0-1.221,2.934h-1.2a1.041,1.041,0,0,0-1.04,1.037v3.474a1.041,1.041,0,0,0,1.04,1.037h1.2a11.221,11.221,0,0,0,1.221,2.934l-.852.846a1.04,1.04,0,0,0,0,1.469l2.464,2.458a1.047,1.047,0,0,0,1.473,0l.848-.849a11.28,11.28,0,0,0,2.942,1.218v1.2a1.041,1.041,0,0,0,1.04,1.037h3.483a1.041,1.041,0,0,0,1.04-1.037v-1.2a11.284,11.284,0,0,0,2.942-1.218l.848.849a1.047,1.047,0,0,0,1.473,0l2.464-2.458a1.04,1.04,0,0,0,0-1.469l-.852-.846a11.22,11.22,0,0,0,1.221-2.934h1.2a1.041,1.041,0,0,0,1.04-1.037v-3.474a1.041,1.041,0,0,0-1.04-1.037h-1.2a11.222,11.222,0,0,0-1.221-2.934l.852-.849a1.04,1.04,0,0,0,0-1.469l-2.464-2.454a1.047,1.047,0,0,0-1.473,0Z" transform="translate(-243.819 -253.379)" fill="#3c87d0" fill-rule="evenodd"/>
          <path id="Path_1040691" data-name="Path 1040691" d="M339.82,357.406a5.259,5.259,0,1,0,5.259-5.246A5.254,5.254,0,0,0,339.82,357.406Z" transform="translate(-301.276 -310.689)" fill="#f2fbff" fill-rule="evenodd"/>
          <path id="Path_1040692" data-name="Path 1040692" d="M371.655,357.14a5.25,5.25,0,0,1-4.223,5.141,5.249,5.249,0,1,0,1.937-10.122,5.333,5.333,0,0,0-1.036.1A5.251,5.251,0,0,1,371.655,357.14Z" transform="translate(-325.565 -310.688)" fill="#dff6fd" fill-rule="evenodd"/>
          <path id="Path_1040693" data-name="Path 1040693" d="M413.258,306.3a16.28,16.28,0,0,1,0,21.23,10.981,10.981,0,0,0,2.146-.982l.848.849a1.047,1.047,0,0,0,1.473,0l2.464-2.458a1.04,1.04,0,0,0,0-1.469l-.852-.846a11.218,11.218,0,0,0,1.221-2.934h1.2a1.041,1.041,0,0,0,1.04-1.037V315.18a1.041,1.041,0,0,0-1.04-1.037h-1.2a11.22,11.22,0,0,0-1.221-2.934l.852-.849a1.04,1.04,0,0,0,0-1.469l-2.464-2.454a1.047,1.047,0,0,0-1.473,0l-.848.849A11.2,11.2,0,0,0,413.258,306.3Z" transform="translate(-365.877 -270.2)" fill="#4f66d0" fill-rule="evenodd"/>
          <path id="Path_1040694" data-name="Path 1040694" d="M126.544,110.567h18.521a2.043,2.043,0,0,0,2.049-2.043v-1.2a2.051,2.051,0,0,0-2.049-2.043H126.544a2.051,2.051,0,0,0-2.049,2.043v1.2a2.043,2.043,0,0,0,2.049,2.043Z" transform="translate(-111.859 -93.515)" fill="#d77f4a" fill-rule="evenodd"/>
          <path id="Path_1040695" data-name="Path 1040695" d="M259.176,108.886a2.05,2.05,0,0,1-2.017,1.681h4.607a2.043,2.043,0,0,0,2.049-2.043v-1.2a2.051,2.051,0,0,0-2.049-2.043h-4.607a1.928,1.928,0,0,1,.586.087,2.052,2.052,0,0,1,1.462,1.956v1.2A2.06,2.06,0,0,1,259.176,108.886Z" transform="translate(-228.561 -93.515)" fill="#c86d36" fill-rule="evenodd"/>
        </g>
        <g id="Group_1184531" data-name="Group 1184531" transform="translate(11.944 0)">
          <path id="Path_1040696" data-name="Path 1040696" d="M183.416,246.561a5.332,5.332,0,0,0,2.959,1.016v.856a.9.9,0,0,0,1.8,0v-.949a4.337,4.337,0,0,0,3.307-3.533,3.8,3.8,0,0,0-2.626-4.351c-.242-.085-.467-.167-.681-.246v-4.115a2.651,2.651,0,0,1,.974.491l.011.01a.9.9,0,1,0,1.18-1.365,4.626,4.626,0,0,0-2.166-.981v-.911a.9.9,0,1,0-1.8,0v.947q-.227.047-.464.118a3.6,3.6,0,0,0-2.473,2.83,3.168,3.168,0,0,0,1.043,3.124,8.641,8.641,0,0,0,1.894,1.075v5.2a3.542,3.542,0,0,1-1.972-.721.9.9,0,1,0-.986,1.511Zm2.176-8.484a1.388,1.388,0,0,1-.381-1.369,1.828,1.828,0,0,1,1.163-1.415v3.28A5.309,5.309,0,0,1,185.592,238.077Zm2.669,3.226a2.029,2.029,0,0,1,1.445,2.35,2.572,2.572,0,0,1-1.527,1.943v-4.322l.082.029Z" transform="translate(-162.424 -203.714)"/>
          <path id="Path_1040697" data-name="Path 1040697" d="M338.482,344.66a6.148,6.148,0,1,0,6.162,6.148A6.162,6.162,0,0,0,338.482,344.66Zm0,10.491a4.343,4.343,0,1,1,4.357-4.343A4.355,4.355,0,0,1,338.482,355.151Z" transform="translate(-293.771 -303.189)"/>
          <path id="Path_1040698" data-name="Path 1040698" d="M68.734,43.942h-.522a12.12,12.12,0,0,0-.78-1.874L67.8,41.7a1.946,1.946,0,0,0,0-2.747L65.337,36.5a1.949,1.949,0,0,0-2.749,0l-.368.369a12.187,12.187,0,0,0-1.881-.779v-.518a1.943,1.943,0,0,0-1.942-1.94H57.41a8.646,8.646,0,0,1-.153-1.828c.157-6.09-2.981-11.283-8.651-14.412a2.922,2.922,0,0,0,.4-1.481v-1.2a2.952,2.952,0,0,0-2.951-2.946H45.6a12.538,12.538,0,0,0,2.363-2.629,8.555,8.555,0,0,0,1.7-5.906C49.31,1.177,47.7,0,45.25,0H27.825c-2.451,0-4.059,1.177-4.411,3.229a8.555,8.555,0,0,0,1.7,5.907,12.548,12.548,0,0,0,2.365,2.631,2.951,2.951,0,0,0-2.9,2.944v1.2a2.922,2.922,0,0,0,.4,1.481c-5.671,3.129-8.808,8.321-8.651,14.412.062,2.392-.937,4.469-1.994,6.667A23.8,23.8,0,0,0,12.324,43.7c-.863,3.941-.236,7.712,1.675,10.088a7.27,7.27,0,0,0,5.89,2.665h25.8l2.287,2.281a1.949,1.949,0,0,0,2.749,0l.368-.369a12.185,12.185,0,0,0,1.881.779v.518a1.943,1.943,0,0,0,1.942,1.94H58.4a1.943,1.943,0,0,0,1.942-1.94v-.518a12.184,12.184,0,0,0,1.881-.779l.369.37a1.948,1.948,0,0,0,2.747,0L67.8,56.281a1.943,1.943,0,0,0,0-2.748l-.367-.365a12.126,12.126,0,0,0,.779-1.873h.522a1.943,1.943,0,0,0,1.942-1.94V45.882a1.943,1.943,0,0,0-1.942-1.94ZM25.193,3.534c.073-.428.3-1.729,2.632-1.729H45.25c2.336,0,2.559,1.3,2.633,1.73.432,2.519-2.265,6.909-5.745,8.23h-.584a13.552,13.552,0,0,0,1.089-3.929.9.9,0,1,0-1.785-.265,9.506,9.506,0,0,1-1.393,4.194H37.7V7.7a.9.9,0,1,0-1.8,0v4.061H34.127a9.506,9.506,0,0,1-1.393-4.194.9.9,0,0,0-1.785.265,13.552,13.552,0,0,0,1.089,3.929h-1.1c-3.482-1.321-6.18-5.712-5.748-8.231ZM15.406,52.661c-1.549-1.924-2.054-5.208-1.318-8.57a22.421,22.421,0,0,1,1.88-4.837c1.1-2.295,2.245-4.668,2.171-7.5-.144-5.593,2.884-10.346,8.322-13.1a2.939,2.939,0,0,0,1.074.2h7.287a.9.9,0,0,0,0-1.8H27.535a1.145,1.145,0,0,1-1.146-1.141v-1.2a1.145,1.145,0,0,1,1.146-1.141H46.056A1.145,1.145,0,0,1,47.2,14.711v1.2a1.145,1.145,0,0,1-1.146,1.141h-7.4a.9.9,0,0,0,0,1.8h7.4a2.939,2.939,0,0,0,1.074-.2c5.438,2.757,8.467,7.51,8.322,13.1a10.31,10.31,0,0,0,.125,1.874h-.664a1.943,1.943,0,0,0-1.942,1.94v.518a12.174,12.174,0,0,0-1.881.779l-.369-.37a1.931,1.931,0,0,0-.613-.412A13.341,13.341,0,0,0,29.3,25.748a.9.9,0,0,0,1.014,1.493,11.535,11.535,0,0,1,18,8.994,1.941,1.941,0,0,0-.333.265l-2.467,2.457a1.945,1.945,0,0,0,0,2.744l.369.368a12.109,12.109,0,0,0-.78,1.874h-.522a1.943,1.943,0,0,0-1.942,1.94v.769a11.53,11.53,0,0,1-17.361-9.91,11.359,11.359,0,0,1,2.368-6.979.9.9,0,1,0-1.431-1.1,13.149,13.149,0,0,0-2.741,8.079A13.335,13.335,0,0,0,42.634,48.7v.659a1.943,1.943,0,0,0,1.942,1.94H45.1a12.124,12.124,0,0,0,.779,1.873l-.369.366a1.921,1.921,0,0,0-.55,1.118H19.889a5.456,5.456,0,0,1-4.483-1.992Zm53.465-3.305a.14.14,0,0,1-.138.135h-1.2a.9.9,0,0,0-.874.678,10.326,10.326,0,0,1-1.123,2.7.9.9,0,0,0,.14,1.1l.85.845a.138.138,0,0,1,0,.191l-2.464,2.458a.144.144,0,0,1-.2,0l-.848-.849a.9.9,0,0,0-1.1-.139,10.383,10.383,0,0,1-2.707,1.121.9.9,0,0,0-.679.874v1.2a.14.14,0,0,1-.138.135H54.913a.14.14,0,0,1-.138-.135v-1.2a.9.9,0,0,0-.679-.874,10.383,10.383,0,0,1-2.707-1.121.9.9,0,0,0-1.1.139l-.847.848a.144.144,0,0,1-.2,0L46.784,55a.132.132,0,0,1-.038-.1.131.131,0,0,1,.037-.094l.852-.846a.9.9,0,0,0,.14-1.1,10.327,10.327,0,0,1-1.123-2.7.9.9,0,0,0-.874-.678h-1.2a.14.14,0,0,1-.138-.135V45.882a.14.14,0,0,1,.138-.135h1.2a.9.9,0,0,0,.874-.678,10.323,10.323,0,0,1,1.123-2.7.9.9,0,0,0-.139-1.1l-.852-.849a.136.136,0,0,1,0-.191l2.464-2.454a.144.144,0,0,1,.2,0l.848.849a.9.9,0,0,0,1.1.139A10.384,10.384,0,0,1,54.1,37.643a.9.9,0,0,0,.679-.874v-1.2a.14.14,0,0,1,.138-.135H58.4a.14.14,0,0,1,.138.135v1.2a.9.9,0,0,0,.679.874,10.384,10.384,0,0,1,2.707,1.121.9.9,0,0,0,1.1-.139l.847-.848a.144.144,0,0,1,.2,0l2.461,2.451a.137.137,0,0,1,0,.194l-.852.849a.9.9,0,0,0-.139,1.1,10.323,10.323,0,0,1,1.123,2.7.9.9,0,0,0,.874.678h1.2a.14.14,0,0,1,.138.135v3.474Z" transform="translate(-11.944 0)"/>
        </g>
      </g>
    </g>
  </g>
</svg>
