<svg xmlns="http://www.w3.org/2000/svg" xmlns:xlink="http://www.w3.org/1999/xlink" width="93.934" height="93.934" viewBox="0 0 93.934 93.934">
  <defs>
    <filter id="Path_982547" x="0" y="0" width="93.934" height="93.934" filterUnits="userSpaceOnUse">
      <feOffset dy="3" input="SourceAlpha"/>
      <feGaussianBlur stdDeviation="3" result="blur"/>
      <feFlood flood-opacity="0.161"/>
      <feComposite operator="in" in2="blur"/>
      <feComposite in="SourceGraphic"/>
    </filter>
  </defs>
  <g id="Group_1184777" data-name="Group 1184777" transform="translate(-189 -891)">
    <g id="Group_1183850" data-name="Group 1183850" transform="translate(0 -4)">
      <g id="Group_1179712" data-name="Group 1179712" transform="translate(-630.033 111)">
        <g id="Group_1173783" data-name="Group 1173783" transform="translate(828.033 790)">
          <g id="Group_1167337" data-name="Group 1167337">
            <g id="Group_1166720" data-name="Group 1166720">
              <g id="Group_1164305" data-name="Group 1164305">
                <g id="Group_1163948" data-name="Group 1163948">
                  <g id="Group_1158168" data-name="Group 1158168">
                    <g id="Group_1152576" data-name="Group 1152576">
                      <g id="Group_1148633" data-name="Group 1148633">
                        <g id="Group_1148525" data-name="Group 1148525">
                          <g transform="matrix(1, 0, 0, 1, -9, -6)" filter="url(#Path_982547)">
                            <g id="Path_982547-2" data-name="Path 982547" transform="translate(9 6)" fill="#e8edf7">
                              <path d="M 37.966796875 74.43359375 C 33.04315185546875 74.43359375 28.26757431030273 73.46962738037109 23.77274131774902 71.56847381591797 C 19.43047523498535 69.73184967041016 15.53040790557861 67.10224914550781 12.18087482452393 63.75271987915039 C 8.831341743469238 60.4031867980957 6.201741218566895 56.50312042236328 4.365118980407715 52.16086196899414 C 2.463963508605957 47.66601943969727 1.499996900558472 42.89044189453125 1.499996900558472 37.966796875 C 1.499996900558472 33.04315185546875 2.463963508605957 28.26757431030273 4.365118980407715 23.77274131774902 C 6.201741218566895 19.43047523498535 8.831341743469238 15.53040790557861 12.18087482452393 12.18087482452393 C 15.53040790557861 8.831341743469238 19.43047523498535 6.201741218566895 23.77274131774902 4.365118980407715 C 28.26757431030273 2.463963508605957 33.04315185546875 1.499996900558472 37.966796875 1.499996900558472 C 42.89044189453125 1.499996900558472 47.66601943969727 2.463963508605957 52.16086196899414 4.365118980407715 C 56.50312042236328 6.201741218566895 60.4031867980957 8.831341743469238 63.75271987915039 12.18087482452393 C 67.10224914550781 15.53040790557861 69.73184967041016 19.43047523498535 71.56847381591797 23.77274131774902 C 73.46962738037109 28.26757431030273 74.43359375 33.04315185546875 74.43359375 37.966796875 C 74.43359375 42.89044189453125 73.46962738037109 47.66601943969727 71.56847381591797 52.16086196899414 C 69.73184967041016 56.50313186645508 67.10224914550781 60.4031867980957 63.75271987915039 63.75271987915039 C 60.4031867980957 67.10224914550781 56.50313186645508 69.73184967041016 52.16086196899414 71.56847381591797 C 47.66601943969727 73.46962738037109 42.89044189453125 74.43359375 37.966796875 74.43359375 Z" stroke="none"/>
                              <path d="M 37.966796875 3 C 33.2449836730957 3 28.66600799560547 3.924095153808594 24.35705947875977 5.746635437011719 C 20.19359588623047 7.507637023925781 16.45379638671875 10.02928161621094 13.24153518676758 13.24153518676758 C 10.02927398681641 16.45379638671875 7.507621765136719 20.19359588623047 5.746635437011719 24.35705947875977 C 3.924095153808594 28.66600799560547 3 33.2449836730957 3 37.966796875 C 3 42.6886100769043 3.924095153808594 47.26758575439453 5.746635437011719 51.57653427124023 C 7.507621765136719 55.73999786376953 10.02927398681641 59.47979736328125 13.24153518676758 62.69205856323242 C 16.45379638671875 65.90431976318359 20.19359588623047 68.42597198486328 24.35705947875977 70.18695831298828 C 28.66600799560547 72.00949859619141 33.2449836730957 72.93359375 37.966796875 72.93359375 C 42.6886100769043 72.93359375 47.26758575439453 72.00949859619141 51.57653427124023 70.18695831298828 C 55.73999786376953 68.42597198486328 59.47979736328125 65.90431976318359 62.69205856323242 62.69205856323242 C 65.90431976318359 59.47979736328125 68.42597198486328 55.73999786376953 70.18695831298828 51.57653427124023 C 72.00949859619141 47.26758575439453 72.93359375 42.6886100769043 72.93359375 37.966796875 C 72.93359375 33.2449836730957 72.00949859619141 28.66600799560547 70.18695831298828 24.35705947875977 C 68.42597198486328 20.19359588623047 65.90431976318359 16.45379638671875 62.69205856323242 13.24153518676758 C 59.47979736328125 10.02928161621094 55.73999786376953 7.507637023925781 51.57653427124023 5.746635437011719 C 47.26758575439453 3.924095153808594 42.6886100769043 3 37.966796875 3 M 37.966796875 0 C 58.93528366088867 0 75.93359375 16.99832153320312 75.93359375 37.966796875 C 75.93359375 58.93528366088867 58.93528366088867 75.93359375 37.966796875 75.93359375 C 16.99831008911133 75.93359375 0 58.93528366088867 0 37.966796875 C 0 16.99832153320312 16.99831008911133 0 37.966796875 0 Z" stroke="none" fill="#2e5bb6"/>
                            </g>
                          </g>
                        </g>
                      </g>
                    </g>
                  </g>
                </g>
              </g>
            </g>
          </g>
        </g>
      </g>
      <g id="ganancias" transform="translate(214 914.413)">
        <g id="Group_1183847" data-name="Group 1183847" transform="translate(0.638 3.225)">
          <path id="Path_1039000" data-name="Path 1039000" d="M29.552,293.613H9.366A1.866,1.866,0,0,1,7.5,291.747V289.4a1.866,1.866,0,0,1,1.866-1.866H29.552a1.866,1.866,0,0,1,1.866,1.866v2.349A1.866,1.866,0,0,1,29.552,293.613Z" transform="translate(-7.5 -263.921)" fill="#f1e64c"/>
          <path id="Path_1039001" data-name="Path 1039001" d="M13.25,293.616H9.367A1.866,1.866,0,0,1,7.5,291.75V289.4a1.866,1.866,0,0,1,1.867-1.866H13.25a1.866,1.866,0,0,0-1.866,1.866v2.349A1.866,1.866,0,0,0,13.25,293.616Z" transform="translate(-7.5 -263.924)" fill="#ffc250"/>
          <path id="Path_1039002" data-name="Path 1039002" d="M31.419,319.63v1.484a1.866,1.866,0,0,1-1.866,1.865H9.367A1.866,1.866,0,0,1,7.5,321.114V319.63A1.866,1.866,0,0,0,9.367,321.5H29.553A1.866,1.866,0,0,0,31.419,319.63Z" transform="translate(-7.501 -293.288)" fill="#ffc250"/>
          <path id="Path_1039003" data-name="Path 1039003" d="M70.19,222.157H50a1.866,1.866,0,0,1-1.866-1.866v-2.349A1.866,1.866,0,0,1,50,216.076H70.19a1.866,1.866,0,0,1,1.866,1.866v2.349A1.866,1.866,0,0,1,70.19,222.157Z" transform="translate(-44.68 -198.546)" fill="#f1e64c"/>
          <path id="Path_1039004" data-name="Path 1039004" d="M53.889,222.16H50.006a1.866,1.866,0,0,1-1.867-1.866v-2.349a1.866,1.866,0,0,1,1.867-1.866h3.883a1.866,1.866,0,0,0-1.866,1.866v2.349A1.866,1.866,0,0,0,53.889,222.16Z" transform="translate(-44.681 -198.549)" fill="#ffc250"/>
          <path id="Path_1039005" data-name="Path 1039005" d="M72.058,248.174v1.484a1.866,1.866,0,0,1-1.866,1.865H50.006a1.866,1.866,0,0,1-1.866-1.865v-1.484a1.866,1.866,0,0,0,1.866,1.866H70.192A1.866,1.866,0,0,0,72.058,248.174Z" transform="translate(-44.682 -227.913)" fill="#ffc250"/>
          <path id="Path_1039006" data-name="Path 1039006" d="M41.614,150.7H21.428a1.866,1.866,0,0,1-1.866-1.866v-2.349a1.866,1.866,0,0,1,1.866-1.866H41.614a1.866,1.866,0,0,1,1.866,1.866v2.349A1.866,1.866,0,0,1,41.614,150.7Z" transform="translate(-18.536 -133.169)" fill="#f1e64c"/>
          <path id="Path_1039007" data-name="Path 1039007" d="M25.313,150.7H21.43a1.866,1.866,0,0,1-1.867-1.866v-2.349a1.866,1.866,0,0,1,1.867-1.866h3.883a1.866,1.866,0,0,0-1.866,1.866v2.349A1.866,1.866,0,0,0,25.313,150.7Z" transform="translate(-18.536 -133.173)" fill="#ffc250"/>
          <path id="Path_1039008" data-name="Path 1039008" d="M43.481,176.716V178.2a1.866,1.866,0,0,1-1.866,1.865H21.429a1.866,1.866,0,0,1-1.866-1.865v-1.484a1.866,1.866,0,0,0,1.866,1.866H41.615A1.866,1.866,0,0,0,43.481,176.716Z" transform="translate(-18.536 -162.535)" fill="#ffc250"/>
          <path id="Path_1039009" data-name="Path 1039009" d="M49.552,365.071H29.366A1.866,1.866,0,0,1,27.5,363.2v-2.349a1.866,1.866,0,0,1,1.866-1.866H49.552a1.866,1.866,0,0,1,1.866,1.866V363.2A1.866,1.866,0,0,1,49.552,365.071Z" transform="translate(-25.798 -329.298)" fill="#f1e64c"/>
          <path id="Path_1039010" data-name="Path 1039010" d="M51.419,391.088v1.484a1.866,1.866,0,0,1-1.866,1.865H29.367a1.866,1.866,0,0,1-1.866-1.865v-1.484a1.866,1.866,0,0,0,1.866,1.866H49.553A1.866,1.866,0,0,0,51.419,391.088Z" transform="translate(-25.799 -358.665)" fill="#ffc250"/>
          <path id="Path_1039011" data-name="Path 1039011" d="M33.25,365.074H29.367a1.866,1.866,0,0,1-1.867-1.866v-2.349a1.866,1.866,0,0,1,1.867-1.866H33.25a1.866,1.866,0,0,0-1.866,1.866v2.349A1.866,1.866,0,0,0,33.25,365.074Z" transform="translate(-25.798 -329.301)" fill="#ffc250"/>
          <path id="Path_1039012" data-name="Path 1039012" d="M34.552,436.529H14.366a1.866,1.866,0,0,1-1.866-1.866v-2.349a1.866,1.866,0,0,1,1.866-1.866H34.552a1.866,1.866,0,0,1,1.866,1.866v2.349A1.866,1.866,0,0,1,34.552,436.529Z" transform="translate(-12.074 -394.676)" fill="#f1e64c"/>
          <path id="Path_1039013" data-name="Path 1039013" d="M36.419,462.546v1.484a1.866,1.866,0,0,1-1.866,1.865H14.367A1.866,1.866,0,0,1,12.5,464.03v-1.484a1.866,1.866,0,0,0,1.866,1.866H34.553A1.866,1.866,0,0,0,36.419,462.546Z" transform="translate(-12.075 -424.042)" fill="#ffc250"/>
          <path id="Path_1039014" data-name="Path 1039014" d="M18.25,436.532H14.367a1.866,1.866,0,0,1-1.867-1.866v-2.349a1.866,1.866,0,0,1,1.867-1.866H18.25a1.866,1.866,0,0,0-1.866,1.866v2.349A1.866,1.866,0,0,0,18.25,436.532Z" transform="translate(-12.075 -394.678)" fill="#ffc250"/>
          <g id="Group_1183844" data-name="Group 1183844" transform="translate(18.375 17.935)">
            <circle id="Ellipse_12367" data-name="Ellipse 12367" cx="11.959" cy="11.959" r="11.959" fill="#f1e64c"/>
            <g id="Group_1183843" data-name="Group 1183843" transform="translate(0 0)">
              <path id="Path_1039015" data-name="Path 1039015" d="M236.4,244.716q-.5.043-1.012.043a11.959,11.959,0,1,1,0-23.918q.512,0,1.012.043a11.959,11.959,0,0,0,0,23.833Z" transform="translate(-223.43 -220.841)" fill="#ffc250"/>
              <circle id="Ellipse_12368" data-name="Ellipse 12368" cx="8.075" cy="8.075" r="8.075" transform="translate(3.884 3.883)" fill="#ffc250"/>
            </g>
          </g>
          <g id="Group_1183845" data-name="Group 1183845" transform="translate(4.394 1.029)">
            <path id="Path_1039016" data-name="Path 1039016" d="M70.893,46.661V36.816h1.683a2.654,2.654,0,0,0,2.3-3.981l-5.394-9.342a2.654,2.654,0,0,0-4.6,0l-5.395,9.342a2.654,2.654,0,0,0,2.3,3.981h1.684v9.845a1.67,1.67,0,0,0,1.67,1.67h4.082A1.67,1.67,0,0,0,70.893,46.661Z" transform="translate(-59.13 -22.166)" fill="#95d6a4"/>
            <path id="Path_1039017" data-name="Path 1039017" d="M66.678,48.339H65.142a1.67,1.67,0,0,1-1.67-1.67V36.823H61.788a2.653,2.653,0,0,1-2.3-3.981L64.884,23.5a2.629,2.629,0,0,1,2.3-1.326A1.772,1.772,0,0,0,65.643,23.5l-3.614,9.341c-.685,1.77.171,3.981,1.539,3.981h.692a1.3,1.3,0,0,1,1.3,1.3v8.547C65.559,47.591,66.061,48.339,66.678,48.339Z" transform="translate(-59.13 -22.173)" fill="#78c2a4"/>
          </g>
          <g id="Group_1183846" data-name="Group 1183846" transform="translate(21.515)">
            <path id="Path_1039018" data-name="Path 1039018" d="M372.333,138.661l-.049-.182a1.265,1.265,0,0,1,.812-1.524l1.935-.664a1.265,1.265,0,0,1,1.632.869l.121.453a1.265,1.265,0,0,1-.979,1.569l-2.008.393A1.265,1.265,0,0,1,372.333,138.661Z" transform="translate(-362.717 -125.488)" fill="#f7f493"/>
            <path id="Path_1039019" data-name="Path 1039019" d="M331.573,59.569l-.133-.133a1.265,1.265,0,0,1-.059-1.726l1.344-1.542a1.265,1.265,0,0,1,1.848-.063l.331.331a1.265,1.265,0,0,1-.063,1.848L333.3,59.628a1.265,1.265,0,0,1-1.726-.059Z" transform="translate(-325.049 -51.848)" fill="#f7f493"/>
            <path id="Path_1039020" data-name="Path 1039020" d="M261.445,14.621l-.182-.049a1.265,1.265,0,0,1-.914-1.465l.393-2.008a1.265,1.265,0,0,1,1.569-.979l.453.121a1.265,1.265,0,0,1,.869,1.632l-.664,1.935a1.265,1.265,0,0,1-1.524.812Z" transform="translate(-260.325 -10.077)" fill="#f7f493"/>
          </g>
        </g>
        <g id="Group_1183848" data-name="Group 1183848" transform="translate(0 2.587)">
          <path id="Path_1039021" data-name="Path 1039021" d="M40.144,35.533a.638.638,0,1,0-.929.875,11.32,11.32,0,1,1-1.831-1.57.638.638,0,0,0,.724-1.051,12.6,12.6,0,0,0-10.151-1.85,2.494,2.494,0,0,0-1.808-.771H25.9a2.489,2.489,0,0,0,.323-1.228V27.59a2.507,2.507,0,0,0-2.5-2.5H21l-5.066-8.774a3.26,3.26,0,0,0-2.852-1.646h0a3.258,3.258,0,0,0-2.85,1.646L5.167,25.085H3.531a2.507,2.507,0,0,0-2.5,2.5v2.349a2.507,2.507,0,0,0,2.5,2.5h.251a2.489,2.489,0,0,0-.323,1.228v2.349a2.489,2.489,0,0,0,.323,1.228H2.5a2.507,2.507,0,0,0-2.5,2.5V42.1a2.508,2.508,0,0,0,2.049,2.462,2.488,2.488,0,0,0-.347,1.27v2.349a2.489,2.489,0,0,0,.407,1.367A2.508,2.508,0,0,0,.426,51.913v2.349a2.507,2.507,0,0,0,2.5,2.5H23.116A2.513,2.513,0,0,0,25.33,55.43a12.6,12.6,0,0,0,14.814-19.9ZM2.978,48.181V45.832A1.229,1.229,0,0,1,4.206,44.6H18.383a12.512,12.512,0,0,0,1.134,4.8H4.206a1.229,1.229,0,0,1-1.228-1.228ZM26.333,32.457a12.669,12.669,0,0,0-5.881,4.79H17.434v-4.8h8.715a1.229,1.229,0,0,1,.185.014ZM24.945,27.59v2.349a1.229,1.229,0,0,1-1.228,1.228H17.434v-.575h1.044a3.294,3.294,0,0,0,3.157-4.23h2.081a1.229,1.229,0,0,1,1.228,1.228ZM2.3,29.938V27.59a1.229,1.229,0,0,1,1.228-1.228h1a3.251,3.251,0,0,0-.059,1.651.638.638,0,0,0,1.245-.281,1.972,1.972,0,0,1,.225-1.442l5.394-9.342a1.994,1.994,0,0,1,1.744-1.007h0A2,2,0,0,1,14.83,16.95l5.394,9.341a2.016,2.016,0,0,1-1.746,3.024H16.8a.638.638,0,0,0-.638.638V39.8a1.033,1.033,0,0,1-1.032,1.032H11.044A1.033,1.033,0,0,1,10.012,39.8V29.953a.638.638,0,0,0-.638-.638H7.69A2.028,2.028,0,0,1,7,29.2a.638.638,0,1,0-.436,1.2,3.3,3.3,0,0,0,1.131.2H8.735v.575h-5.2A1.229,1.229,0,0,1,2.3,29.938Zm2.432,6.081V33.671a1.229,1.229,0,0,1,1.228-1.228H8.735v4.8H5.963A1.229,1.229,0,0,1,4.735,36.019ZM1.276,42.1V39.751A1.229,1.229,0,0,1,2.5,38.524H8.735V39.8a2.311,2.311,0,0,0,2.309,2.309h4.081A2.311,2.311,0,0,0,17.434,39.8V38.524h2.279a12.5,12.5,0,0,0-1.309,4.8H2.5A1.229,1.229,0,0,1,1.276,42.1ZM23.116,55.49H2.93A1.229,1.229,0,0,1,1.7,54.262V51.913A1.229,1.229,0,0,1,2.93,50.685H20.195A12.7,12.7,0,0,0,24.219,54.8,1.231,1.231,0,0,1,23.116,55.49Z" transform="translate(0 -13.637)"/>
          <path id="Path_1039022" data-name="Path 1039022" d="M327.952,294.361c-.226-.066-.457-.135-.688-.207v-2.828a2.7,2.7,0,0,1,1.125.412.638.638,0,0,0,.768-1.02,4.037,4.037,0,0,0-1.893-.677v-.551a.638.638,0,0,0-1.276,0v.592q-.185.031-.377.079a2.667,2.667,0,0,0-2.047,2.091,2.056,2.056,0,0,0,.9,2.1,7.556,7.556,0,0,0,1.523.716v3.582a3.68,3.68,0,0,1-1.821-.528.638.638,0,0,0-.605,1.124,4.884,4.884,0,0,0,2.427.681v.627a.638.638,0,1,0,1.276,0v-.668a3.25,3.25,0,0,0,2.87-2.622A2.679,2.679,0,0,0,327.952,294.361Zm-2.794-1.078a.79.79,0,0,1-.335-.82,1.37,1.37,0,0,1,1.095-1.062l.07-.016V293.7A5.342,5.342,0,0,1,325.157,293.283Zm3.713,3.807a1.937,1.937,0,0,1-1.606,1.5v-3.1l.331.1C328.5,295.851,328.967,296.4,328.87,297.09Z" transform="translate(-295.719 -264.492)"/>
          <path id="Path_1039023" data-name="Path 1039023" d="M270.283,258.977A8.714,8.714,0,1,0,279,267.691,8.723,8.723,0,0,0,270.283,258.977Zm0,16.151a7.437,7.437,0,1,1,7.437-7.437A7.446,7.446,0,0,1,270.283,275.128Z" transform="translate(-239.31 -237.159)"/>
          <path id="Path_1039024" data-name="Path 1039024" d="M364.811,131.793l.049.182h0a1.911,1.911,0,0,0,1.84,1.411,1.888,1.888,0,0,0,.364-.035l2.008-.393a1.9,1.9,0,0,0,1.473-2.361l-.121-.453a1.9,1.9,0,0,0-2.456-1.308l-1.935.664A1.909,1.909,0,0,0,364.811,131.793Zm1.635-1.086,1.935-.664a.627.627,0,0,1,.809.431l.121.453a.627.627,0,0,1-.485.778l-2.008.393a.628.628,0,0,1-.726-.453l-.049-.182A.629.629,0,0,1,366.446,130.707Z" transform="translate(-333.707 -117.999)"/>
          <path id="Path_1039025" data-name="Path 1039025" d="M324.282,53.158a1.909,1.909,0,0,0,2.6.089l1.542-1.344a1.9,1.9,0,0,0,.1-2.781l-.331-.331a1.9,1.9,0,0,0-2.781.1l-1.344,1.542a1.909,1.909,0,0,0,.089,2.6Zm.74-1.891,1.344-1.542a.62.62,0,0,1,.451-.215h.022a.62.62,0,0,1,.443.184l.331.331a.627.627,0,0,1-.031.916l-1.542,1.344a.629.629,0,0,1-.855-.029l-.133-.133A.629.629,0,0,1,325.022,51.266Z" transform="translate(-296.056 -44.348)"/>
          <path id="Path_1039026" data-name="Path 1039026" d="M271.547,70.725h0Z" transform="translate(-248.439 -64.927)"/>
          <path id="Path_1039027" data-name="Path 1039027" d="M254.24,8.337l.182.049a1.891,1.891,0,0,0,.489.065,1.911,1.911,0,0,0,1.8-1.286l.664-1.935a1.9,1.9,0,0,0-1.308-2.456l-.453-.121a1.9,1.9,0,0,0-2.361,1.473l-.393,2.008A1.909,1.909,0,0,0,254.24,8.337Zm-.123-1.959.393-2.008a.628.628,0,0,1,.614-.507.635.635,0,0,1,.164.022l.453.121a.627.627,0,0,1,.431.809l-.664,1.935a.629.629,0,0,1-.755.4h0L254.57,7.1A.629.629,0,0,1,254.117,6.378Z" transform="translate(-231.314 -2.587)"/>
        </g>
      </g>
    </g>
  </g>
</svg>
