<svg xmlns="http://www.w3.org/2000/svg" xmlns:xlink="http://www.w3.org/1999/xlink" width="113" height="113" viewBox="0 0 113 113">
  <defs>
    <filter id="Path_982547" x="0" y="0" width="113" height="113" filterUnits="userSpaceOnUse">
      <feOffset dy="3" input="SourceAlpha"/>
      <feGaussianBlur stdDeviation="3" result="blur"/>
      <feFlood flood-opacity="0.161"/>
      <feComposite operator="in" in2="blur"/>
      <feComposite in="SourceGraphic"/>
    </filter>
  </defs>
  <g id="Group_1184790" data-name="Group 1184790" transform="translate(-146.239 -3410.29)">
    <g id="Group_1184174" data-name="Group 1184174" transform="translate(0 18.29)">
      <g id="Group_1183751" data-name="Group 1183751" transform="translate(-46.761 2307.568)">
        <g id="Group_1173793" data-name="Group 1173793" transform="translate(202 1090.432)">
          <g id="Group_1167519" data-name="Group 1167519">
            <g id="Group_1166845" data-name="Group 1166845">
              <g id="Group_1166720" data-name="Group 1166720">
                <g id="Group_1164305" data-name="Group 1164305">
                  <g id="Group_1163948" data-name="Group 1163948">
                    <g id="Group_1158168" data-name="Group 1158168">
                      <g id="Group_1152576" data-name="Group 1152576">
                        <g id="Group_1148633" data-name="Group 1148633">
                          <g id="Group_1148525" data-name="Group 1148525">
                            <g transform="matrix(1, 0, 0, 1, -9, -6)" filter="url(#Path_982547)">
                              <g id="Path_982547-2" data-name="Path 982547" transform="translate(9 6)" fill="#e4f2f4">
                                <path d="M 47.5 93.5 C 41.28937149047852 93.5 35.26533508300781 92.28397369384766 29.59518623352051 89.88570404052734 C 24.11771965026855 87.56893157958984 19.19813346862793 84.25196075439453 14.97309303283691 80.02691650390625 C 10.74804019927979 75.80186462402344 7.431066513061523 70.88229370117188 5.114293098449707 65.40481567382812 C 2.716026782989502 59.73468017578125 1.5 53.71062850952148 1.5 47.5 C 1.5 41.28937149047852 2.716026782989502 35.26533508300781 5.114293098449707 29.59518623352051 C 7.431066513061523 24.11771965026855 10.74804019927979 19.19813346862793 14.97309303283691 14.97309303283691 C 19.19813346862793 10.74804019927979 24.11771965026855 7.431066513061523 29.59518623352051 5.114293098449707 C 35.26533508300781 2.716026782989502 41.28937149047852 1.5 47.5 1.5 C 53.71062850952148 1.5 59.73468017578125 2.716026782989502 65.40481567382812 5.114293098449707 C 70.88229370117188 7.431066513061523 75.80186462402344 10.74804019927979 80.02691650390625 14.97309303283691 C 84.25196075439453 19.19813346862793 87.56893157958984 24.11771965026855 89.88570404052734 29.59518623352051 C 92.28397369384766 35.26533508300781 93.5 41.28937149047852 93.5 47.5 C 93.5 53.71062850952148 92.28397369384766 59.73468017578125 89.88570404052734 65.40481567382812 C 87.56893157958984 70.88229370117188 84.25196075439453 75.80186462402344 80.02691650390625 80.02691650390625 C 75.80186462402344 84.25196075439453 70.88229370117188 87.56893157958984 65.40481567382812 89.88570404052734 C 59.73468017578125 92.28397369384766 53.71062850952148 93.5 47.5 93.5 Z" stroke="none"/>
                                <path d="M 47.5 3 C 41.49121475219727 3 35.66376876831055 4.176155090332031 30.17950439453125 6.495796203613281 C 24.88084411621094 8.736953735351562 20.12152099609375 11.94598388671875 16.03375244140625 16.03375244140625 C 11.94598388671875 20.12152099609375 8.736953735351562 24.88084411621094 6.495796203613281 30.17950439453125 C 4.176155090332031 35.66376876831055 3 41.49121475219727 3 47.5 C 3 53.50878524780273 4.176155090332031 59.33623123168945 6.495796203613281 64.82049560546875 C 8.736953735351562 70.11915588378906 11.94598388671875 74.87847900390625 16.03375244140625 78.96624755859375 C 20.12152099609375 83.05401611328125 24.88084411621094 86.26304626464844 30.17950439453125 88.50419616699219 C 35.66376876831055 90.82384490966797 41.49121475219727 92 47.5 92 C 53.50878524780273 92 59.33623123168945 90.82384490966797 64.82049560546875 88.50419616699219 C 70.11915588378906 86.26304626464844 74.87847900390625 83.05401611328125 78.96624755859375 78.96624755859375 C 83.05401611328125 74.87847900390625 86.26304626464844 70.11915588378906 88.50419616699219 64.82049560546875 C 90.82384490966797 59.33623123168945 92 53.50878524780273 92 47.5 C 92 41.49121475219727 90.82384490966797 35.66376876831055 88.50419616699219 30.17950439453125 C 86.26304626464844 24.88084411621094 83.05401611328125 20.12152099609375 78.96624755859375 16.03375244140625 C 74.87847900390625 11.94598388671875 70.11915588378906 8.736953735351562 64.82049560546875 6.495796203613281 C 59.33623123168945 4.176155090332031 53.50878524780273 3 47.5 3 M 47.5 0 C 73.7335205078125 0 95 21.2664794921875 95 47.5 C 95 73.7335205078125 73.7335205078125 95 47.5 95 C 21.2664794921875 95 0 73.7335205078125 0 47.5 C 0 21.2664794921875 21.2664794921875 0 47.5 0 Z" stroke="none" fill="#01899b"/>
                              </g>
                            </g>
                          </g>
                        </g>
                      </g>
                    </g>
                  </g>
                </g>
              </g>
            </g>
          </g>
        </g>
      </g>
      <g id="Layer_x0020_1" transform="translate(171.239 3420.806)">
        <g id="_278720528" transform="translate(0 0.194)">
          <g id="Group_1184148" data-name="Group 1184148" transform="translate(5.02 5.019)">
            <path id="_278723600" d="M39.405,44.127H.876a.74.74,0,0,1-.74-.74V1.069a.74.74,0,0,1,.74-.74H30.711a.741.741,0,0,1,.524.217l8.7,8.7a.74.74,0,0,1,.217.523V43.387a.742.742,0,0,1-.741.74Zm-37.79-1.48h37.05V10.072L30.4,1.809H1.615V42.647Z" transform="translate(-0.136 -0.329)" fill-rule="evenodd"/>
          </g>
          <g id="Group_1184149" data-name="Group 1184149" transform="translate(34.854 5.019)">
            <path id="_278723192" d="M10.387,10.505H1.682a.74.74,0,0,1-.74-.74V1.07A.74.74,0,0,1,2.206.547l8.627,8.627a.74.74,0,0,1-.445,1.332ZM2.422,9.026H8.591L2.422,2.857Z" transform="translate(-0.942 -0.329)" fill-rule="evenodd"/>
          </g>
          <g id="Group_1184150" data-name="Group 1184150" transform="translate(7.994 9.434)">
            <path id="_278722640" d="M7.643,15.287A7.419,7.419,0,0,1,7.627.449a7.5,7.5,0,0,1,.9.054.739.739,0,0,1,.646.823l-.711,5.9,5.9.711A.74.74,0,0,1,15,8.756a7.42,7.42,0,0,1-7.357,6.53ZM7.607,1.928a5.939,5.939,0,0,0-.682,11.835,6.052,6.052,0,0,0,.719.043,5.939,5.939,0,0,0,5.754-4.5L7.547,8.6A.74.74,0,0,1,6.9,7.777l.705-5.85Z" transform="translate(-0.216 -0.449)" fill-rule="evenodd"/>
          </g>
          <g id="Group_1184151" data-name="Group 1184151" transform="translate(16.887 7.485)">
            <path id="_278722736" d="M8.037,9.6c-.261,0-1.8-.184-5.888-.7L1.108,8.762a.74.74,0,0,1-.646-.823c.016-.134.06-.513.118-1.03.7-6.1.7-6.1.989-6.326A.889.889,0,0,1,2.123.4C3.694.4,8.263,6.723,8.75,8.132a1.063,1.063,0,0,1-.236,1.3.8.8,0,0,1-.476.16ZM2.016,7.385l.321.041c1.064.135,3.412.434,4.751.591A31.652,31.652,0,0,0,2.609,2.309c-.167,1.341-.436,3.7-.558,4.768-.013.109-.025.212-.036.308Z" transform="translate(-0.457 -0.396)" fill-rule="evenodd"/>
          </g>
          <g id="Group_1184152" data-name="Group 1184152" transform="translate(9.42 16.112)">
            <path id="_278722568" d="M1,6.232A.74.74,0,0,1,.538,4.91L5.792.787a.74.74,0,0,1,.914,1.165L1.452,6.075A.737.737,0,0,1,1,6.232Z" transform="translate(-0.255 -0.629)" fill-rule="evenodd"/>
          </g>
          <g id="Group_1184153" data-name="Group 1184153" transform="translate(30.775 24.452)">
            <path id="_278722688" d="M9.5,21.71H3.853a.741.741,0,0,1-.74-.74V8.962H1.572A.74.74,0,0,1,.985,7.77L6.092,1.143a.741.741,0,0,1,1.173,0l5.043,6.545a.74.74,0,0,1-.513,1.273H10.243V20.969a.74.74,0,0,1-.74.741ZM4.594,20.229H8.763V8.222a.74.74,0,0,1,.74-.74h.777l-3.6-4.675-3.6,4.675h.777a.741.741,0,0,1,.74.74V20.229h0Z" transform="translate(-0.832 -0.855)" fill-rule="evenodd"/>
          </g>
          <g id="Group_1184154" data-name="Group 1184154" transform="translate(25.85 33.922)">
            <path id="_278722472" d="M5.929,12.5H1.439a.741.741,0,0,1-.74-.74V1.85a.74.74,0,0,1,.74-.74H5.929a.741.741,0,0,1,.74.74v9.906A.741.741,0,0,1,5.929,12.5ZM2.179,11.016H5.189V2.59H2.179Z" transform="translate(-0.699 -1.11)" fill-rule="evenodd"/>
          </g>
          <g id="Group_1184155" data-name="Group 1184155" transform="translate(18.643 36.855)">
            <path id="_278722928" d="M5.735,9.642H1.244A.74.74,0,0,1,.5,8.9V1.93a.74.74,0,0,1,.74-.74H5.735a.741.741,0,0,1,.74.74V8.9A.741.741,0,0,1,5.735,9.642ZM1.984,8.161H4.995V2.669H1.984V8.161Z" transform="translate(-0.504 -1.19)" fill-rule="evenodd"/>
          </g>
          <g id="Group_1184156" data-name="Group 1184156" transform="translate(16.232 43.827)">
            <path id="_278722712" d="M24.9,2.858H1.179a.74.74,0,0,1,0-1.48H24.9a.74.74,0,0,1,0,1.48Z" transform="translate(-0.439 -1.378)" fill-rule="evenodd"/>
          </g>
          <g id="Group_1184157" data-name="Group 1184157" transform="translate(43.55 27.251)">
            <path id="_278722400" d="M8.385,19.289A9.162,9.162,0,0,1,1.35,16.006a.743.743,0,0,1-.173-.476V4.689a.743.743,0,0,1,.173-.476A9.179,9.179,0,1,1,8.385,19.289ZM2.657,15.254a7.7,7.7,0,1,0,0-10.289V15.254Z" transform="translate(-1.177 -0.93)" fill-rule="evenodd"/>
          </g>
          <g id="Group_1184158" data-name="Group 1184158" transform="translate(48.158 31.972)">
            <path id="_278721800" d="M3.9,9.972a2.6,2.6,0,0,1-2.6-2.6.74.74,0,1,1,1.48,0,1.118,1.118,0,0,0,2.237,0c0-.793-.31-.906-1.29-1.139C2.821,6.019,1.3,5.657,1.3,3.656a2.6,2.6,0,0,1,5.2,0,.74.74,0,1,1-1.48,0,1.118,1.118,0,0,0-2.237,0c0,.793.31.905,1.29,1.139C4.98,5.011,6.5,5.373,6.5,7.374a2.6,2.6,0,0,1-2.6,2.6Z" transform="translate(-1.302 -1.058)" fill-rule="evenodd"/>
          </g>
          <g id="Group_1184159" data-name="Group 1184159" transform="translate(50.017 39.407)">
            <path id="_278721944" d="M2.092,3.726a.74.74,0,0,1-.74-.74V2a.74.74,0,0,1,1.48,0v.987A.74.74,0,0,1,2.092,3.726Z" transform="translate(-1.352 -1.259)" fill-rule="evenodd"/>
          </g>
          <g id="Group_1184160" data-name="Group 1184160" transform="translate(43.549 24.044)">
            <path id="_278721632" d="M8.385,25.616a12.331,12.331,0,0,1-6.879-2.085.742.742,0,0,1-.329-.615V3.543a.74.74,0,0,1,.329-.615,12.387,12.387,0,1,1,6.88,22.689Zm-5.728-3.1a10.906,10.906,0,1,0,0-18.567V22.513Z" transform="translate(-1.177 -0.843)" fill-rule="evenodd"/>
          </g>
          <g id="Group_1184161" data-name="Group 1184161" transform="translate(50.017 30.986)">
            <path id="_278722304" d="M2.092,3.5a.74.74,0,0,1-.74-.74V1.771a.74.74,0,0,1,1.48,0v.987A.74.74,0,0,1,2.092,3.5Z" transform="translate(-1.352 -1.031)" fill-rule="evenodd"/>
          </g>
          <g id="Group_1184162" data-name="Group 1184162">
            <path id="_278722280" d="M5.76,45.3H.74a.741.741,0,0,1-.74-.74V.934A.74.74,0,0,1,.74.194H30.787a.74.74,0,0,1,.74.74v5.02a.74.74,0,0,1-.74.74H6.5V44.562a.74.74,0,0,1-.74.74Zm-4.28-1.48H5.02V5.953a.74.74,0,0,1,.74-.74H30.047V1.674H1.48V43.822Z" transform="translate(0 -0.194)" fill-rule="evenodd"/>
          </g>
          <g id="Group_1184163" data-name="Group 1184163" transform="translate(10.105 17.934)">
            <path id="_278721848" d="M1.012,18.289a.74.74,0,0,1-.093-1.474A31.918,31.918,0,0,0,13.279,12a.74.74,0,1,1,.836,1.221,32.849,32.849,0,0,1-13.008,5.06.866.866,0,0,1-.095.005Zm17-8.769A.74.74,0,0,1,17.446,8.3a17.953,17.953,0,0,0,3.736-7.073.74.74,0,0,1,1.429.384A19.418,19.418,0,0,1,18.57,9.261a.737.737,0,0,1-.563.259Z" transform="translate(-0.273 -0.678)" fill-rule="evenodd"/>
          </g>
          <g id="Group_1184164" data-name="Group 1184164" transform="translate(27.423 17.934)">
            <path id="_278722160" d="M6.181,6.082a.741.741,0,0,1-.711-.535L4.595,2.518,1.842,4.054a.74.74,0,1,1-.721-1.292L4.687.772a.74.74,0,0,1,1.071.441L6.892,5.137a.74.74,0,0,1-.506.916A.755.755,0,0,1,6.181,6.082Z" transform="translate(-0.741 -0.678)" fill-rule="evenodd"/>
          </g>
          <g id="Group_1184165" data-name="Group 1184165" transform="translate(8.403 38.447)">
            <path id="_278720840" d="M7.783,2.713H6.257a.74.74,0,1,1,0-1.48H7.783a.74.74,0,1,1,0,1.48Zm-3.408,0H.967a.74.74,0,1,1,0-1.48H4.375a.74.74,0,0,1,0,1.48Z" transform="translate(-0.227 -1.233)" fill-rule="evenodd"/>
          </g>
          <g id="Group_1184166" data-name="Group 1184166" transform="translate(8.403 41.69)">
            <path id="_278721080" d="M7.783,2.8h-3.2a.74.74,0,1,1,0-1.48h3.2a.74.74,0,1,1,0,1.48Zm-5.025,0H.967a.74.74,0,1,1,0-1.48H2.758a.74.74,0,0,1,0,1.48Z" transform="translate(-0.227 -1.32)" fill-rule="evenodd"/>
          </g>
          <g id="Group_1184167" data-name="Group 1184167" transform="translate(35.155 18.624)">
            <path id="_278721440" d="M7.555,2.177H6.241a.74.74,0,1,1,0-1.48H7.555a.74.74,0,1,1,0,1.48Zm-2.933,0H1.69A.74.74,0,1,1,1.69.7H4.622a.74.74,0,1,1,0,1.48Z" transform="translate(-0.95 -0.697)" fill-rule="evenodd"/>
          </g>
          <g id="Group_1184168" data-name="Group 1184168" transform="translate(35.155 21.867)">
            <path id="_278721320" d="M7.555,2.265H4.8a.74.74,0,1,1,0-1.48H7.555a.74.74,0,1,1,0,1.48Zm-4.324,0H1.69a.74.74,0,1,1,0-1.48H3.231a.74.74,0,1,1,0,1.48Z" transform="translate(-0.95 -0.785)" fill-rule="evenodd"/>
          </g>
          <g id="Group_1184169" data-name="Group 1184169" transform="translate(8.986 26.407)">
            <path id="_278721176" d="M6.848,2.387H5.535a.74.74,0,0,1,0-1.48H6.848a.74.74,0,0,1,0,1.48Zm-2.932,0H.983a.74.74,0,0,1,0-1.48H3.916a.74.74,0,1,1,0,1.48Z" transform="translate(-0.243 -0.907)" fill-rule="evenodd"/>
          </g>
          <g id="Group_1184170" data-name="Group 1184170" transform="translate(8.986 29.65)">
            <path id="_278721032" d="M6.848,2.475H4.093a.74.74,0,0,1,0-1.48H6.848a.74.74,0,0,1,0,1.48Zm-4.324,0H.983a.74.74,0,0,1,0-1.48H2.524a.74.74,0,1,1,0,1.48Z" transform="translate(-0.243 -0.995)" fill-rule="evenodd"/>
          </g>
          <g id="Group_1184171" data-name="Group 1184171" transform="translate(24.725 8.924)">
            <path id="_278720864" d="M9.44,1.915h-1.8a.74.74,0,1,1,0-1.48h1.8a.74.74,0,1,1,0,1.48Zm-4.016,0H1.408a.74.74,0,0,1,0-1.48H5.424a.74.74,0,1,1,0,1.48Z" transform="translate(-0.668 -0.435)" fill-rule="evenodd"/>
          </g>
          <g id="Group_1184172" data-name="Group 1184172" transform="translate(24.725 12.168)">
            <path id="_278720792" d="M9.44,2H5.668a.74.74,0,1,1,0-1.48H9.44A.74.74,0,1,1,9.44,2ZM3.519,2H1.408a.74.74,0,0,1,0-1.48H3.519a.74.74,0,1,1,0,1.48Z" transform="translate(-0.668 -0.523)" fill-rule="evenodd"/>
          </g>
          <g id="Group_1184173" data-name="Group 1184173" transform="translate(22.18 24.464)">
            <path id="_278720552" d="M4.23,8.116a3.63,3.63,0,1,1,3.63-3.63A3.635,3.635,0,0,1,4.23,8.116Zm0-5.781A2.151,2.151,0,1,0,6.381,4.485,2.153,2.153,0,0,0,4.23,2.335Z" transform="translate(-0.6 -0.855)" fill-rule="evenodd"/>
          </g>
        </g>
        <path id="Path_1039895" data-name="Path 1039895" d="M4.32,3.773H28.607V.234H.04V42.382H3.58V4.513a.74.74,0,0,1,.74-.74Z" transform="translate(1.44 1.44)" fill="#d4d8e0" fill-rule="evenodd"/>
        <path id="Path_1039896" data-name="Path 1039896" d="M6.166.489A5.936,5.936,0,0,0,1.1,9.482L5.5,6.035,6.166.489Z" transform="translate(9.219 10.618)" fill="#ffc107" fill-rule="evenodd"/>
        <path id="Path_1039897" data-name="Path 1039897" d="M10.242,1.339,4.7.67.3,4.117A5.909,5.909,0,0,0,3.769,5.795a6.052,6.052,0,0,0,.719.043,5.939,5.939,0,0,0,5.754-4.5Z" transform="translate(10.934 17.147)" fill="#2196f3" fill-rule="evenodd"/>
        <path id="Path_1039898" data-name="Path 1039898" d="M.819,5.564C1.884,5.7,4.231,6,5.57,6.155A31.652,31.652,0,0,0,1.092.448C.925,1.788.656,4.147.534,5.216L.5,5.524l.321.041Z" transform="translate(17.948 9.143)" fill="#4caf50" fill-rule="evenodd"/>
        <path id="Path_1039899" data-name="Path 1039899" d="M.982.4V6.567H7.151Z" transform="translate(35.353 7.342)" fill="#d4d8e0" fill-rule="evenodd"/>
        <path id="Path_1039900" data-name="Path 1039900" d="M27.173,7.518H23.4a.74.74,0,1,1,0-1.48h3.773a.74.74,0,1,1,0,1.48Zm1.358.807V.369H.176V41.207h37.05V9.065H29.271a.74.74,0,0,1-.74-.74Zm-7.279-.807H19.141a.74.74,0,0,1,0-1.48h2.111a.74.74,0,1,1,0,1.48Zm5.921-3.244h-1.8a.74.74,0,1,1,0-1.48h1.8a.74.74,0,1,1,0,1.48Zm-4.016,0H19.141a.74.74,0,0,1,0-1.48h4.016a.74.74,0,1,1,0,1.48Zm-1.964,10.62a.74.74,0,0,1,.286-1.006l3.541-1.975.025-.014a.74.74,0,0,1,1.071.441l0,.014,1.13,3.91a.74.74,0,0,1-.506.916.755.755,0,0,1-.206.029.741.741,0,0,1-.711-.535l-.476-1.648a19.4,19.4,0,0,1-2.876,4.882A3.629,3.629,0,0,1,17.1,24.7,32.99,32.99,0,0,1,4.615,29.41a.867.867,0,0,1-.095.005.74.74,0,0,1-.093-1.474A32.139,32.139,0,0,0,16.2,23.516a3.629,3.629,0,0,1,5.2-4.634,17.921,17.921,0,0,0,2.721-4.775L22.2,15.179a.74.74,0,0,1-1.007-.286Zm8.378-.92a.74.74,0,1,1,0-1.48H32.5a.74.74,0,1,1,0,1.48Zm4.551,0a.74.74,0,1,1,0-1.48h1.313a.74.74,0,1,1,0,1.48ZM18.144,10.555c-.261,0-1.8-.184-5.888-.7L11.215,9.72a.74.74,0,0,1-.646-.823l.118-1.03c.7-6.1.7-6.1.989-6.326a.889.889,0,0,1,.554-.186c1.571,0,6.141,6.327,6.627,7.736a1.063,1.063,0,0,1-.236,1.3.8.8,0,0,1-.476.16Zm-1.689,1.057A7.415,7.415,0,0,1,3.3,15.355c-.016-.017-.031-.034-.045-.053s-.028-.037-.04-.056A7.415,7.415,0,0,1,9.081,3.3a7.5,7.5,0,0,1,.9.054.739.739,0,0,1,.646.823l-.711,5.9,5.9.711a.74.74,0,0,1,.646.824Zm8.3,16.18a.741.741,0,0,1,.74.74V37.7h1.236V26.43H25.191a.74.74,0,0,1-.586-1.192l5.106-6.627a.741.741,0,0,1,1.173,0l5.043,6.545a.74.74,0,0,1-.513,1.273H33.862V37.7h.512a.74.74,0,0,1,0,1.48H10.648a.74.74,0,0,1,0-1.48H12.32V31.465a.74.74,0,0,1,.74-.74H17.55a.741.741,0,0,1,.74.74V37.7h1.236V28.532a.74.74,0,0,1,.74-.74h4.491Zm-16.8-7.514H9.268a.74.74,0,0,1,0,1.48H7.955a.74.74,0,1,1,0-1.48ZM3.4,23.521H4.944a.74.74,0,1,1,0,1.48H3.4a.74.74,0,0,1,0-1.48Zm5.865,0a.74.74,0,0,1,0,1.48H6.513a.74.74,0,0,1,0-1.48Zm19.563-7.043a.74.74,0,0,1,.74-.74h1.541a.74.74,0,1,1,0,1.48H29.571a.74.74,0,0,1-.74-.74Zm3.85.74a.74.74,0,1,1,0-1.48h2.755a.74.74,0,1,1,0,1.48ZM6.335,20.278a.74.74,0,1,1,0,1.48H3.4a.74.74,0,1,1,0-1.48Zm3.3,12.04a.74.74,0,1,1,0,1.48H8.109a.74.74,0,1,1,0-1.48Zm-3.2,3.243h3.2a.74.74,0,1,1,0,1.48h-3.2a.74.74,0,1,1,0-1.48Zm-.207-3.243a.74.74,0,0,1,0,1.48H2.82a.74.74,0,1,1,0-1.48ZM4.61,35.56a.74.74,0,0,1,0,1.48H2.82a.74.74,0,1,1,0-1.48Z" transform="translate(6.324 6.324)" fill="#ecf0f9" fill-rule="evenodd"/>
        <path id="Path_1039901" data-name="Path 1039901" d="M3.555,6.722V1.23H.544V6.722Z" transform="translate(19.579 37.299)" fill="#f8cf26" fill-rule="evenodd"/>
        <path id="Path_1039902" data-name="Path 1039902" d="M.739,1.15V9.575H3.749V1.15Z" transform="translate(26.592 34.445)" fill="#39b54a" fill-rule="evenodd"/>
        <path id="Path_1039903" data-name="Path 1039903" d="M2.41,6.322V18.329H6.579V6.322a.74.74,0,0,1,.74-.74H8.1L4.495.907.892,5.582H1.67a.741.741,0,0,1,.74.74Z" transform="translate(32.127 25.692)" fill="#177dc0" fill-rule="evenodd"/>
        <path id="Path_1039904" data-name="Path 1039904" d="M2.79,5.2A2.151,2.151,0,1,0,.64,3.045,2.153,2.153,0,0,0,2.79,5.2Z" transform="translate(23.021 25.244)" fill="#f25960" fill-rule="evenodd"/>
        <path id="Path_1039905" data-name="Path 1039905" d="M6.945,2.611A9.179,9.179,0,1,1,1.217,18.963v2.11a10.906,10.906,0,1,0,0-18.568V4.617A9.156,9.156,0,0,1,6.945,2.611Z" transform="translate(43.813 24.834)" fill="#ffcb49" fill-rule="evenodd"/>
        <path id="Path_1039906" data-name="Path 1039906" d="M14.643,8.669A7.7,7.7,0,0,0,1.217,3.525V13.813A7.7,7.7,0,0,0,14.643,8.669ZM7.684,4.318A2.6,2.6,0,0,1,9.543,6.809a.74.74,0,1,1-1.48,0A1.12,1.12,0,0,0,6.973,5.691H6.916a1.119,1.119,0,0,0-1.09,1.118c0,.793.31.905,1.29,1.139.908.216,2.427.578,2.427,2.579a2.6,2.6,0,0,1-1.859,2.491v.354a.74.74,0,1,1-1.48,0v-.354a2.6,2.6,0,0,1-1.859-2.491.74.74,0,1,1,1.48,0,1.118,1.118,0,0,0,2.237,0c0-.793-.31-.906-1.29-1.139-.908-.216-2.427-.578-2.427-2.579A2.6,2.6,0,0,1,6.2,4.318V3.965a.74.74,0,0,1,1.48,0v.354Z" transform="translate(43.813 27.955)" fill="#ffad09" fill-rule="evenodd"/>
      </g>
    </g>
  </g>
</svg>
