<svg xmlns="http://www.w3.org/2000/svg" xmlns:xlink="http://www.w3.org/1999/xlink" width="110" height="110" viewBox="0 0 110 110">
  <defs>
    <filter id="Path_982547" x="0" y="0" width="110" height="110" filterUnits="userSpaceOnUse">
      <feOffset dy="3" input="SourceAlpha"/>
      <feGaussianBlur stdDeviation="3" result="blur"/>
      <feFlood flood-opacity="0.161"/>
      <feComposite operator="in" in2="blur"/>
      <feComposite in="SourceGraphic"/>
    </filter>
  </defs>
  <g id="Group_1184785" data-name="Group 1184785" transform="translate(-1113.979 -2443.623)">
    <g id="Group_1184115" data-name="Group 1184115" transform="translate(-33 18.29)">
      <g id="Group_1183744" data-name="Group 1183744" transform="translate(458.936 -388.667)">
        <g id="Group_1181546" data-name="Group 1181546" transform="translate(-4.696 -130.677)">
          <g id="Group_1177563" data-name="Group 1177563" transform="translate(0.279 -12113.323)">
            <g id="Group_1173148" data-name="Group 1173148" transform="translate(701.461 15064)">
              <g id="Group_1163803" data-name="Group 1163803" transform="translate(0 0)">
                <g id="Group_1163015" data-name="Group 1163015">
                  <g id="Group_1157017" data-name="Group 1157017" transform="translate(0 0)">
                    <g id="Group_1155793" data-name="Group 1155793" transform="translate(0 0)">
                      <g id="Group_1154704" data-name="Group 1154704">
                        <g id="Group_1150790" data-name="Group 1150790">
                          <g id="Group_1154214" data-name="Group 1154214">
                            <g id="Group_1152583" data-name="Group 1152583">
                              <g id="Group_1146973" data-name="Group 1146973" transform="translate(0 0)">
                                <g id="Group_1146954" data-name="Group 1146954">
                                  <g transform="matrix(1, 0, 0, 1, -9, -6)" filter="url(#Path_982547)">
                                    <g id="Path_982547-2" data-name="Path 982547" transform="translate(9 6)" fill="#e4f2f4">
                                      <path d="M 46.00000381469727 90.49988555908203 C 39.99188232421875 90.49988555908203 34.16427230834961 89.32352447509766 28.67905807495117 87.00347137451172 C 23.38020324707031 84.76226043701172 18.62103080749512 81.55342864990234 14.53375053405762 77.46615600585938 C 10.44645690917969 73.37887573242188 7.237643718719482 68.61971282958984 4.996417045593262 63.32085800170898 C 2.676363706588745 57.83565902709961 1.500003814697266 52.00806045532227 1.500003814697266 45.99993896484375 C 1.500003814697266 39.99181747436523 2.676363706588745 34.16421890258789 4.996417045593262 28.67901802062988 C 7.237643718719482 23.38017845153809 10.44645690917969 18.62101936340332 14.53375053405762 14.53373908996582 C 18.62103080749512 10.44645881652832 23.38020324707031 7.237632274627686 28.67905807495117 4.996418952941895 C 34.16427230834961 2.676365613937378 39.99188232421875 1.500005602836609 46.00000381469727 1.500005602836609 C 52.00812530517578 1.500005602836609 57.83573532104492 2.676365613937378 63.32094955444336 4.996418952941895 C 68.61980438232422 7.237632274627686 73.37896728515625 10.44645881652832 77.46625518798828 14.53373908996582 C 81.55353546142578 18.62101936340332 84.76236724853516 23.38017845153809 87.00359344482422 28.67901802062988 C 89.32364654541016 34.16421890258789 90.5 39.99181747436523 90.5 45.99993896484375 C 90.5 52.00806045532227 89.32364654541016 57.83565902709961 87.00359344482422 63.32085800170898 C 84.76236724853516 68.61971282958984 81.55353546142578 73.37887573242188 77.46625518798828 77.46615600585938 C 73.37896728515625 81.55342864990234 68.61980438232422 84.76226043701172 63.32094955444336 87.00347137451172 C 57.83573532104492 89.32352447509766 52.00812530517578 90.49988555908203 46.00000381469727 90.49988555908203 Z" stroke="none"/>
                                      <path d="M 46.00000381469727 2.999992370605469 C 40.19371795654297 2.999992370605469 34.56270217895508 4.136497497558594 29.26338958740234 6.377906799316406 C 24.14333343505859 8.543510437011719 19.54441833496094 11.64437866210938 15.59440612792969 15.59439849853516 C 11.64440155029297 19.54439544677734 8.54351806640625 24.14329528808594 6.377914428710938 29.26335144042969 C 4.136505126953125 34.56266784667969 3.000007629394531 40.19366836547852 3.000007629394531 45.99993896484375 C 3.000007629394531 51.80620956420898 4.136505126953125 57.43722534179688 6.377914428710938 62.73654174804688 C 8.54351806640625 67.85658264160156 11.64440155029297 72.45548248291016 15.59440612792969 76.40549468994141 C 19.54441833496094 80.35549926757812 24.14333343505859 83.45636749267578 29.26337432861328 85.62196350097656 C 34.56270217895508 87.86338043212891 40.19371795654297 88.9998779296875 46.00000381469727 88.9998779296875 C 51.80628967285156 88.9998779296875 57.43730545043945 87.86338043212891 62.73663330078125 85.62196350097656 C 67.85667419433594 83.45636749267578 72.45558929443359 80.35549926757812 76.40560150146484 76.40549468994141 C 80.35560607910156 72.45548248291016 83.45648956298828 67.85658264160156 85.62208557128906 62.73654174804688 C 87.86350250244141 57.43722534179688 89 51.80620956420898 89 45.99993896484375 C 89 40.19366836547852 87.86350250244141 34.56266784667969 85.62208557128906 29.26335144042969 C 83.45648956298828 24.14329528808594 80.35560607910156 19.54439544677734 76.40560150146484 15.59439849853516 C 72.45558929443359 11.64437866210938 67.85667419433594 8.543510437011719 62.73661804199219 6.377906799316406 C 57.43730545043945 4.136497497558594 51.80628967285156 2.999992370605469 46.00000381469727 2.999992370605469 M 46.00000381469727 -7.62939453125e-06 C 71.40510559082031 -7.62939453125e-06 92 20.59487915039062 92 45.99993896484375 C 92 71.40501403808594 71.40510559082031 91.99988555908203 46.00000381469727 91.99988555908203 C 20.59490203857422 91.99988555908203 7.62939453125e-06 71.40501403808594 7.62939453125e-06 45.99993896484375 C 7.62939453125e-06 20.59487915039062 20.59490203857422 -7.62939453125e-06 46.00000381469727 -7.62939453125e-06 Z" stroke="none" fill="#01899b"/>
                                    </g>
                                  </g>
                                </g>
                              </g>
                            </g>
                          </g>
                        </g>
                      </g>
                    </g>
                  </g>
                </g>
              </g>
            </g>
          </g>
        </g>
      </g>
      <g id="objetivo_1_" data-name="objetivo (1)" transform="translate(1158.325 2449.967)">
        <g id="Group_1184109" data-name="Group 1184109" transform="translate(14.742 0.907)">
          <g id="Group_1184098" data-name="Group 1184098" transform="translate(23.903)">
            <path id="Path_1039816" data-name="Path 1039816" d="M251.774,54.926H219.181l-.121.121V80.832a14.759,14.759,0,0,1,7.71,20.285h24.54a.585.585,0,0,0,.585-.585V55.047Z" transform="translate(-219.06 -49.193)" fill="#c8effe"/>
            <path id="Path_1039817" data-name="Path 1039817" d="M222.679,82.923V55.047l.121-.121h-3.619l-.121.121V80.832A14.737,14.737,0,0,1,222.679,82.923Z" transform="translate(-219.06 -49.193)" fill="#99e6fc"/>
            <g id="Group_1184084" data-name="Group 1184084" transform="translate(0)">
              <path id="Path_1039818" data-name="Path 1039818" d="M251.894,13.354H219.06V8.709A1.209,1.209,0,0,1,220.269,7.5h30.417a1.209,1.209,0,0,1,1.209,1.209Z" transform="translate(-219.06 -7.5)" fill="#7ca1b1"/>
            </g>
            <g id="Group_1184085" data-name="Group 1184085" transform="translate(0)">
              <path id="Path_1039819" data-name="Path 1039819" d="M220.269,7.5a1.209,1.209,0,0,0-1.209,1.209v4.645h7.254V7.5Z" transform="translate(-219.06 -7.5)" fill="#678d98"/>
            </g>
            <g id="Group_1184086" data-name="Group 1184086" transform="translate(0)">
              <path id="Path_1039820" data-name="Path 1039820" d="M223.888,7.5h-3.619a1.209,1.209,0,0,0-1.209,1.209v4.645h3.619V8.709A1.209,1.209,0,0,1,223.888,7.5Z" transform="translate(-219.06 -7.5)" fill="#537983"/>
            </g>
            <g id="Group_1184089" data-name="Group 1184089" transform="translate(5.472 9.831)">
              <g id="Group_1184087" data-name="Group 1184087">
                <path id="Path_1039821" data-name="Path 1039821" d="M268.547,93.406h-3.856a.363.363,0,0,1-.363-.363V89.187a.363.363,0,0,1,.363-.363h3.856a.363.363,0,0,1,.363.363v3.856A.363.363,0,0,1,268.547,93.406Z" transform="translate(-264.328 -88.824)" fill="#01d0fb"/>
              </g>
              <g id="Group_1184088" data-name="Group 1184088">
                <path id="Path_1039822" data-name="Path 1039822" d="M266.356,93.043V89.187a.363.363,0,0,1,.363-.363h-2.028a.363.363,0,0,0-.363.363v3.856a.363.363,0,0,0,.363.363h2.028A.363.363,0,0,1,266.356,93.043Z" transform="translate(-264.328 -88.824)" fill="#01c0fa"/>
              </g>
            </g>
            <g id="Group_1184092" data-name="Group 1184092" transform="translate(5.472 17.945)">
              <g id="Group_1184090" data-name="Group 1184090">
                <path id="Path_1039823" data-name="Path 1039823" d="M268.547,160.518h-3.856a.363.363,0,0,1-.363-.363V156.3a.363.363,0,0,1,.363-.363h3.856a.363.363,0,0,1,.363.363v3.856A.363.363,0,0,1,268.547,160.518Z" transform="translate(-264.328 -155.936)" fill="#01d0fb"/>
              </g>
              <g id="Group_1184091" data-name="Group 1184091">
                <path id="Path_1039824" data-name="Path 1039824" d="M266.356,160.155V156.3a.363.363,0,0,1,.363-.363h-2.028a.363.363,0,0,0-.363.363v3.856a.363.363,0,0,0,.363.363h2.028A.363.363,0,0,1,266.356,160.155Z" transform="translate(-264.328 -155.936)" fill="#01c0fa"/>
              </g>
            </g>
            <g id="Group_1184095" data-name="Group 1184095" transform="translate(5.472 26.058)">
              <g id="Group_1184093" data-name="Group 1184093">
                <path id="Path_1039825" data-name="Path 1039825" d="M268.547,227.63h-3.856a.363.363,0,0,1-.363-.363v-3.856a.363.363,0,0,1,.363-.363h3.856a.363.363,0,0,1,.363.363v3.856A.363.363,0,0,1,268.547,227.63Z" transform="translate(-264.328 -223.048)" fill="#01d0fb"/>
              </g>
              <g id="Group_1184094" data-name="Group 1184094">
                <path id="Path_1039826" data-name="Path 1039826" d="M266.356,227.267v-3.856a.363.363,0,0,1,.363-.363h-2.028a.363.363,0,0,0-.363.363v3.856a.363.363,0,0,0,.363.363h2.028A.363.363,0,0,1,266.356,227.267Z" transform="translate(-264.328 -223.048)" fill="#01c0fa"/>
              </g>
            </g>
            <g id="Group_1184097" data-name="Group 1184097" transform="translate(5.472 34.171)">
              <path id="Path_1039827" data-name="Path 1039827" d="M268.547,290.159h-3.856a.363.363,0,0,0-.363.363v.93a14.777,14.777,0,0,1,2.242,3.288h1.977a.363.363,0,0,0,.363-.363v-3.856A.363.363,0,0,0,268.547,290.159Z" transform="translate(-264.328 -290.159)" fill="#01d0fb"/>
              <g id="Group_1184096" data-name="Group 1184096">
                <path id="Path_1039828" data-name="Path 1039828" d="M266.356,294.327v-3.8a.363.363,0,0,1,.363-.363h-2.028a.363.363,0,0,0-.363.363v.93A14.8,14.8,0,0,1,266.356,294.327Z" transform="translate(-264.328 -290.159)" fill="#01c0fa"/>
              </g>
            </g>
          </g>
          <g id="Group_1184105" data-name="Group 1184105" transform="translate(3.666 30.584)">
            <path id="Path_1039829" data-name="Path 1039829" d="M66.411,260.489a14.806,14.806,0,0,0-3.107.329,7.806,7.806,0,0,1-10.718,9.273,14.751,14.751,0,1,0,13.825-9.6Z" transform="translate(-51.662 -260.489)" fill="#fd5426"/>
            <g id="Group_1184099" data-name="Group 1184099" transform="translate(0 9.602)">
              <path id="Path_1039830" data-name="Path 1039830" d="M54.723,345.063a14.741,14.741,0,0,1,.688-4.464,7.762,7.762,0,0,1-2.826-.684,14.757,14.757,0,0,0,13.825,19.9,14.892,14.892,0,0,0,1.531-.079A14.751,14.751,0,0,1,54.723,345.063Z" transform="translate(-51.661 -339.915)" fill="#ef4424"/>
            </g>
            <path id="Path_1039831" data-name="Path 1039831" d="M101.235,300.1a9.913,9.913,0,0,0-3.354.583,7.82,7.82,0,0,1-5.442,4.71,9.958,9.958,0,1,0,8.8-5.293Z" transform="translate(-86.485 -295.312)" fill="#fff"/>
            <path id="Path_1039832" data-name="Path 1039832" d="M94.384,310.062a9.976,9.976,0,0,1,8.406-9.838,9.949,9.949,0,0,0-4.909.46,7.82,7.82,0,0,1-5.442,4.71A9.958,9.958,0,0,0,102.79,319.9,9.976,9.976,0,0,1,94.384,310.062Z" transform="translate(-86.485 -295.312)" fill="#eef5f6"/>
            <g id="Group_1184100" data-name="Group 1184100" transform="translate(33.222 11.299)">
              <path id="Path_1039833" data-name="Path 1039833" d="M336.165,353.952H329.02a.363.363,0,0,0-.3.158l-2.247,3.292,2.247,3.292a.363.363,0,0,0,.3.158h7.145a.363.363,0,0,0,.3-.573l-2.053-2.877,2.053-2.877A.363.363,0,0,0,336.165,353.952Z" transform="translate(-326.474 -353.952)" fill="#fff"/>
            </g>
            <g id="Group_1184101" data-name="Group 1184101" transform="translate(33.222 11.299)">
              <path id="Path_1039834" data-name="Path 1039834" d="M336.165,353.952H329.02a.363.363,0,0,0-.3.158l-2.247,3.292,2.247,3.292a.363.363,0,0,0,.3.158h7.145a.363.363,0,0,0,.3-.573l-2.053-2.877,2.053-2.877A.363.363,0,0,0,336.165,353.952Z" transform="translate(-326.474 -353.952)" fill="#fff"/>
            </g>
            <g id="Group_1184102" data-name="Group 1184102" transform="translate(33.222 11.299)">
              <path id="Path_1039835" data-name="Path 1039835" d="M331.787,360.694,329.54,357.4l2.247-3.292a.363.363,0,0,1,.3-.158h-3.065a.363.363,0,0,0-.3.158l-2.247,3.292,2.247,3.292a.363.363,0,0,0,.3.158h3.065A.363.363,0,0,1,331.787,360.694Z" transform="translate(-326.475 -353.951)" fill="#eef5f6"/>
            </g>
            <g id="Group_1184103" data-name="Group 1184103" transform="translate(9.578 9.578)">
              <circle id="Ellipse_12412" data-name="Ellipse 12412" cx="5.172" cy="5.172" r="5.172" fill="#fd5426"/>
            </g>
            <g id="Group_1184104" data-name="Group 1184104" transform="translate(9.578 9.578)">
              <path id="Path_1039836" data-name="Path 1039836" d="M133.922,344.886a5.181,5.181,0,0,1,3.654-4.944,5.172,5.172,0,1,0,0,9.888A5.181,5.181,0,0,1,133.922,344.886Z" transform="translate(-130.886 -339.714)" fill="#ef4424"/>
            </g>
          </g>
          <g id="Group_1184108" data-name="Group 1184108" transform="translate(0 25.266)">
            <g id="Group_1184106" data-name="Group 1184106">
              <circle id="Ellipse_12413" data-name="Ellipse 12413" cx="7.807" cy="7.807" r="7.807" fill="#fed402"/>
            </g>
            <g id="Group_1184107" data-name="Group 1184107" transform="translate(0)">
              <path id="Path_1039837" data-name="Path 1039837" d="M25.4,224.309a7.809,7.809,0,0,1,5.772-7.537,7.807,7.807,0,1,0,0,15.074,7.809,7.809,0,0,1-5.772-7.537Z" transform="translate(-21.335 -216.502)" fill="#fac600"/>
            </g>
          </g>
        </g>
        <g id="Group_1184113" data-name="Group 1184113" transform="translate(21.471 5.924)">
          <g id="Group_1184111" data-name="Group 1184111" transform="translate(0 0)">
            <g id="Group_1184110" data-name="Group 1184110">
              <path id="Path_1039838" data-name="Path 1039838" d="M79.648,49.124l-2.524,2.524a.423.423,0,0,0-.124.3V65.682a.424.424,0,0,0,.424.424h12.81a.424.424,0,0,0,.424-.424V49.424A.424.424,0,0,0,90.234,49H79.948a.423.423,0,0,0-.3.124Z" transform="translate(-77 -49)" fill="#fdf6ec"/>
            </g>
          </g>
          <g id="Group_1184112" data-name="Group 1184112">
            <path id="Path_1039839" data-name="Path 1039839" d="M81.11,65.682V51.948a.424.424,0,0,1,.124-.3l2.524-2.524a.424.424,0,0,1,.3-.124h-4.11a.424.424,0,0,0-.3.124l-2.524,2.524a.424.424,0,0,0-.124.3V65.682a.424.424,0,0,0,.424.424h4.11a.424.424,0,0,1-.424-.424Z" transform="translate(-77 -49)" fill="#fef1da"/>
          </g>
        </g>
        <g id="Group_1184114" data-name="Group 1184114" transform="translate(13.835)">
          <path id="Path_1039840" data-name="Path 1039840" d="M71.479,27.865a.907.907,0,0,0,.907-.907V2.116A2.118,2.118,0,0,0,70.27,0H39.854a2.118,2.118,0,0,0-2.116,2.116V31.268a15.662,15.662,0,0,0-7.085-.482A8.711,8.711,0,1,0,18.224,41.539,15.654,15.654,0,0,0,46.9,53.738h24a1.493,1.493,0,0,0,1.492-1.492V31.19a.907.907,0,0,0-1.813,0V51.924H47.745a15.546,15.546,0,0,0,1.041-4.778h2.365l1.976,2.9a1.268,1.268,0,0,0,1.049.554h7.145a1.269,1.269,0,0,0,1.033-2.007l-1.03-1.444h.044a.907.907,0,0,0,0-1.813h-.044l1.03-1.444a1.269,1.269,0,0,0-1.033-2.007H54.176a1.269,1.269,0,0,0-1.049.554l-1.977,2.9H48.786a15.548,15.548,0,0,0-1.038-4.768h.588A1.271,1.271,0,0,0,49.605,39.3V35.44a1.271,1.271,0,0,0-1.269-1.269H44.48a1.265,1.265,0,0,0-.911.388,15.7,15.7,0,0,0-4.017-2.608V7.668H70.573V26.959a.907.907,0,0,0,.907.907ZM54.464,48.784l-1.117-1.637H59.1l1.168,1.637Zm0-5.088h5.8L59.1,45.333h-5.75ZM15.648,33.98a6.9,6.9,0,1,1,6.9,6.9A6.908,6.908,0,0,1,15.648,33.98Zm17.509,26.1a13.845,13.845,0,0,1-13.264-17.8,8.678,8.678,0,0,0,2.655.415c.114,0,.227,0,.34-.009A10.861,10.861,0,0,0,39.1,55.334a.907.907,0,1,0-.994-1.517A9.048,9.048,0,0,1,24.988,42.343a8.751,8.751,0,0,0,5.485-4.749,9.05,9.05,0,0,1,11.692,7.739h-3a6.079,6.079,0,1,0,0,1.813h3a9.01,9.01,0,0,1-1.36,3.929.907.907,0,1,0,1.531.972,10.819,10.819,0,0,0,1.649-4.9h2.984A13.86,13.86,0,0,1,33.157,60.083Zm0-12.936h4.167a4.265,4.265,0,1,1,0-1.813H33.157a.907.907,0,0,0,0,1.813ZM45.024,35.984h2.768v2.768H46.9a15.728,15.728,0,0,0-1.879-2.713v-.055Zm1.945,9.349H43.986a10.863,10.863,0,0,0-12.872-9.766,8.618,8.618,0,0,0,.028-3.022A13.836,13.836,0,0,1,46.969,45.333ZM44.992,5.854H39.551V2.116a.3.3,0,0,1,.3-.3h5.139V5.854Zm1.813,0V1.813H70.27a.3.3,0,0,1,.3.3V5.854Z" transform="translate(-13.835)"/>
          <path id="Path_1039841" data-name="Path 1039841" d="M336.077,87.114H321.951a.907.907,0,0,0,0,1.813h14.127a.907.907,0,1,0,0-1.813Z" transform="translate(-283.905 -76.583)"/>
          <path id="Path_1039842" data-name="Path 1039842" d="M321.951,115.245h8.366a.907.907,0,0,0,0-1.813h-8.366a.907.907,0,0,0,0,1.813Z" transform="translate(-283.905 -99.719)"/>
          <path id="Path_1039843" data-name="Path 1039843" d="M336.077,154.226H321.951a.907.907,0,0,0,0,1.813h14.127a.907.907,0,1,0,0-1.813Z" transform="translate(-283.905 -135.582)"/>
          <path id="Path_1039844" data-name="Path 1039844" d="M321.951,182.357h8.366a.907.907,0,0,0,0-1.813h-8.366a.907.907,0,0,0,0,1.813Z" transform="translate(-283.905 -158.718)"/>
          <path id="Path_1039845" data-name="Path 1039845" d="M336.077,221.337H321.951a.907.907,0,0,0,0,1.813h14.127a.907.907,0,1,0,0-1.813Z" transform="translate(-283.905 -194.579)"/>
          <path id="Path_1039846" data-name="Path 1039846" d="M321.951,249.469h8.366a.907.907,0,1,0,0-1.813h-8.366a.907.907,0,1,0,0,1.813Z" transform="translate(-283.905 -217.717)"/>
          <path id="Path_1039847" data-name="Path 1039847" d="M263.223,82.593a1.271,1.271,0,0,0-1.269-1.269H258.1a1.271,1.271,0,0,0-1.269,1.269V86.45a1.271,1.271,0,0,0,1.269,1.269h3.856a1.271,1.271,0,0,0,1.269-1.269Zm-1.813,3.312h-2.768V83.137h2.768Z" transform="translate(-227.452 -71.493)"/>
          <path id="Path_1039848" data-name="Path 1039848" d="M263.223,149.705a1.271,1.271,0,0,0-1.269-1.269H258.1a1.271,1.271,0,0,0-1.269,1.269v3.856a1.271,1.271,0,0,0,1.269,1.269h3.856a1.271,1.271,0,0,0,1.269-1.269Zm-1.813,3.312h-2.768v-2.768h2.768Z" transform="translate(-227.452 -130.491)"/>
          <path id="Path_1039849" data-name="Path 1039849" d="M261.954,215.547H258.1a1.271,1.271,0,0,0-1.269,1.269v3.856a1.271,1.271,0,0,0,1.269,1.269h3.856a1.271,1.271,0,0,0,1.269-1.269v-3.856a1.271,1.271,0,0,0-1.269-1.269Zm-.544,4.582h-2.768V217.36h2.768Z" transform="translate(-227.452 -189.489)"/>
          <path id="Path_1039850" data-name="Path 1039850" d="M336.984,289.356a.907.907,0,0,0-.907-.907H321.951a.907.907,0,1,0,0,1.813h14.127A.907.907,0,0,0,336.984,289.356Z" transform="translate(-283.905 -253.578)"/>
          <path id="Path_1039851" data-name="Path 1039851" d="M321.951,314.768a.907.907,0,0,0,0,1.813h8.366a.907.907,0,0,0,0-1.813Z" transform="translate(-283.905 -276.716)"/>
          <path id="Path_1039852" data-name="Path 1039852" d="M63.084,245.668v-.655a2.424,2.424,0,0,0-.068-4.846H61.339a.611.611,0,0,1,0-1.223H64.3a.907.907,0,0,0,0-1.813H63.084v-.651a.907.907,0,0,0-1.813,0v.655a2.424,2.424,0,0,0,.068,4.846h1.678a.611.611,0,1,1,0,1.223H60.06a.907.907,0,1,0,0,1.813h1.211v.651a.907.907,0,0,0,1.813,0Z" transform="translate(-53.464 -207.094)"/>
          <path id="Path_1039853" data-name="Path 1039853" d="M70.831,60.419H83.64a1.332,1.332,0,0,0,1.331-1.331V52.924a.907.907,0,0,0-1.813,0v5.682H71.313V45.554l2.241-2.241h9.6v5.38a.907.907,0,1,0,1.813,0V42.831A1.332,1.332,0,0,0,83.64,41.5H73.354a1.323,1.323,0,0,0-.941.39L69.89,44.413a1.322,1.322,0,0,0-.39.941V59.089A1.332,1.332,0,0,0,70.831,60.419Z" transform="translate(-62.771 -36.483)"/>
          <path id="Path_1039854" data-name="Path 1039854" d="M108.961,74.185h-5.719a.907.907,0,1,0,0,1.813h5.719a.907.907,0,0,0,0-1.813Z" transform="translate(-91.636 -65.217)"/>
          <path id="Path_1039855" data-name="Path 1039855" d="M108.961,99.448h-5.719a.907.907,0,1,0,0,1.813h5.719a.907.907,0,1,0,0-1.813Z" transform="translate(-91.636 -87.426)"/>
          <path id="Path_1039856" data-name="Path 1039856" d="M109.867,125.845a.907.907,0,0,0-.907-.907h-5.719a.907.907,0,1,0,0,1.813h5.719A.907.907,0,0,0,109.867,125.845Z" transform="translate(-91.636 -109.834)"/>
          <path id="Path_1039857" data-name="Path 1039857" d="M103.242,150.315a.907.907,0,1,0,0,1.813h2.564a.907.907,0,0,0,0-1.813Z" transform="translate(-91.636 -132.143)"/>
        </g>
      </g>
    </g>
  </g>
</svg>
