<svg xmlns="http://www.w3.org/2000/svg" width="36.156" height="36.158" viewBox="0 0 36.156 36.158">
  <g id="Group_1184806" data-name="Group 1184806" transform="translate(-333 -777)">
    <g id="Page-1" transform="translate(333 776.999)">
      <g id="_083---Money-Bag" data-name="083---Money-Bag" transform="translate(0 0.001)">
        <path id="Shape" d="M21.437,31.122a.6.6,0,1,0,1.205,0c0-1.993-1.844-3.641-4.218-3.883V26.6a.6.6,0,1,0-1.205,0v.636C14.844,27.48,13,29.129,13,31.122s1.844,3.641,4.218,3.883v5.416c-1.707-.216-3.013-1.33-3.013-2.671a.6.6,0,0,0-1.205,0c0,1.993,1.844,3.641,4.218,3.883v.636a.6.6,0,1,0,1.205,0v-.636c2.374-.241,4.218-1.89,4.218-3.883S20.8,34.11,18.423,33.868V28.451C20.131,28.667,21.437,29.781,21.437,31.122Zm-7.231,0c0-1.341,1.306-2.455,3.013-2.671v5.342C15.511,33.577,14.205,32.463,14.205,31.122Zm7.231,6.629c0,1.341-1.306,2.455-3.013,2.671V35.08C20.131,35.3,21.437,36.41,21.437,37.751Z" transform="translate(-5.166 -10.333)"/>
        <path id="Shape-2" data-name="Shape" d="M2.169,30.136a.6.6,0,0,0-.8.293A14.7,14.7,0,0,0,0,36.66c0,7.6,4.257,11.45,12.655,11.45a19.486,19.486,0,0,0,5.036-.58.6.6,0,1,0-.31-1.165,18.58,18.58,0,0,1-4.726.54c-7.7,0-11.45-3.351-11.45-10.244a13.326,13.326,0,0,1,1.258-5.725A.6.6,0,0,0,2.169,30.136Z" transform="translate(0 -11.954)"/>
        <path id="Shape-3" data-name="Shape" d="M47.065,25H33.808A1.808,1.808,0,0,0,32,26.808V44.283a1.808,1.808,0,0,0,1.808,1.808H47.065a1.808,1.808,0,0,0,1.808-1.808V26.808A1.808,1.808,0,0,0,47.065,25Zm.6,19.283a.6.6,0,0,1-.6.6H33.808a.6.6,0,0,1-.6-.6V26.808a.6.6,0,0,1,.6-.6H47.065a.6.6,0,0,1,.6.6Z" transform="translate(-12.717 -9.935)"/>
        <path id="Shape-4" data-name="Shape" d="M38.205,34.821h8.437a1.205,1.205,0,0,0,1.205-1.205v-2.41A1.205,1.205,0,0,0,46.642,30H38.205A1.205,1.205,0,0,0,37,31.205v2.41A1.205,1.205,0,0,0,38.205,34.821Zm0-3.616h8.437v2.41H38.205Z" transform="translate(-14.703 -11.922)"/>
        <path id="Shape-5" data-name="Shape" d="M39.41,41H37.6a.6.6,0,0,0,0,1.205H39.41a.6.6,0,1,0,0-1.205Z" transform="translate(-14.703 -16.294)"/>
        <path id="Shape-6" data-name="Shape" d="M39.41,45H37.6a.6.6,0,0,0,0,1.205H39.41a.6.6,0,0,0,0-1.205Z" transform="translate(-14.703 -17.883)"/>
        <path id="Shape-7" data-name="Shape" d="M39.41,49H37.6a.6.6,0,0,0,0,1.205H39.41a.6.6,0,0,0,0-1.205Z" transform="translate(-14.703 -19.473)"/>
        <path id="Shape-8" data-name="Shape" d="M39.41,53H37.6a.6.6,0,1,0,0,1.205H39.41a.6.6,0,0,0,0-1.205Z" transform="translate(-14.703 -21.062)"/>
        <path id="Shape-9" data-name="Shape" d="M46.41,41H44.6a.6.6,0,0,0,0,1.205H46.41a.6.6,0,1,0,0-1.205Z" transform="translate(-17.485 -16.294)"/>
        <path id="Shape-10" data-name="Shape" d="M46.41,45H44.6a.6.6,0,0,0,0,1.205H46.41a.6.6,0,0,0,0-1.205Z" transform="translate(-17.485 -17.883)"/>
        <path id="Shape-11" data-name="Shape" d="M46.41,49H44.6a.6.6,0,0,0,0,1.205H46.41a.6.6,0,0,0,0-1.205Z" transform="translate(-17.485 -19.473)"/>
        <path id="Shape-12" data-name="Shape" d="M46.41,53H44.6a.6.6,0,1,0,0,1.205H46.41a.6.6,0,0,0,0-1.205Z" transform="translate(-17.485 -21.062)"/>
        <path id="Shape-13" data-name="Shape" d="M53.41,41H51.6a.6.6,0,1,0,0,1.205H53.41a.6.6,0,0,0,0-1.205Z" transform="translate(-20.267 -16.294)"/>
        <path id="Shape-14" data-name="Shape" d="M53.41,45H51.6a.6.6,0,0,0,0,1.205H53.41a.6.6,0,0,0,0-1.205Z" transform="translate(-20.267 -17.883)"/>
        <path id="Shape-15" data-name="Shape" d="M53.41,49H51.6a.6.6,0,0,0,0,1.205H53.41a.6.6,0,0,0,0-1.205Z" transform="translate(-20.267 -19.473)"/>
        <path id="Shape-16" data-name="Shape" d="M53.41,53H51.6a.6.6,0,1,0,0,1.205H53.41a.6.6,0,0,0,0-1.205Z" transform="translate(-20.267 -21.062)"/>
        <path id="Shape-17" data-name="Shape" d="M5.9.761C4.315,2.215,7.1,6.7,8.745,9.039H8.418a2.1,2.1,0,0,0-1.493.616,2.124,2.124,0,0,0-.616,1.493,2.1,2.1,0,0,0,1.057,1.817A28.382,28.382,0,0,0,5.38,15.307a.6.6,0,0,0,.964.723,29.122,29.122,0,0,1,2.41-2.772H21.072a2.109,2.109,0,1,0,0-4.218h-.328C22.387,6.7,25.174,2.216,23.589.761c-.729-.668-1.579-.181-2.328.245a4.648,4.648,0,0,1-2.3.8,2.335,2.335,0,0,1-1.718-.759,3.508,3.508,0,0,0-5,0,2.335,2.335,0,0,1-1.721.759,4.629,4.629,0,0,1-2.3-.8C7.478.579,6.629.094,5.9.761Zm15.811,9.747a.9.9,0,0,1-.641,1.544H8.418a.9.9,0,1,1,0-1.808H21.072a.91.91,0,0,1,.641.264Zm-11.19-7.5a3.508,3.508,0,0,0,2.5-1.049,2.322,2.322,0,0,1,3.435,0,3.51,3.51,0,0,0,2.5,1.049,5.774,5.774,0,0,0,2.9-.961,2.52,2.52,0,0,1,.915-.4c.618.566-1.016,3.983-3.514,7.39h-1.5V6.026a.6.6,0,1,0-1.205,0V9.039H12.937V6.026a.6.6,0,1,0-1.205,0V9.039h-1.5c-2.5-3.407-4.133-6.823-3.506-7.4a2.991,2.991,0,0,1,.9.412,5.762,5.762,0,0,0,2.894.961Z" transform="translate(-2.09 -0.001)"/>
      </g>
    </g>
  </g>
</svg>
