<svg xmlns="http://www.w3.org/2000/svg" xmlns:xlink="http://www.w3.org/1999/xlink" width="110.186" height="110.186" viewBox="0 0 110.186 110.186">
  <defs>
    <filter id="Path_982547" x="0" y="0" width="110.186" height="110.186" filterUnits="userSpaceOnUse">
      <feOffset dy="3" input="SourceAlpha"/>
      <feGaussianBlur stdDeviation="3" result="blur"/>
      <feFlood flood-opacity="0.161"/>
      <feComposite operator="in" in2="blur"/>
      <feComposite in="SourceGraphic"/>
    </filter>
  </defs>
  <g id="Group_1184813" data-name="Group 1184813" transform="translate(-325.239 -3105)">
    <g id="Group_1184539" data-name="Group 1184539">
      <g id="Group_1183771" data-name="Group 1183771" transform="translate(0.239 -5016.557)">
        <g id="Group_1173635" data-name="Group 1173635" transform="translate(334 8127.557)">
          <g id="Group_1173554" data-name="Group 1173554">
            <g id="Group_1172017" data-name="Group 1172017" transform="translate(0)">
              <g id="Group_1167337" data-name="Group 1167337" transform="translate(0)">
                <g id="Group_1166720" data-name="Group 1166720">
                  <g id="Group_1164305" data-name="Group 1164305">
                    <g id="Group_1163948" data-name="Group 1163948">
                      <g id="Group_1158168" data-name="Group 1158168">
                        <g id="Group_1152576" data-name="Group 1152576">
                          <g id="Group_1148633" data-name="Group 1148633">
                            <g id="Group_1148525" data-name="Group 1148525">
                              <g transform="matrix(1, 0, 0, 1, -9, -6)" filter="url(#Path_982547)">
                                <g id="Path_982547-2" data-name="Path 982547" transform="translate(9 6)" fill="#e8edf7">
                                  <path d="M 46.09305953979492 90.68612670898438 C 40.07238006591797 90.68612670898438 34.23257827758789 89.50730133056641 28.73588562011719 87.18239593505859 C 23.42596626281738 84.93648529052734 18.65684700012207 81.72095489501953 14.56100654602051 77.62511444091797 C 10.46517944335938 73.52928924560547 7.249646186828613 68.76016998291016 5.003739356994629 63.45023345947266 C 2.678832769393921 57.95354080200195 1.500006198883057 52.11373901367188 1.500006198883057 46.09305953979492 C 1.500006198883057 40.07238006591797 2.678832769393921 34.23257827758789 5.003739356994629 28.73588562011719 C 7.249646186828613 23.42595291137695 10.46517944335938 18.65684700012207 14.56100654602051 14.56100654602051 C 18.65684700012207 10.46517944335938 23.42595291137695 7.249646186828613 28.73588562011719 5.003739356994629 C 34.23257827758789 2.678832769393921 40.07238006591797 1.500006198883057 46.09305953979492 1.500006198883057 C 52.11373901367188 1.500006198883057 57.95354080200195 2.678832769393921 63.45023345947266 5.003739356994629 C 68.76016998291016 7.249646186828613 73.52928924560547 10.46517944335938 77.62511444091797 14.56100654602051 C 81.72095489501953 18.65684700012207 84.93648529052734 23.42596626281738 87.18239593505859 28.73588562011719 C 89.50730133056641 34.23257827758789 90.68612670898438 40.07238006591797 90.68612670898438 46.09305953979492 C 90.68612670898438 52.11373901367188 89.50730133056641 57.95354080200195 87.18239593505859 63.45023345947266 C 84.93648529052734 68.76016998291016 81.72095489501953 73.52928924560547 77.62511444091797 77.62511444091797 C 73.52928924560547 81.72095489501953 68.76016998291016 84.93648529052734 63.45023345947266 87.18239593505859 C 57.95354080200195 89.50730133056641 52.11373901367188 90.68612670898438 46.09305953979492 90.68612670898438 Z" stroke="none"/>
                                  <path d="M 46.09305953979492 3 C 40.27421569824219 3 34.63101577758789 4.138961791992188 29.32021713256836 6.385231018066406 C 24.1890869140625 8.555519104003906 19.58021545410156 11.66310119628906 15.62165832519531 15.62165832519531 C 11.66310119628906 19.58021545410156 8.555519104003906 24.1890869140625 6.385231018066406 29.32021713256836 C 4.138961791992188 34.63101577758789 3 40.27421569824219 3 46.09305953979492 C 3 51.91190338134766 4.138961791992188 57.55510330200195 6.385231018066406 62.86590194702148 C 8.555519104003906 67.99703216552734 11.66310119628906 72.60588836669922 15.62165832519531 76.56444549560547 C 19.58021545410156 80.52301788330078 24.1890869140625 83.63058471679688 29.32021713256836 85.80088806152344 C 34.63101577758789 88.04715728759766 40.27421569824219 89.18611907958984 46.09305953979492 89.18611907958984 C 51.91190338134766 89.18611907958984 57.55510330200195 88.04715728759766 62.86590194702148 85.80088806152344 C 67.99703216552734 83.63058471679688 72.60588836669922 80.52301788330078 76.56444549560547 76.56444549560547 C 80.52301788330078 72.60588836669922 83.63058471679688 67.99703216552734 85.80088806152344 62.86590194702148 C 88.04715728759766 57.55510330200195 89.18611907958984 51.91190338134766 89.18611907958984 46.09305953979492 C 89.18611907958984 40.27421569824219 88.04715728759766 34.63101577758789 85.80088806152344 29.32021713256836 C 83.63058471679688 24.1890869140625 80.52301788330078 19.58021545410156 76.56444549560547 15.62165832519531 C 72.60588836669922 11.66310119628906 67.99703216552734 8.555519104003906 62.86590194702148 6.385231018066406 C 57.55510330200195 4.138961791992188 51.91190338134766 3 46.09305953979492 3 M 46.09305953979492 0 C 71.54954528808594 0 92.18611907958984 20.63655853271484 92.18611907958984 46.09305953979492 C 92.18611907958984 71.54954528808594 71.54954528808594 92.18611907958984 46.09305953979492 92.18611907958984 C 20.63655853271484 92.18611907958984 0 71.54954528808594 0 46.09305953979492 C 0 20.63655853271484 20.63655853271484 0 46.09305953979492 0 Z" stroke="none" fill="#2e5bb6"/>
                                </g>
                              </g>
                            </g>
                          </g>
                        </g>
                      </g>
                    </g>
                  </g>
                </g>
              </g>
            </g>
          </g>
        </g>
      </g>
      <g id="presupuesto_4_" data-name="presupuesto (4)" transform="translate(337.672 3129)">
        <g id="Group_1184537" data-name="Group 1184537" transform="translate(17.376 0.809)">
          <g id="Group_1184535" data-name="Group 1184535" transform="translate(7.148)">
            <g id="Group_1184533" data-name="Group 1184533">
              <path id="Path_1040699" data-name="Path 1040699" d="M140.032,100.088v3.574a1.787,1.787,0,0,0,1.787,1.787h33.952a1.787,1.787,0,0,0,1.787-1.787V58.988a1.787,1.787,0,0,0-1.787-1.787H172.2Z" transform="translate(-134.671 -51.84)" fill="#d3e2eb"/>
              <path id="Path_1040700" data-name="Path 1040700" d="M90.332,53.961a1.787,1.787,0,0,0,1.787,1.787h33.952a1.787,1.787,0,0,0,1.787-1.787V9.288A1.787,1.787,0,0,0,126.071,7.5H92.119a1.787,1.787,0,0,0-1.787,1.787Z" transform="translate(-90.332 -7.501)" fill="#ecf0f9"/>
              <path id="Path_1040701" data-name="Path 1040701" d="M401.147,7.5h-2.481a1.787,1.787,0,0,1,1.787,1.787V53.96a1.787,1.787,0,0,1-1.787,1.787h2.481a1.787,1.787,0,0,0,1.787-1.787V9.287A1.787,1.787,0,0,0,401.147,7.5Z" transform="translate(-365.408 -7.5)" fill="#d8e4f0"/>
              <path id="Path_1040702" data-name="Path 1040702" d="M450.847,57.2h-2.481a1.787,1.787,0,0,1,1.787,1.787V103.66a1.787,1.787,0,0,1-1.787,1.787h2.481a1.787,1.787,0,0,0,1.787-1.787V58.987A1.787,1.787,0,0,0,450.847,57.2Z" transform="translate(-409.747 -51.839)" fill="#b0c4d8"/>
            </g>
            <g id="Group_1184534" data-name="Group 1184534" transform="translate(12.509 3.574)">
              <path id="Path_1040703" data-name="Path 1040703" d="M216.159,44.208h-9a.863.863,0,0,1-.863-.863V41.5a.863.863,0,0,1,.863-.863h9a.863.863,0,0,1,.863.863v1.848A.863.863,0,0,1,216.159,44.208Z" transform="translate(-206.3 -40.634)" fill="#4c9cd6"/>
              <path id="Path_1040704" data-name="Path 1040704" d="M297.2,375.541H290a.863.863,0,0,1-.863-.863V372.83a.863.863,0,0,1,.863-.863H297.2a.863.863,0,0,1,.863.863v1.848A.863.863,0,0,1,297.2,375.541Z" transform="translate(-280.198 -336.228)" fill="#4c9cd6"/>
            </g>
          </g>
          <g id="Group_1184536" data-name="Group 1184536" transform="translate(0 28.591)">
            <circle id="Ellipse_12489" data-name="Ellipse 12489" cx="10.722" cy="10.722" r="10.722" fill="#ffe179"/>
            <circle id="Ellipse_12490" data-name="Ellipse 12490" cx="7.148" cy="7.148" r="7.148" transform="translate(3.574 3.574)" fill="#ffcb5b"/>
            <path id="Path_1040705" data-name="Path 1040705" d="M113.206,272.567a10.831,10.831,0,0,0-1.24.072,10.722,10.722,0,0,1,0,21.3,10.722,10.722,0,1,0,1.24-21.372Z" transform="translate(-102.485 -272.567)" fill="#fc6"/>
            <path id="Path_1040706" data-name="Path 1040706" d="M113.206,305.7a7.185,7.185,0,0,0-1.24.109,7.147,7.147,0,0,1,0,14.077,7.147,7.147,0,1,0,1.24-14.186Z" transform="translate(-102.485 -302.126)" fill="#ffb85b"/>
          </g>
        </g>
        <g id="Group_1184538" data-name="Group 1184538" transform="translate(16.567 0)">
          <path id="Path_1040707" data-name="Path 1040707" d="M102,325.561a.979.979,0,0,1,.978.978.809.809,0,1,0,1.618,0,2.6,2.6,0,0,0-1.787-2.466v-.214a.809.809,0,0,0-1.618,0v.214a2.6,2.6,0,0,0,.809,5.062.978.978,0,1,1-.978.978.809.809,0,0,0-1.618,0,2.6,2.6,0,0,0,1.787,2.466v.214a.809.809,0,1,0,1.618,0v-.214a2.6,2.6,0,0,0-.809-5.062.978.978,0,1,1,0-1.956Z" transform="translate(-90.465 -288.205)"/>
          <path id="Path_1040708" data-name="Path 1040708" d="M64.457,302.025a.809.809,0,0,0-1.382.841,6.336,6.336,0,1,1-2.068-2.092.809.809,0,0,0,.857-1.372,7.954,7.954,0,1,0,2.593,2.623Z" transform="translate(-46.125 -266.034)"/>
          <path id="Path_1040709" data-name="Path 1040709" d="M65.623,5.361H62.859V2.6a2.6,2.6,0,0,0-2.6-2.6H26.311a2.6,2.6,0,0,0-2.6,2.6v9.1a.809.809,0,1,0,1.618,0V2.6a.979.979,0,0,1,.978-.978H60.263a.979.979,0,0,1,.978.978V47.269a.979.979,0,0,1-.978.978H36.27a11.514,11.514,0,0,0,2.415-12.69.815.815,0,0,0,.134.012h7.148a.809.809,0,1,0,0-1.618H38.819a.808.808,0,0,0-.719.439,11.53,11.53,0,0,0-12.768-5.464V14.936a.809.809,0,0,0-1.618,0V29.457a11.53,11.53,0,0,0,4.383,22.2c.329,0,.655-.015.978-.042v1.02a2.6,2.6,0,0,0,2.6,2.6H65.623a2.6,2.6,0,0,0,2.6-2.6V7.957a2.6,2.6,0,0,0-2.6-2.6ZM18.185,40.122A9.913,9.913,0,1,1,28.1,50.035,9.924,9.924,0,0,1,18.185,40.122ZM66.6,52.63a.979.979,0,0,1-.978.978H31.672a.979.979,0,0,1-.978-.978V51.358a11.467,11.467,0,0,0,3.563-1.492H60.263a2.6,2.6,0,0,0,2.6-2.6V6.979h2.765a.979.979,0,0,1,.978.978Z" transform="translate(-16.567 0)"/>
          <path id="Path_1040710" data-name="Path 1040710" d="M209.468,33.133h-9A1.674,1.674,0,0,0,198.8,34.8v1.848a1.674,1.674,0,0,0,1.672,1.672h9a1.674,1.674,0,0,0,1.672-1.672V34.8A1.674,1.674,0,0,0,209.468,33.133Zm.054,3.52a.054.054,0,0,1-.054.054h-9a.054.054,0,0,1-.054-.054V34.8a.054.054,0,0,1,.054-.054h9a.054.054,0,0,1,.054.054Z" transform="translate(-179.144 -29.559)"/>
          <path id="Path_1040711" data-name="Path 1040711" d="M290.514,364.467H283.3a1.674,1.674,0,0,0-1.672,1.672v1.848a1.674,1.674,0,0,0,1.672,1.672h7.209a1.674,1.674,0,0,0,1.672-1.672v-1.848A1.674,1.674,0,0,0,290.514,364.467Zm.054,3.52a.054.054,0,0,1-.054.054H283.3a.054.054,0,0,1-.054-.054v-1.848a.054.054,0,0,1,.054-.054h7.209a.054.054,0,0,1,.054.054Z" transform="translate(-253.042 -325.154)"/>
          <path id="Path_1040712" data-name="Path 1040712" d="M232.258,115.967H216.176a.809.809,0,1,0,0,1.618h16.083a.809.809,0,0,0,0-1.618Z" transform="translate(-193.924 -103.458)"/>
          <path id="Path_1040713" data-name="Path 1040713" d="M150.772,121.159h1.848a1.674,1.674,0,0,0,1.672-1.672v-1.848a1.674,1.674,0,0,0-1.672-1.672h-1.848a1.674,1.674,0,0,0-1.672,1.672v1.848A1.674,1.674,0,0,0,150.772,121.159Zm-.054-3.52a.054.054,0,0,1,.054-.054h1.848a.054.054,0,0,1,.054.054v1.848a.054.054,0,0,1-.054.054h-1.848a.054.054,0,0,1-.054-.054Z" transform="translate(-134.804 -103.458)"/>
          <path id="Path_1040714" data-name="Path 1040714" d="M216.175,150.718h7.148a.809.809,0,1,0,0-1.618h-7.148a.809.809,0,1,0,0,1.618Z" transform="translate(-193.923 -133.018)"/>
          <path id="Path_1040715" data-name="Path 1040715" d="M232.258,198.8H216.176a.809.809,0,1,0,0,1.618h16.083a.809.809,0,0,0,0-1.618Z" transform="translate(-193.924 -177.357)"/>
          <path id="Path_1040716" data-name="Path 1040716" d="M149.1,202.32a1.674,1.674,0,0,0,1.672,1.672h1.848a1.674,1.674,0,0,0,1.672-1.672v-1.848a1.674,1.674,0,0,0-1.672-1.672h-1.848a1.674,1.674,0,0,0-1.672,1.672Zm1.618-1.848a.054.054,0,0,1,.054-.054h1.848a.054.054,0,0,1,.054.054v1.848a.054.054,0,0,1-.054.054h-1.848a.054.054,0,0,1-.054-.054Z" transform="translate(-134.804 -177.357)"/>
          <path id="Path_1040717" data-name="Path 1040717" d="M216.175,233.551h7.148a.809.809,0,1,0,0-1.618h-7.148a.809.809,0,1,0,0,1.618Z" transform="translate(-193.923 -206.916)"/>
          <path id="Path_1040718" data-name="Path 1040718" d="M232.258,281.633H216.176a.809.809,0,1,0,0,1.618h16.083a.809.809,0,1,0,0-1.618Z" transform="translate(-193.924 -251.255)"/>
        </g>
      </g>
    </g>
  </g>
</svg>
