<svg xmlns="http://www.w3.org/2000/svg" xmlns:xlink="http://www.w3.org/1999/xlink" width="113" height="113" viewBox="0 0 113 113">
  <defs>
    <filter id="Path_982547" x="0" y="0" width="113" height="113" filterUnits="userSpaceOnUse">
      <feOffset dy="3" input="SourceAlpha"/>
      <feGaussianBlur stdDeviation="3" result="blur"/>
      <feFlood flood-opacity="0.161"/>
      <feComposite operator="in" in2="blur"/>
      <feComposite in="SourceGraphic"/>
    </filter>
  </defs>
  <g id="Group_1184828" data-name="Group 1184828" transform="translate(-146.238 -5170)">
    <g id="Group_1184629" data-name="Group 1184629" transform="translate(0 61)">
      <g id="Group_1183787" data-name="Group 1183787" transform="translate(-46.762 4024.568)">
        <g id="Group_1173793" data-name="Group 1173793" transform="translate(202 1090.432)">
          <g id="Group_1167519" data-name="Group 1167519">
            <g id="Group_1166845" data-name="Group 1166845">
              <g id="Group_1166720" data-name="Group 1166720">
                <g id="Group_1164305" data-name="Group 1164305">
                  <g id="Group_1163948" data-name="Group 1163948">
                    <g id="Group_1158168" data-name="Group 1158168">
                      <g id="Group_1152576" data-name="Group 1152576">
                        <g id="Group_1148633" data-name="Group 1148633">
                          <g id="Group_1148525" data-name="Group 1148525">
                            <g transform="matrix(1, 0, 0, 1, -9, -6)" filter="url(#Path_982547)">
                              <g id="Path_982547-2" data-name="Path 982547" transform="translate(9 6)" fill="#e4f2f4">
                                <path d="M 47.5 93.5 C 41.28937149047852 93.5 35.26533508300781 92.28397369384766 29.59518623352051 89.88570404052734 C 24.11771965026855 87.56893157958984 19.19813346862793 84.25196075439453 14.97309303283691 80.02691650390625 C 10.74804019927979 75.80186462402344 7.431066513061523 70.88229370117188 5.114293098449707 65.40481567382812 C 2.716026782989502 59.73468017578125 1.5 53.71062850952148 1.5 47.5 C 1.5 41.28937149047852 2.716026782989502 35.26533508300781 5.114293098449707 29.59518623352051 C 7.431066513061523 24.11771965026855 10.74804019927979 19.19813346862793 14.97309303283691 14.97309303283691 C 19.19813346862793 10.74804019927979 24.11771965026855 7.431066513061523 29.59518623352051 5.114293098449707 C 35.26533508300781 2.716026782989502 41.28937149047852 1.5 47.5 1.5 C 53.71062850952148 1.5 59.73468017578125 2.716026782989502 65.40481567382812 5.114293098449707 C 70.88229370117188 7.431066513061523 75.80186462402344 10.74804019927979 80.02691650390625 14.97309303283691 C 84.25196075439453 19.19813346862793 87.56893157958984 24.11771965026855 89.88570404052734 29.59518623352051 C 92.28397369384766 35.26533508300781 93.5 41.28937149047852 93.5 47.5 C 93.5 53.71062850952148 92.28397369384766 59.73468017578125 89.88570404052734 65.40481567382812 C 87.56893157958984 70.88229370117188 84.25196075439453 75.80186462402344 80.02691650390625 80.02691650390625 C 75.80186462402344 84.25196075439453 70.88229370117188 87.56893157958984 65.40481567382812 89.88570404052734 C 59.73468017578125 92.28397369384766 53.71062850952148 93.5 47.5 93.5 Z" stroke="none"/>
                                <path d="M 47.5 3 C 41.49121475219727 3 35.66376876831055 4.176155090332031 30.17950439453125 6.495796203613281 C 24.88084411621094 8.736953735351562 20.12152099609375 11.94598388671875 16.03375244140625 16.03375244140625 C 11.94598388671875 20.12152099609375 8.736953735351562 24.88084411621094 6.495796203613281 30.17950439453125 C 4.176155090332031 35.66376876831055 3 41.49121475219727 3 47.5 C 3 53.50878524780273 4.176155090332031 59.33623123168945 6.495796203613281 64.82049560546875 C 8.736953735351562 70.11915588378906 11.94598388671875 74.87847900390625 16.03375244140625 78.96624755859375 C 20.12152099609375 83.05401611328125 24.88084411621094 86.26304626464844 30.17950439453125 88.50419616699219 C 35.66376876831055 90.82384490966797 41.49121475219727 92 47.5 92 C 53.50878524780273 92 59.33623123168945 90.82384490966797 64.82049560546875 88.50419616699219 C 70.11915588378906 86.26304626464844 74.87847900390625 83.05401611328125 78.96624755859375 78.96624755859375 C 83.05401611328125 74.87847900390625 86.26304626464844 70.11915588378906 88.50419616699219 64.82049560546875 C 90.82384490966797 59.33623123168945 92 53.50878524780273 92 47.5 C 92 41.49121475219727 90.82384490966797 35.66376876831055 88.50419616699219 30.17950439453125 C 86.26304626464844 24.88084411621094 83.05401611328125 20.12152099609375 78.96624755859375 16.03375244140625 C 74.87847900390625 11.94598388671875 70.11915588378906 8.736953735351562 64.82049560546875 6.495796203613281 C 59.33623123168945 4.176155090332031 53.50878524780273 3 47.5 3 M 47.5 0 C 73.7335205078125 0 95 21.2664794921875 95 47.5 C 95 73.7335205078125 73.7335205078125 95 47.5 95 C 21.2664794921875 95 0 73.7335205078125 0 47.5 C 0 21.2664794921875 21.2664794921875 0 47.5 0 Z" stroke="none" fill="#01899b"/>
                              </g>
                            </g>
                          </g>
                        </g>
                      </g>
                    </g>
                  </g>
                </g>
              </g>
            </g>
          </g>
        </g>
      </g>
      <g id="Fill_Outline" data-name="Fill Outline" transform="translate(173.238 5133)">
        <g id="Color" transform="translate(2.923 2.923)">
          <circle id="Ellipse_12497" data-name="Ellipse 12497" cx="14.5" cy="14.5" r="14.5" transform="translate(12.077 12.077)" fill="#ffea00"/>
          <circle id="Ellipse_12498" data-name="Ellipse 12498" cx="11" cy="11" r="11" transform="translate(16.077 16.077)" fill="#ffd000"/>
          <path id="Path_1040927" data-name="Path 1040927" d="M43.937,37.608A14.772,14.772,0,1,1,24.069,17.74,14.772,14.772,0,0,0,43.937,37.608Z" transform="translate(-3.998 -4.132)" fill="#ffd000"/>
          <path id="Path_1040928" data-name="Path 1040928" d="M31.079,20A11.079,11.079,0,1,0,42.158,31.079,11.079,11.079,0,0,0,31.079,20Zm7.155,19.369c-.231.009-.462.018-.692.018A14.772,14.772,0,0,1,22.77,24.616c0-.231.009-.462.018-.692A11.068,11.068,0,0,1,38.234,39.369Z" transform="translate(-4.305 -4.305)" fill="#ffb700"/>
          <path id="Path_1040929" data-name="Path 1040929" d="M3,41H14.079V59.465H3Z" transform="translate(-3 -5.917)" fill="#e9f1f2"/>
          <path id="Path_1040930" data-name="Path 1040930" d="M6.693,52.079v1.846a3.693,3.693,0,0,0,3.693,3.693h3.693v1.846H3V41H14.079V52.079Z" transform="translate(-3 -5.917)" fill="#d0d8da"/>
          <path id="Path_1040931" data-name="Path 1040931" d="M15,53h7.386v7.386H15Z" transform="translate(-3.921 -6.838)" fill="#ade8f4"/>
          <path id="Path_1040932" data-name="Path 1040932" d="M22.386,60.693H15V57h2.77Z" transform="translate(-3.921 -7.145)" fill="#48cae4"/>
          <path id="Path_1040933" data-name="Path 1040933" d="M22.386,56.693H15V53h2.77Z" transform="translate(-3.921 -6.838)" fill="#48cae4"/>
          <g id="Group_1184628" data-name="Group 1184628" transform="translate(0 35.083)">
            <path id="Path_1040934" data-name="Path 1040934" d="M7,57h3.693v3.693H7Z" transform="translate(-3.307 -42.228)" fill="#ade8f4"/>
            <path id="Path_1040935" data-name="Path 1040935" d="M3,45H14.079v3.693H3Z" transform="translate(-3 -41.307)" fill="#ade8f4"/>
            <path id="Path_1040936" data-name="Path 1040936" d="M3,41H14.079v3.693H3Z" transform="translate(-3 -41)" fill="#ade8f4"/>
            <path id="Path_1040937" data-name="Path 1040937" d="M3,49H14.079v3.693H3Z" transform="translate(-3 -41.614)" fill="#ade8f4"/>
          </g>
          <path id="Path_1040938" data-name="Path 1040938" d="M3,37H6.693v3.693H3Z" transform="translate(-3 -5.61)" fill="#e9f1f2"/>
          <path id="Path_1040939" data-name="Path 1040939" d="M14.079,44.693H3V41H8.539Z" transform="translate(-3 -5.917)" fill="#48cae4"/>
          <path id="Path_1040940" data-name="Path 1040940" d="M14.079,48.693H3V45H8.539Z" transform="translate(-3 -6.224)" fill="#48cae4"/>
          <path id="Path_1040941" data-name="Path 1040941" d="M14.079,52.693H3V49H8.539Z" transform="translate(-3 -6.531)" fill="#48cae4"/>
          <path id="Path_1040942" data-name="Path 1040942" d="M6.693,39.77v.923H3V37h.923v.923A1.852,1.852,0,0,0,5.77,39.77Z" transform="translate(-3 -5.61)" fill="#d0d8da"/>
          <path id="Path_1040943" data-name="Path 1040943" d="M3,41H6.693v3.693H3Z" transform="translate(-3 -5.917)" fill="#00b4d8"/>
          <path id="Path_1040944" data-name="Path 1040944" d="M3,45H6.693v3.693H3Z" transform="translate(-3 -6.224)" fill="#00b4d8"/>
          <path id="Path_1040945" data-name="Path 1040945" d="M3,49H6.693v3.693H3Z" transform="translate(-3 -6.531)" fill="#00b4d8"/>
          <path id="Path_1040946" data-name="Path 1040946" d="M10.693,58.846v1.846H7V57h.5a3.674,3.674,0,0,0,3.194,1.846Z" transform="translate(-3.307 -7.145)" fill="#48cae4"/>
          <ellipse id="Ellipse_12499" data-name="Ellipse 12499" cx="7" cy="7.5" rx="7" ry="7.5" transform="translate(39.077 0.077)" fill="#ff7373"/>
          <path id="Path_1040947" data-name="Path 1040947" d="M59.384,12.86A7.386,7.386,0,1,1,48.158,4.44a7.386,7.386,0,0,0,11.227,8.42Z" transform="translate(-6.224 -3.111)" fill="#ef5350"/>
          <ellipse id="Ellipse_12500" data-name="Ellipse 12500" cx="3" cy="2.5" rx="3" ry="2.5" transform="translate(43.077 4.077)" fill="#ffea00"/>
          <path id="Path_1040948" data-name="Path 1040948" d="M57.232,16.693v.222a7.369,7.369,0,0,1-9.232,0v-.222A3.693,3.693,0,0,1,51.693,13h1.846A3.693,3.693,0,0,1,57.232,16.693Z" transform="translate(-6.454 -3.768)" fill="#ffea00"/>
          <path id="Path_1040949" data-name="Path 1040949" d="M57.232,16.705v.222a7.369,7.369,0,0,1-9.232,0v-.222a3.673,3.673,0,0,1,2.677-3.545,7.4,7.4,0,0,0,5.992,1.588,3.646,3.646,0,0,1,.563,1.957Z" transform="translate(-6.454 -3.78)" fill="#ffd000"/>
          <path id="Path_1040950" data-name="Path 1040950" d="M55.419,10.583A2.77,2.77,0,1,1,51.966,7.13a2.862,2.862,0,0,0-.12.8,2.77,2.77,0,0,0,2.77,2.77,2.862,2.862,0,0,0,.8-.12Z" transform="translate(-6.608 -3.317)" fill="#ffd000"/>
          <path id="Path_1040951" data-name="Path 1040951" d="M57.232,16.745v.222a7.369,7.369,0,0,1-9.232,0v-.222a3.65,3.65,0,0,1,1.643-3.065,4.63,4.63,0,0,0,3.9,2.142h3.573a3.376,3.376,0,0,1,.12.923Z" transform="translate(-6.454 -3.82)" fill="#ffb700"/>
          <path id="Path_1040952" data-name="Path 1040952" d="M9.109,17.539a1.754,1.754,0,0,1-1.662-1.2L6,12H9.693l1.078,3.231a1.754,1.754,0,0,1-1.662,2.308Z" transform="translate(-3.23 -3.691)" fill="#93999a"/>
          <path id="Path_1040953" data-name="Path 1040953" d="M9.111,17.539a1.746,1.746,0,0,1-1.662-1.2L6,12H9.693l.443,1.339L8.77,12.923H7.846l.526,1.569a1.746,1.746,0,0,0,1.662,1.2,1.709,1.709,0,0,0,.812-.2,1.765,1.765,0,0,1-1.736,2.05Z" transform="translate(-3.23 -3.691)" fill="#656b76"/>
          <path id="Path_1040954" data-name="Path 1040954" d="M5.77,6h2.77v5.539H5.77A2.77,2.77,0,1,1,5.77,6Z" transform="translate(-3 -3.23)" fill="#ef5350"/>
          <path id="Path_1040955" data-name="Path 1040955" d="M18.232,14.079,9,11.309V5.77L18.232,3Z" transform="translate(-3.461 -3)" fill="#e9f1f2"/>
          <path id="Path_1040956" data-name="Path 1040956" d="M18.232,11.561v2.677L9,11.469V5.929l2.844-.849A7.355,7.355,0,0,0,17.032,11.2Z" transform="translate(-3.461 -3.16)" fill="#d0d8da"/>
          <path id="Path_1040957" data-name="Path 1040957" d="M7.616,6V9.693H6.693a2.77,2.77,0,0,1-2.77-2.77A.9.9,0,0,1,3.942,6.7a.744.744,0,0,0-.129.111A2.77,2.77,0,0,0,5.77,11.539H8.54V6Z" transform="translate(-3 -3.23)" fill="#e53935"/>
          <path id="Path_1040958" data-name="Path 1040958" d="M47,47H59.925V59.925H47Z" transform="translate(-6.378 -6.378)" fill="#ffd000"/>
          <path id="Path_1040959" data-name="Path 1040959" d="M52,47h3.693v3.693H52Z" transform="translate(-6.762 -6.378)" fill="#ffea00"/>
          <path id="Path_1040960" data-name="Path 1040960" d="M59.925,57.156v2.77H47V47h2.77v2.77a7.386,7.386,0,0,0,7.386,7.386Z" transform="translate(-6.378 -6.378)" fill="#ffb700"/>
        </g>
        <g id="Outline_copy" data-name="Outline copy" transform="translate(2 2)">
          <path id="Path_1040961" data-name="Path 1040961" d="M43.083,21.08a.923.923,0,1,0-1.458,1.133,13.708,13.708,0,0,1,2.918,8.482A13.849,13.849,0,1,1,30.695,16.846a13.708,13.708,0,0,1,8.482,2.918.923.923,0,1,0,1.133-1.458,15.73,15.73,0,1,0,2.773,2.774Z" transform="translate(-2.998 -2.998)" fill="#323232"/>
          <path id="Path_1040962" data-name="Path 1040962" d="M31.693,35.925a1.846,1.846,0,0,1-1.846-1.846.923.923,0,0,0-1.846,0,3.693,3.693,0,0,0,2.77,3.562v1.054a.923.923,0,0,0,1.846,0V37.641a3.686,3.686,0,0,0-.923-7.255,1.846,1.846,0,1,1,1.846-1.846.923.923,0,1,0,1.846,0,3.693,3.693,0,0,0-2.77-3.562V23.923a.923.923,0,0,0-1.846,0v1.054a3.686,3.686,0,0,0,.923,7.255,1.846,1.846,0,1,1,0,3.693Z" transform="translate(-3.996 -3.612)" fill="#323232"/>
          <path id="Path_1040963" data-name="Path 1040963" d="M23.838,39.486a.923.923,0,0,0,.217,1.287,12.026,12.026,0,1,0-2.828-2.828.923.923,0,1,0,1.5-1.071,10.18,10.18,0,1,1,2.395,2.395.923.923,0,0,0-1.288.217Z" transform="translate(-3.305 -3.301)" fill="#323232"/>
          <path id="Path_1040964" data-name="Path 1040964" d="M21.388,50.618H14.925V40.463A.923.923,0,0,0,14,39.539H7.539V34.923a.923.923,0,0,0-1.846,0v.923H2.923A.923.923,0,0,0,2,36.77V58.927a.923.923,0,0,0,1.846,0V52.465h9.232V58H11.232v-2.77a.923.923,0,0,0-.923-.923H6.616a.923.923,0,0,0-.923.923v3.693a.923.923,0,0,0,.923.923H21.388a.923.923,0,0,0,.923-.923V51.541A.923.923,0,0,0,21.388,50.618ZM3.846,37.693H5.693v1.846H3.846Zm0,11.079h6.463a.923.923,0,0,0,0-1.846H3.846V41.386h9.232v1.846H6.616a.923.923,0,0,0,0,1.846h6.463v5.539H3.846Zm3.693,7.386H9.386V58H7.539ZM14.925,58V52.465h5.539v1.846H18.618a.923.923,0,1,0,0,1.846h1.846V58Z" transform="translate(-2 -4.456)" fill="#323232"/>
          <path id="Path_1040965" data-name="Path 1040965" d="M52.308,18.618A8.3,8.3,0,0,0,59.461,6.094a.924.924,0,0,0-1.591.939,6.413,6.413,0,0,1-.363,7.1,4.627,4.627,0,0,0-2.328-2.451,3.693,3.693,0,1,0-5.743,0,4.627,4.627,0,0,0-2.328,2.451,6.452,6.452,0,0,1,8.476-9.384.924.924,0,0,0,.939-1.591,8.309,8.309,0,1,0-4.215,15.462Zm0-11.079a1.846,1.846,0,1,1-1.846,1.846A1.846,1.846,0,0,1,52.308,7.539Zm-.923,5.539h1.846a2.764,2.764,0,0,1,2.747,2.544,6.433,6.433,0,0,1-7.34,0,2.764,2.764,0,0,1,2.747-2.544Z" transform="translate(-5.223 -2)" fill="#323232"/>
          <path id="Path_1040966" data-name="Path 1040966" d="M5.006,12.086l1.26,3.78a2.677,2.677,0,1,0,5.078-1.692l-.413-1.238,6.5,1.951A.923.923,0,0,0,18.62,14v-2.77a.923.923,0,1,0-1.846,0v1.529L9.388,10.545V6.38l7.386-2.216V7.539a.923.923,0,1,0,1.846,0V2.923a.923.923,0,0,0-1.188-.884L8.329,4.77H5.695a3.693,3.693,0,0,0-.689,7.317ZM9.59,14.758a.821.821,0,0,1-.114.746.86.86,0,0,1-1.459-.222L6.976,12.156H8.329l.437.131Zm-3.9-8.142H7.541v3.693H5.695a1.846,1.846,0,0,1,0-3.693Z" transform="translate(-2.002 -2)" fill="#323232"/>
          <path id="Path_1040967" data-name="Path 1040967" d="M59.849,46H46.923a.923.923,0,0,0-.923.923V59.849a.923.923,0,0,0,.923.923H59.849a.923.923,0,0,0,.923-.923V53.386a.923.923,0,1,0-1.846,0v5.539H47.846V47.846h2.77v2.77a.923.923,0,0,0,.923.923h3.693a.923.923,0,0,0,.923-.923v-2.77h2.77v1.846a.923.923,0,1,0,1.846,0v-2.77A.923.923,0,0,0,59.849,46Zm-5.539,3.693H52.463V47.846h1.846Z" transform="translate(-5.378 -5.378)" fill="#323232"/>
          <path id="Path_1040968" data-name="Path 1040968" d="M56.2,42.172a.923.923,0,0,0,1.22-.462,25.839,25.839,0,0,0,.489-19.885.923.923,0,1,0-1.721.668,24,24,0,0,1-.461,18.458.923.923,0,0,0,.474,1.22Z" transform="translate(-6.119 -3.477)" fill="#323232"/>
          <path id="Path_1040969" data-name="Path 1040969" d="M41.318,55.737A23.868,23.868,0,0,1,27.093,57.4a.923.923,0,1,0-.34,1.815,26.06,26.06,0,0,0,4.786.452,25.666,25.666,0,0,0,10.532-2.243.923.923,0,0,0-.753-1.686Z" transform="translate(-3.842 -6.119)" fill="#323232"/>
          <path id="Path_1040970" data-name="Path 1040970" d="M6.016,21.1A25.7,25.7,0,0,0,4,31.12a.923.923,0,1,0,1.846,0,23.86,23.86,0,0,1,1.871-9.307.923.923,0,1,0-1.7-.716Z" transform="translate(-2.154 -3.422)" fill="#323232"/>
          <path id="Path_1040971" data-name="Path 1040971" d="M23.229,7.218a24.117,24.117,0,0,1,16.68.254.923.923,0,0,0,.669-1.717,25.966,25.966,0,0,0-17.964-.277.923.923,0,1,0,.615,1.74Z" transform="translate(-3.533 -2.154)" fill="#323232"/>
        </g>
      </g>
    </g>
  </g>
</svg>
