<svg xmlns="http://www.w3.org/2000/svg" xmlns:xlink="http://www.w3.org/1999/xlink" width="110" height="110" viewBox="0 0 110 110">
  <defs>
    <filter id="Path_982547" x="0" y="0" width="110" height="110" filterUnits="userSpaceOnUse">
      <feOffset dy="3" input="SourceAlpha"/>
      <feGaussianBlur stdDeviation="3" result="blur"/>
      <feFlood flood-opacity="0.161"/>
      <feComposite operator="in" in2="blur"/>
      <feComposite in="SourceGraphic"/>
    </filter>
  </defs>
  <g id="Group_1184784" data-name="Group 1184784" transform="translate(-798.239 -2443.29)">
    <g id="Group_1184083" data-name="Group 1184083" transform="translate(-33 18.29)">
      <g id="Group_1183743" data-name="Group 1183743" transform="translate(459.195 -389)">
        <g id="Group_1181545" data-name="Group 1181545" transform="translate(-5.417 -130)">
          <g id="Group_1177562" data-name="Group 1177562" transform="translate(0 -12113)">
            <g id="Group_1173147" data-name="Group 1173147" transform="translate(386.461 15063)">
              <g id="Group_1163801" data-name="Group 1163801" transform="translate(0 0)">
                <g id="Group_1163014" data-name="Group 1163014">
                  <g id="Group_1157015" data-name="Group 1157015" transform="translate(0 0)">
                    <g id="Group_1155792" data-name="Group 1155792" transform="translate(0 0)">
                      <g id="Group_1154703" data-name="Group 1154703">
                        <g id="Group_1150789" data-name="Group 1150789">
                          <g id="Group_1154212" data-name="Group 1154212">
                            <g id="Group_1152583" data-name="Group 1152583">
                              <g id="Group_1146973" data-name="Group 1146973" transform="translate(0 0)">
                                <g id="Group_1146954" data-name="Group 1146954">
                                  <g transform="matrix(1, 0, 0, 1, -9, -6)" filter="url(#Path_982547)">
                                    <g id="Path_982547-2" data-name="Path 982547" transform="translate(9 6)" fill="#e4f2f4">
                                      <path d="M 46.00000381469727 90.49988555908203 C 39.99188232421875 90.49988555908203 34.16427230834961 89.32352447509766 28.67905807495117 87.00347137451172 C 23.38020324707031 84.76226043701172 18.62103080749512 81.55342864990234 14.53375053405762 77.46615600585938 C 10.44645690917969 73.37887573242188 7.237643718719482 68.61971282958984 4.996417045593262 63.32085800170898 C 2.676363706588745 57.83565902709961 1.500003814697266 52.00806045532227 1.500003814697266 45.99993896484375 C 1.500003814697266 39.99181747436523 2.676363706588745 34.16421890258789 4.996417045593262 28.67901802062988 C 7.237643718719482 23.38017845153809 10.44645690917969 18.62101936340332 14.53375053405762 14.53373908996582 C 18.62103080749512 10.44645881652832 23.38020324707031 7.237632274627686 28.67905807495117 4.996418952941895 C 34.16427230834961 2.676365613937378 39.99188232421875 1.500005602836609 46.00000381469727 1.500005602836609 C 52.00812530517578 1.500005602836609 57.83573532104492 2.676365613937378 63.32094955444336 4.996418952941895 C 68.61980438232422 7.237632274627686 73.37896728515625 10.44645881652832 77.46625518798828 14.53373908996582 C 81.55353546142578 18.62101936340332 84.76236724853516 23.38017845153809 87.00359344482422 28.67901802062988 C 89.32364654541016 34.16421890258789 90.5 39.99181747436523 90.5 45.99993896484375 C 90.5 52.00806045532227 89.32364654541016 57.83565902709961 87.00359344482422 63.32085800170898 C 84.76236724853516 68.61971282958984 81.55353546142578 73.37887573242188 77.46625518798828 77.46615600585938 C 73.37896728515625 81.55342864990234 68.61980438232422 84.76226043701172 63.32094955444336 87.00347137451172 C 57.83573532104492 89.32352447509766 52.00812530517578 90.49988555908203 46.00000381469727 90.49988555908203 Z" stroke="none"/>
                                      <path d="M 46.00000381469727 2.999992370605469 C 40.19371795654297 2.999992370605469 34.56270217895508 4.136497497558594 29.26338958740234 6.377906799316406 C 24.14333343505859 8.543510437011719 19.54441833496094 11.64437866210938 15.59440612792969 15.59439849853516 C 11.64440155029297 19.54439544677734 8.54351806640625 24.14329528808594 6.377914428710938 29.26335144042969 C 4.136505126953125 34.56266784667969 3.000007629394531 40.19366836547852 3.000007629394531 45.99993896484375 C 3.000007629394531 51.80620956420898 4.136505126953125 57.43722534179688 6.377914428710938 62.73654174804688 C 8.54351806640625 67.85658264160156 11.64440155029297 72.45548248291016 15.59440612792969 76.40549468994141 C 19.54441833496094 80.35549926757812 24.14333343505859 83.45636749267578 29.26337432861328 85.62196350097656 C 34.56270217895508 87.86338043212891 40.19371795654297 88.9998779296875 46.00000381469727 88.9998779296875 C 51.80628967285156 88.9998779296875 57.43730545043945 87.86338043212891 62.73663330078125 85.62196350097656 C 67.85667419433594 83.45636749267578 72.45558929443359 80.35549926757812 76.40560150146484 76.40549468994141 C 80.35560607910156 72.45548248291016 83.45648956298828 67.85658264160156 85.62208557128906 62.73654174804688 C 87.86350250244141 57.43722534179688 89 51.80620956420898 89 45.99993896484375 C 89 40.19366836547852 87.86350250244141 34.56266784667969 85.62208557128906 29.26335144042969 C 83.45648956298828 24.14329528808594 80.35560607910156 19.54439544677734 76.40560150146484 15.59439849853516 C 72.45558929443359 11.64437866210938 67.85667419433594 8.543510437011719 62.73661804199219 6.377906799316406 C 57.43730545043945 4.136497497558594 51.80628967285156 2.999992370605469 46.00000381469727 2.999992370605469 M 46.00000381469727 -7.62939453125e-06 C 71.40510559082031 -7.62939453125e-06 92 20.59487915039062 92 45.99993896484375 C 92 71.40501403808594 71.40510559082031 91.99988555908203 46.00000381469727 91.99988555908203 C 20.59490203857422 91.99988555908203 7.62939453125e-06 71.40501403808594 7.62939453125e-06 45.99993896484375 C 7.62939453125e-06 20.59487915039062 20.59490203857422 -7.62939453125e-06 46.00000381469727 -7.62939453125e-06 Z" stroke="none" fill="#01899b"/>
                                    </g>
                                  </g>
                                </g>
                              </g>
                            </g>
                          </g>
                        </g>
                      </g>
                    </g>
                  </g>
                </g>
              </g>
            </g>
          </g>
        </g>
      </g>
      <g id="informe-financiero" transform="translate(857.239 2448)">
        <g id="Group_1184081" data-name="Group 1184081" transform="translate(0.936 0.936)">
          <g id="Group_1184066" data-name="Group 1184066" transform="translate(0 39.332)">
            <path id="Path_1039787" data-name="Path 1039787" d="M25.349,43V56.111H1V43H25.349Z" transform="translate(-1 -43)" fill="#b4dd7f"/>
          </g>
          <g id="Group_1184067" data-name="Group 1184067" transform="translate(24.349 39.332)">
            <path id="Path_1039788" data-name="Path 1039788" d="M32.619,43.936V55.174a.939.939,0,0,1-.936.936H27V43h4.682A.939.939,0,0,1,32.619,43.936Z" transform="translate(-27 -43)" fill="#8cc152"/>
          </g>
          <g id="Group_1184068" data-name="Group 1184068" transform="translate(5.713 0.094)">
            <path id="Path_1039789" data-name="Path 1039789" d="M14.5,1.1V8.5H7.1a.761.761,0,0,1,.178-.272l6.949-6.949A.761.761,0,0,1,14.5,1.1Z" transform="translate(-7.1 -1.1)" fill="#fcd770"/>
          </g>
          <g id="Group_1184069" data-name="Group 1184069" transform="translate(5.619)">
            <path id="Path_1039790" data-name="Path 1039790" d="M38.841,11.629A13.111,13.111,0,0,0,44.46,36.587H39.618a9.643,9.643,0,0,0-8.269,4.682.939.939,0,0,0-.936-.936H7v-3.98a7.715,7.715,0,0,0,1.873.234,7.492,7.492,0,1,0,0-14.984A7.715,7.715,0,0,0,7,21.837V8.876a.916.916,0,0,1,.084-.384h7.408V1.084A.916.916,0,0,1,14.876,1H37.9a.939.939,0,0,1,.936.936Z" transform="translate(-7 -1)" fill="#e6e9ed"/>
          </g>
          <g id="Group_1184070" data-name="Group 1184070" transform="translate(41.205 39.276)">
            <path id="Path_1039791" data-name="Path 1039791" d="M50.235,42.94l.009.094a1.88,1.88,0,0,0-.946.515,1.831,1.831,0,0,0-.553,1.32,1.878,1.878,0,0,0,1.873,1.873,1.887,1.887,0,0,0-1.873,1.873,1.878,1.878,0,0,0,1.873,1.873,1.887,1.887,0,0,0-1.873,1.873,1.878,1.878,0,0,0,1.873,1.873,1.887,1.887,0,0,0-1.873,1.873,1.878,1.878,0,0,0,1.873,1.873,1.878,1.878,0,0,1-1.873,1.873H46.873A1.878,1.878,0,0,1,45,57.98V45.038A6.493,6.493,0,0,0,46.873,43h2.809a2.7,2.7,0,0,0,.553-.056Z" transform="translate(-45 -42.94)" fill="#b27946"/>
          </g>
          <g id="Group_1184071" data-name="Group 1184071" transform="translate(29.968 35.587)">
            <path id="Path_1039792" data-name="Path 1039792" d="M44.238,53.047V57.73H39.78A9.6,9.6,0,0,1,33,54.92V43.682A9.643,9.643,0,0,1,41.269,39h9.524a.939.939,0,0,1,.936.936,2.8,2.8,0,0,1-.824,1.985,2.753,2.753,0,0,1-1.433.768,2.7,2.7,0,0,1-.553.056H46.111a6.493,6.493,0,0,1-1.873,2.042Z" transform="translate(-33 -39)" fill="#f0d0b4"/>
          </g>
          <g id="Group_1184072" data-name="Group 1184072" transform="translate(44.951 39.332)">
            <path id="Path_1039793" data-name="Path 1039793" d="M52.746,43a1.878,1.878,0,0,1,1.873,1.873,1.887,1.887,0,0,1-1.873,1.873H50.873A1.878,1.878,0,0,1,49,44.873a1.831,1.831,0,0,1,.553-1.32,1.88,1.88,0,0,1,.946-.515A1.641,1.641,0,0,1,50.873,43Z" transform="translate(-49 -43)" fill="#f0d0b4"/>
          </g>
          <g id="Group_1184073" data-name="Group 1184073" transform="translate(44.951 43.078)">
            <path id="Path_1039794" data-name="Path 1039794" d="M52.746,47a1.878,1.878,0,0,1,1.873,1.873,1.887,1.887,0,0,1-1.873,1.873H50.873A1.878,1.878,0,0,1,49,48.873,1.887,1.887,0,0,1,50.873,47Z" transform="translate(-49 -47)" fill="#f0d0b4"/>
          </g>
          <g id="Group_1184074" data-name="Group 1184074" transform="translate(44.951 50.57)">
            <path id="Path_1039795" data-name="Path 1039795" d="M52.746,55a1.878,1.878,0,0,1,1.873,1.873,1.887,1.887,0,0,1-1.873,1.873H50.873A1.878,1.878,0,0,1,49,56.873,1.887,1.887,0,0,1,50.873,55Z" transform="translate(-49 -55)" fill="#f0d0b4"/>
          </g>
          <g id="Group_1184075" data-name="Group 1184075" transform="translate(44.951 46.824)">
            <path id="Path_1039796" data-name="Path 1039796" d="M52.746,51a1.878,1.878,0,0,1,1.873,1.873,1.887,1.887,0,0,1-1.873,1.873H50.873A1.878,1.878,0,0,1,49,52.873,1.887,1.887,0,0,1,50.873,51Z" transform="translate(-49 -51)" fill="#f0d0b4"/>
          </g>
          <g id="Group_1184076" data-name="Group 1184076" transform="translate(7.492 22.794)">
            <path id="Path_1039797" data-name="Path 1039797" d="M14.3,25.34A7.5,7.5,0,0,1,9,38.132V30.641Z" transform="translate(-9 -25.34)" fill="#ef7385"/>
          </g>
          <g id="Group_1184077" data-name="Group 1184077" transform="translate(2.191 20.603)">
            <path id="Path_1039798" data-name="Path 1039798" d="M13.941,25.191l-5.3,5.3-5.3-5.3a7.606,7.606,0,0,1,3.428-1.957A7.715,7.715,0,0,1,8.641,23,7.505,7.505,0,0,1,13.941,25.191Z" transform="translate(-3.34 -23)" fill="#b4dd7f"/>
          </g>
          <g id="Group_1184078" data-name="Group 1184078" transform="translate(0 22.794)">
            <path id="Path_1039799" data-name="Path 1039799" d="M8.492,30.641v7.492A7.715,7.715,0,0,1,6.619,37.9,7.5,7.5,0,0,1,3.191,25.34Z" transform="translate(-1 -25.34)" fill="#ffeaa7"/>
          </g>
          <g id="Group_1184079" data-name="Group 1184079" transform="translate(29.968 9.365)">
            <path id="Path_1039800" data-name="Path 1039800" d="M46.111,11a13.109,13.109,0,1,1-5.619,1.264A13.113,13.113,0,0,1,46.111,11Zm9.365,13.111a9.365,9.365,0,1,0-9.365,9.365A9.368,9.368,0,0,0,55.476,24.111Z" transform="translate(-33 -11)" fill="#ffeaa7"/>
          </g>
          <g id="Group_1184080" data-name="Group 1184080" transform="translate(33.714 13.111)">
            <ellipse id="Ellipse_12411" data-name="Ellipse 12411" cx="9" cy="9.5" rx="9" ry="9.5" transform="translate(0.412 -0.047)" fill="#fcd770"/>
          </g>
        </g>
        <g id="Group_1184082" data-name="Group 1184082">
          <path id="Path_1039801" data-name="Path 1039801" d="M47.746,20.045V18H45.873v1.873H44v2.809a2.813,2.813,0,0,0,2.809,2.809.938.938,0,0,1,.936.936v.936h-.936a.938.938,0,0,1-.936-.936v-.936H44v.936a2.806,2.806,0,0,0,1.873,2.637v2.045h1.873V29.238h1.873V26.428a2.813,2.813,0,0,0-2.809-2.809.938.938,0,0,1-.936-.936v-.936h.936a.938.938,0,0,1,.936.936v.936h1.873v-.936A2.806,2.806,0,0,0,47.746,20.045Z" transform="translate(-2.795 -1.143)"/>
          <path id="Path_1039802" data-name="Path 1039802" d="M46.3,14A10.3,10.3,0,1,0,56.6,24.3,10.314,10.314,0,0,0,46.3,14Zm0,18.73A8.428,8.428,0,1,1,54.73,24.3,8.439,8.439,0,0,1,46.3,32.73Z" transform="translate(-2.286 -0.889)"/>
          <path id="Path_1039803" data-name="Path 1039803" d="M58.062,23.412a14.009,14.009,0,0,0-18.73-13.228V1.873A1.875,1.875,0,0,0,37.46,0H14.435a1.86,1.86,0,0,0-1.324.549L6.168,7.492a1.86,1.86,0,0,0-.549,1.324V21.094a8.415,8.415,0,0,0,0,15.873v2.365H.936v1.873H24.349V52.443H.936v1.873H29.968a1.851,1.851,0,0,0,1.168-.42,10.439,10.439,0,0,0,6.552,2.293h3.692a2.806,2.806,0,0,0,2.637,1.873h1.873a2.806,2.806,0,0,0,2.637-1.873h1.108a2.8,2.8,0,0,0,2.079-4.682,2.766,2.766,0,0,0,0-3.746,2.766,2.766,0,0,0,0-3.746,2.787,2.787,0,0,0-1.685-4.643,3.707,3.707,0,0,0,.542-1.912,1.865,1.865,0,0,0-.582-1.351A14.052,14.052,0,0,0,58.062,23.412ZM13.111,3.2V7.492H8.816ZM9.365,29.419l4.306-4.306a6.534,6.534,0,0,1-4.306,10.4Zm-.936-1.712L4.51,23.789a6.5,6.5,0,0,1,7.837,0ZM1.873,29.031a6.511,6.511,0,0,1,1.313-3.918l4.306,4.306v6.093a6.56,6.56,0,0,1-5.619-6.48ZM29.968,52.443H26.222V41.205h3.746ZM7.492,39.332V37.4a8.428,8.428,0,1,0,0-16.746V9.365h7.492V1.873H37.46V11a14.036,14.036,0,0,0-.119,24.771,10.654,10.654,0,0,0-6.449,3.817,1.851,1.851,0,0,0-.924-.254Zm38.4,16.857H44.015a.937.937,0,0,1-.936-.936V42.8a5.9,5.9,0,0,0,1.482-1.594h.563a2.723,2.723,0,0,0,.558,2.809,2.766,2.766,0,0,0,0,3.746,2.766,2.766,0,0,0,0,3.746,2.782,2.782,0,0,0,.874,4.4.932.932,0,0,1-.668.283Zm4.682-10.3a.937.937,0,0,1-.936.936H47.761a.936.936,0,1,1,0-1.873h1.873A.937.937,0,0,1,50.57,45.888Zm0,3.746a.937.937,0,0,1-.936.936H47.761a.936.936,0,1,1,0-1.873h1.873A.937.937,0,0,1,50.57,49.634Zm-.936,4.682H47.761a.936.936,0,0,1,0-1.873h1.873a.936.936,0,0,1,0,1.873Zm.936-12.174a.937.937,0,0,1-.936.936H47.761a.936.936,0,1,1,0-1.873h1.873A.937.937,0,0,1,50.57,42.142ZM48.7,37.46a1.875,1.875,0,0,1-1.873,1.873H43.436l-.258.518A4.091,4.091,0,0,1,40.8,41.916l-.823.274.593,1.776.64-.214v4.224a9.609,9.609,0,0,0-3.45-2.041l-.593,1.776a7.741,7.741,0,0,1,3.969,3.031l.074.111v3.462H37.687a8.59,8.59,0,0,1-5.846-2.286V41.495a8.747,8.747,0,0,1,7.334-4.035Zm-4.682-1.873A12.174,12.174,0,1,1,56.189,23.412,12.188,12.188,0,0,1,44.015,35.587Z"/>
          <path id="Path_1039804" data-name="Path 1039804" d="M20,38h1.873v1.873H20Z" transform="translate(-1.27 -2.413)"/>
          <path id="Path_1039805" data-name="Path 1039805" d="M24,38h1.873v1.873H24Z" transform="translate(-1.524 -2.413)"/>
          <path id="Path_1039806" data-name="Path 1039806" d="M28,38h1.873v1.873H28Z" transform="translate(-1.778 -2.413)"/>
          <path id="Path_1039807" data-name="Path 1039807" d="M20,34h9.365v1.873H20Z" transform="translate(-1.27 -2.159)"/>
          <path id="Path_1039808" data-name="Path 1039808" d="M20,30h9.365v1.873H20Z" transform="translate(-1.27 -1.905)"/>
          <path id="Path_1039809" data-name="Path 1039809" d="M20,26h3.746v1.873H20Z" transform="translate(-1.27 -1.651)"/>
          <path id="Path_1039810" data-name="Path 1039810" d="M26,26h3.746v1.873H26Z" transform="translate(-1.651 -1.651)"/>
          <path id="Path_1039811" data-name="Path 1039811" d="M20,6h3.746V7.873H20Z" transform="translate(-1.27 -0.381)"/>
          <path id="Path_1039812" data-name="Path 1039812" d="M26,6h9.365V7.873H26Z" transform="translate(-1.651 -0.381)"/>
          <path id="Path_1039813" data-name="Path 1039813" d="M22,10H35.111v1.873H22Z" transform="translate(-1.397 -0.635)"/>
          <path id="Path_1039814" data-name="Path 1039814" d="M12,14H32.6v1.873H12Z" transform="translate(-0.762 -0.889)"/>
          <path id="Path_1039815" data-name="Path 1039815" d="M12,18H30.73v1.873H12Z" transform="translate(-0.762 -1.143)"/>
        </g>
      </g>
    </g>
  </g>
</svg>
