<svg xmlns="http://www.w3.org/2000/svg" xmlns:xlink="http://www.w3.org/1999/xlink" width="110" height="110" viewBox="0 0 110 110">
  <defs>
    <filter id="Path_982547" x="0" y="0" width="110" height="110" filterUnits="userSpaceOnUse">
      <feOffset dy="3" input="SourceAlpha"/>
      <feGaussianBlur stdDeviation="3" result="blur"/>
      <feFlood flood-opacity="0.161"/>
      <feComposite operator="in" in2="blur"/>
      <feComposite in="SourceGraphic"/>
    </filter>
  </defs>
  <g id="Group_1184787" data-name="Group 1184787" transform="translate(-1092.805 -2409.587)">
    <g id="Group_1184145" data-name="Group 1184145">
      <g id="Group_1183747" data-name="Group 1183747" transform="translate(404.761 -404.413)">
        <g id="Group_1181546" data-name="Group 1181546" transform="translate(-4.696 -130.677)">
          <g id="Group_1177563" data-name="Group 1177563" transform="translate(0.279 -12113.323)">
            <g id="Group_1173148" data-name="Group 1173148" transform="translate(701.461 15064)">
              <g id="Group_1163803" data-name="Group 1163803" transform="translate(0 0)">
                <g id="Group_1163015" data-name="Group 1163015">
                  <g id="Group_1157017" data-name="Group 1157017" transform="translate(0 0)">
                    <g id="Group_1155793" data-name="Group 1155793" transform="translate(0 0)">
                      <g id="Group_1154704" data-name="Group 1154704">
                        <g id="Group_1150790" data-name="Group 1150790">
                          <g id="Group_1154214" data-name="Group 1154214">
                            <g id="Group_1152583" data-name="Group 1152583">
                              <g id="Group_1146973" data-name="Group 1146973" transform="translate(0 0)">
                                <g id="Group_1146954" data-name="Group 1146954">
                                  <g transform="matrix(1, 0, 0, 1, -9, -6)" filter="url(#Path_982547)">
                                    <g id="Path_982547-2" data-name="Path 982547" transform="translate(9 6)" fill="#e4f2f4">
                                      <path d="M 46.00000381469727 90.49988555908203 C 39.99188232421875 90.49988555908203 34.16427230834961 89.32352447509766 28.67905807495117 87.00347137451172 C 23.38020324707031 84.76226043701172 18.62103080749512 81.55342864990234 14.53375053405762 77.46615600585938 C 10.44645690917969 73.37887573242188 7.237643718719482 68.61971282958984 4.996417045593262 63.32085800170898 C 2.676363706588745 57.83565902709961 1.500003814697266 52.00806045532227 1.500003814697266 45.99993896484375 C 1.500003814697266 39.99181747436523 2.676363706588745 34.16421890258789 4.996417045593262 28.67901802062988 C 7.237643718719482 23.38017845153809 10.44645690917969 18.62101936340332 14.53375053405762 14.53373908996582 C 18.62103080749512 10.44645881652832 23.38020324707031 7.237632274627686 28.67905807495117 4.996418952941895 C 34.16427230834961 2.676365613937378 39.99188232421875 1.500005602836609 46.00000381469727 1.500005602836609 C 52.00812530517578 1.500005602836609 57.83573532104492 2.676365613937378 63.32094955444336 4.996418952941895 C 68.61980438232422 7.237632274627686 73.37896728515625 10.44645881652832 77.46625518798828 14.53373908996582 C 81.55353546142578 18.62101936340332 84.76236724853516 23.38017845153809 87.00359344482422 28.67901802062988 C 89.32364654541016 34.16421890258789 90.5 39.99181747436523 90.5 45.99993896484375 C 90.5 52.00806045532227 89.32364654541016 57.83565902709961 87.00359344482422 63.32085800170898 C 84.76236724853516 68.61971282958984 81.55353546142578 73.37887573242188 77.46625518798828 77.46615600585938 C 73.37896728515625 81.55342864990234 68.61980438232422 84.76226043701172 63.32094955444336 87.00347137451172 C 57.83573532104492 89.32352447509766 52.00812530517578 90.49988555908203 46.00000381469727 90.49988555908203 Z" stroke="none"/>
                                      <path d="M 46.00000381469727 2.999992370605469 C 40.19371795654297 2.999992370605469 34.56270217895508 4.136497497558594 29.26338958740234 6.377906799316406 C 24.14333343505859 8.543510437011719 19.54441833496094 11.64437866210938 15.59440612792969 15.59439849853516 C 11.64440155029297 19.54439544677734 8.54351806640625 24.14329528808594 6.377914428710938 29.26335144042969 C 4.136505126953125 34.56266784667969 3.000007629394531 40.19366836547852 3.000007629394531 45.99993896484375 C 3.000007629394531 51.80620956420898 4.136505126953125 57.43722534179688 6.377914428710938 62.73654174804688 C 8.54351806640625 67.85658264160156 11.64440155029297 72.45548248291016 15.59440612792969 76.40549468994141 C 19.54441833496094 80.35549926757812 24.14333343505859 83.45636749267578 29.26337432861328 85.62196350097656 C 34.56270217895508 87.86338043212891 40.19371795654297 88.9998779296875 46.00000381469727 88.9998779296875 C 51.80628967285156 88.9998779296875 57.43730545043945 87.86338043212891 62.73663330078125 85.62196350097656 C 67.85667419433594 83.45636749267578 72.45558929443359 80.35549926757812 76.40560150146484 76.40549468994141 C 80.35560607910156 72.45548248291016 83.45648956298828 67.85658264160156 85.62208557128906 62.73654174804688 C 87.86350250244141 57.43722534179688 89 51.80620956420898 89 45.99993896484375 C 89 40.19366836547852 87.86350250244141 34.56266784667969 85.62208557128906 29.26335144042969 C 83.45648956298828 24.14329528808594 80.35560607910156 19.54439544677734 76.40560150146484 15.59439849853516 C 72.45558929443359 11.64437866210938 67.85667419433594 8.543510437011719 62.73661804199219 6.377906799316406 C 57.43730545043945 4.136497497558594 51.80628967285156 2.999992370605469 46.00000381469727 2.999992370605469 M 46.00000381469727 -7.62939453125e-06 C 71.40510559082031 -7.62939453125e-06 92 20.59487915039062 92 45.99993896484375 C 92 71.40501403808594 71.40510559082031 91.99988555908203 46.00000381469727 91.99988555908203 C 20.59490203857422 91.99988555908203 7.62939453125e-06 71.40501403808594 7.62939453125e-06 45.99993896484375 C 7.62939453125e-06 20.59487915039062 20.59490203857422 -7.62939453125e-06 46.00000381469727 -7.62939453125e-06 Z" stroke="none" fill="#01899b"/>
                                    </g>
                                  </g>
                                </g>
                              </g>
                            </g>
                          </g>
                        </g>
                      </g>
                    </g>
                  </g>
                </g>
              </g>
            </g>
          </g>
        </g>
      </g>
      <g id="proyeccion" transform="translate(1118.535 2432.86)">
        <g id="Group_1184144" data-name="Group 1184144" transform="translate(0.956 0.958)">
          <g id="Group_1184141" data-name="Group 1184141" transform="translate(0.001 8.618)">
            <rect id="Rectangle_415680" data-name="Rectangle 415680" width="15.321" height="8.695" transform="translate(20.109 36.828)" fill="#283593"/>
            <path id="Path_1039868" data-name="Path 1039868" d="M12.364,84.333H60.242a3.83,3.83,0,0,1,3.83,3.83v31.6a3.83,3.83,0,0,1-3.83,3.83H12.364a3.83,3.83,0,0,1-3.83-3.83v-31.6A3.83,3.83,0,0,1,12.364,84.333Z" transform="translate(-8.534 -84.333)" fill="#283593"/>
            <path id="Path_1039869" data-name="Path 1039869" d="M120.425,468.333h28.727a.958.958,0,0,1,.958.958v1.915a.957.957,0,0,1-.958.958H120.425a.958.958,0,0,1-.958-.958v-1.915A.958.958,0,0,1,120.425,468.333Z" transform="translate(-107.019 -425.243)" fill="#283593"/>
          </g>
          <g id="Group_1184142" data-name="Group 1184142" transform="translate(0.001 8.618)">
            <path id="Path_1039870" data-name="Path 1039870" d="M177.454,412.525v8.695H162.133v-2.432h2.873v-3.83h-2.873v-2.432Z" transform="translate(-144.897 -375.697)" fill="#3f51b5"/>
            <path id="Path_1039871" data-name="Path 1039871" d="M12.364,84.333H57.369a3.83,3.83,0,0,1,3.83,3.83v31.6a3.83,3.83,0,0,1-3.83,3.83H12.364a3.83,3.83,0,0,1-3.83-3.83v-31.6A3.83,3.83,0,0,1,12.364,84.333Z" transform="translate(-8.534 -84.333)" fill="#3f51b5"/>
            <path id="Path_1039872" data-name="Path 1039872" d="M120.425,468.333h25.854a.958.958,0,0,1,.958.958v1.915a.957.957,0,0,1-.958.958H120.425a.958.958,0,0,1-.958-.958v-1.915A.958.958,0,0,1,120.425,468.333Z" transform="translate(-107.019 -425.243)" fill="#3f51b5"/>
          </g>
          <path id="Path_1039873" data-name="Path 1039873" d="M64.071,115.932V88.163a3.829,3.829,0,0,0-3.83-3.83H12.363a3.829,3.829,0,0,0-3.83,3.83v27.769H64.071Z" transform="translate(-8.532 -75.715)" fill="#607d8b"/>
          <path id="Path_1039874" data-name="Path 1039874" d="M61.189,115.933V88.164a3.734,3.734,0,0,0-3.632-3.83h-45.4a3.734,3.734,0,0,0-3.632,3.83v27.769H61.189Z" transform="translate(-8.521 -75.716)" fill="#cfd8dc"/>
          <path id="Path_1039875" data-name="Path 1039875" d="M89.248,203.8v14.363H76.8v-5.745a6.685,6.685,0,0,0,6.262-4.338Z" transform="translate(-69.138 -181.776)" fill="#e91e63"/>
          <path id="Path_1039876" data-name="Path 1039876" d="M313.988,92.867v26.812H298.667v-5.745a6.707,6.707,0,0,0,6.377-8.771l6.071-8.35Z" transform="translate(-266.109 -83.291)" fill="#2e7d32"/>
          <path id="Path_1039877" data-name="Path 1039877" d="M311.115,128.024v22.867H298.667v-5.745a6.707,6.707,0,0,0,6.377-8.771Z" transform="translate(-266.109 -114.503)" fill="#4caf50"/>
          <path id="Path_1039878" data-name="Path 1039878" d="M200.181,212.418v5.745H187.733V203.8l6.176,4.28h.01A6.685,6.685,0,0,0,200.181,212.418Z" transform="translate(-167.623 -181.776)" fill="#ffeb3a"/>
          <g id="Group_1184143" data-name="Group 1184143" transform="translate(4.789)">
            <circle id="Ellipse_12414" data-name="Ellipse 12414" cx="2.873" cy="2.873" r="2.873" transform="translate(0 21.066)" fill="#00bcd4"/>
            <circle id="Ellipse_12415" data-name="Ellipse 12415" cx="2.873" cy="2.873" r="2.873" transform="translate(24.897 21.066)" fill="#00bcd4"/>
            <circle id="Ellipse_12416" data-name="Ellipse 12416" cx="2.873" cy="2.873" r="2.873" transform="translate(40.217)" fill="#00bcd4"/>
            <circle id="Ellipse_12417" data-name="Ellipse 12417" cx="2.873" cy="2.873" r="2.873" transform="translate(12.448 12.448)" fill="#00bcd4"/>
          </g>
        </g>
        <path id="Path_1039879" data-name="Path 1039879" d="M52.666,8.618h-6.32l.911-1.307A3.825,3.825,0,1,0,45.005,3.83a3.794,3.794,0,0,0,.762,2.27L44.012,8.618H4.788A4.793,4.793,0,0,0,0,13.406v31.6a4.793,4.793,0,0,0,4.788,4.788H20.109v1.915h-6.7a.957.957,0,0,0-.958.958V56.5a.957.957,0,0,0,.958.958H44.048a.957.957,0,0,0,.958-.958v-3.83a.957.957,0,0,0-.958-.958h-6.7V49.793H52.666a4.793,4.793,0,0,0,4.788-4.788v-31.6A4.793,4.793,0,0,0,52.666,8.618Zm-3.83-6.7A1.915,1.915,0,1,1,46.92,3.83,1.915,1.915,0,0,1,48.835,1.915ZM9.576,32.482a7.657,7.657,0,0,0,6.058-4.577l4.475-3.1V36.387H9.576ZM22.024,24.81l4.479,3.1a7.657,7.657,0,0,0,6.054,4.569v3.9H22.024Zm12.448,7.681a7.565,7.565,0,0,0,6.451-9.452l6.955-9.561v22.91H34.472ZM4.788,10.533h37.89L35.093,21.416a3.749,3.749,0,0,0-4.067.593l-6.377-4.415a3.789,3.789,0,0,0,.247-1.316,3.83,3.83,0,1,0-7.66,0,3.791,3.791,0,0,0,.247,1.316l-6.377,4.415A3.884,3.884,0,1,0,12.2,23.581l6.377-4.415a3.756,3.756,0,0,0,4.977,0l6.377,4.415a3.789,3.789,0,0,0-.247,1.316,3.83,3.83,0,1,0,6.9-2.27l8.429-12.094h2.64L39.118,22.265a.94.94,0,0,0-.121.853l-.016.005a5.742,5.742,0,0,1-10.832,3.8.888.888,0,0,0-.048-.086,1,1,0,0,0-.146-.218c-.02-.022-.043-.041-.065-.061a.948.948,0,0,0-.128-.1l-.007-.005-6.144-4.258a.957.957,0,0,0-1.09,0l-6.186,4.281a.933.933,0,0,0-.336.458l-.016-.006a5.749,5.749,0,0,1-5.366,3.715.957.957,0,0,0-.958.958v5.745a.957.957,0,0,0,.958.958H48.835a.957.957,0,0,0,.958-.958V10.533h2.873a2.876,2.876,0,0,1,2.873,2.873V40.217H1.915V13.406A2.876,2.876,0,0,1,4.788,10.533ZM33.515,22.981A1.915,1.915,0,1,1,31.6,24.9,1.915,1.915,0,0,1,33.515,22.981Zm-14.363-6.7a1.915,1.915,0,1,1,1.915,1.915A1.915,1.915,0,0,1,19.151,16.279ZM10.533,24.9a1.915,1.915,0,1,1-1.915-1.915A1.915,1.915,0,0,1,10.533,24.9ZM43.09,55.538H14.363V53.623H43.09Zm-7.661-3.83H22.024V49.793H35.43v1.915Zm17.236-3.83H4.788a2.876,2.876,0,0,1-2.873-2.873V42.133H55.538v2.873A2.876,2.876,0,0,1,52.666,47.878Z"/>
      </g>
    </g>
  </g>
</svg>
