<svg xmlns="http://www.w3.org/2000/svg" xmlns:xlink="http://www.w3.org/1999/xlink" width="110" height="110" viewBox="0 0 110 110">
  <defs>
    <filter id="Path_982547" x="0" y="0" width="110" height="110" filterUnits="userSpaceOnUse">
      <feOffset dy="3" input="SourceAlpha"/>
      <feGaussianBlur stdDeviation="3" result="blur"/>
      <feFlood flood-opacity="0.161"/>
      <feComposite operator="in" in2="blur"/>
      <feComposite in="SourceGraphic"/>
    </filter>
  </defs>
  <g id="Group_1184786" data-name="Group 1184786" transform="translate(-777 -2410)">
    <g id="Group_1184140" data-name="Group 1184140">
      <g id="Group_1183746" data-name="Group 1183746" transform="translate(404.956 -404)">
        <g id="Group_1181545" data-name="Group 1181545" transform="translate(-5.417 -130)">
          <g id="Group_1177562" data-name="Group 1177562" transform="translate(0 -12113)">
            <g id="Group_1173147" data-name="Group 1173147" transform="translate(386.461 15063)">
              <g id="Group_1163801" data-name="Group 1163801" transform="translate(0 0)">
                <g id="Group_1163014" data-name="Group 1163014">
                  <g id="Group_1157015" data-name="Group 1157015" transform="translate(0 0)">
                    <g id="Group_1155792" data-name="Group 1155792" transform="translate(0 0)">
                      <g id="Group_1154703" data-name="Group 1154703">
                        <g id="Group_1150789" data-name="Group 1150789">
                          <g id="Group_1154212" data-name="Group 1154212">
                            <g id="Group_1152583" data-name="Group 1152583">
                              <g id="Group_1146973" data-name="Group 1146973" transform="translate(0 0)">
                                <g id="Group_1146954" data-name="Group 1146954">
                                  <g transform="matrix(1, 0, 0, 1, -9, -6)" filter="url(#Path_982547)">
                                    <g id="Path_982547-2" data-name="Path 982547" transform="translate(9 6)" fill="#e4f2f4">
                                      <path d="M 46.00000381469727 90.49988555908203 C 39.99188232421875 90.49988555908203 34.16427230834961 89.32352447509766 28.67905807495117 87.00347137451172 C 23.38020324707031 84.76226043701172 18.62103080749512 81.55342864990234 14.53375053405762 77.46615600585938 C 10.44645690917969 73.37887573242188 7.237643718719482 68.61971282958984 4.996417045593262 63.32085800170898 C 2.676363706588745 57.83565902709961 1.500003814697266 52.00806045532227 1.500003814697266 45.99993896484375 C 1.500003814697266 39.99181747436523 2.676363706588745 34.16421890258789 4.996417045593262 28.67901802062988 C 7.237643718719482 23.38017845153809 10.44645690917969 18.62101936340332 14.53375053405762 14.53373908996582 C 18.62103080749512 10.44645881652832 23.38020324707031 7.237632274627686 28.67905807495117 4.996418952941895 C 34.16427230834961 2.676365613937378 39.99188232421875 1.500005602836609 46.00000381469727 1.500005602836609 C 52.00812530517578 1.500005602836609 57.83573532104492 2.676365613937378 63.32094955444336 4.996418952941895 C 68.61980438232422 7.237632274627686 73.37896728515625 10.44645881652832 77.46625518798828 14.53373908996582 C 81.55353546142578 18.62101936340332 84.76236724853516 23.38017845153809 87.00359344482422 28.67901802062988 C 89.32364654541016 34.16421890258789 90.5 39.99181747436523 90.5 45.99993896484375 C 90.5 52.00806045532227 89.32364654541016 57.83565902709961 87.00359344482422 63.32085800170898 C 84.76236724853516 68.61971282958984 81.55353546142578 73.37887573242188 77.46625518798828 77.46615600585938 C 73.37896728515625 81.55342864990234 68.61980438232422 84.76226043701172 63.32094955444336 87.00347137451172 C 57.83573532104492 89.32352447509766 52.00812530517578 90.49988555908203 46.00000381469727 90.49988555908203 Z" stroke="none"/>
                                      <path d="M 46.00000381469727 2.999992370605469 C 40.19371795654297 2.999992370605469 34.56270217895508 4.136497497558594 29.26338958740234 6.377906799316406 C 24.14333343505859 8.543510437011719 19.54441833496094 11.64437866210938 15.59440612792969 15.59439849853516 C 11.64440155029297 19.54439544677734 8.54351806640625 24.14329528808594 6.377914428710938 29.26335144042969 C 4.136505126953125 34.56266784667969 3.000007629394531 40.19366836547852 3.000007629394531 45.99993896484375 C 3.000007629394531 51.80620956420898 4.136505126953125 57.43722534179688 6.377914428710938 62.73654174804688 C 8.54351806640625 67.85658264160156 11.64440155029297 72.45548248291016 15.59440612792969 76.40549468994141 C 19.54441833496094 80.35549926757812 24.14333343505859 83.45636749267578 29.26337432861328 85.62196350097656 C 34.56270217895508 87.86338043212891 40.19371795654297 88.9998779296875 46.00000381469727 88.9998779296875 C 51.80628967285156 88.9998779296875 57.43730545043945 87.86338043212891 62.73663330078125 85.62196350097656 C 67.85667419433594 83.45636749267578 72.45558929443359 80.35549926757812 76.40560150146484 76.40549468994141 C 80.35560607910156 72.45548248291016 83.45648956298828 67.85658264160156 85.62208557128906 62.73654174804688 C 87.86350250244141 57.43722534179688 89 51.80620956420898 89 45.99993896484375 C 89 40.19366836547852 87.86350250244141 34.56266784667969 85.62208557128906 29.26335144042969 C 83.45648956298828 24.14329528808594 80.35560607910156 19.54439544677734 76.40560150146484 15.59439849853516 C 72.45558929443359 11.64437866210938 67.85667419433594 8.543510437011719 62.73661804199219 6.377906799316406 C 57.43730545043945 4.136497497558594 51.80628967285156 2.999992370605469 46.00000381469727 2.999992370605469 M 46.00000381469727 -7.62939453125e-06 C 71.40510559082031 -7.62939453125e-06 92 20.59487915039062 92 45.99993896484375 C 92 71.40501403808594 71.40510559082031 91.99988555908203 46.00000381469727 91.99988555908203 C 20.59490203857422 91.99988555908203 7.62939453125e-06 71.40501403808594 7.62939453125e-06 45.99993896484375 C 7.62939453125e-06 20.59487915039062 20.59490203857422 -7.62939453125e-06 46.00000381469727 -7.62939453125e-06 Z" stroke="none" fill="#01899b"/>
                                    </g>
                                  </g>
                                </g>
                              </g>
                            </g>
                          </g>
                        </g>
                      </g>
                    </g>
                  </g>
                </g>
              </g>
            </g>
          </g>
        </g>
      </g>
      <g id="salario_1_" data-name="salario (1)" transform="translate(794.203 2430.001)">
        <g id="Group_1184138" data-name="Group 1184138" transform="translate(8.71 0.919)">
          <g id="Group_1184122" data-name="Group 1184122" transform="translate(12.073)">
            <g id="Group_1184121" data-name="Group 1184121">
              <g id="Group_1184120" data-name="Group 1184120">
                <g id="Group_1184117" data-name="Group 1184117">
                  <g id="Group_1184116" data-name="Group 1184116">
                    <path id="Path_1039858" data-name="Path 1039858" d="M138.738,18.193s5.972-7.751,4.255-9.975c-.585-.758-1.084.271-2.295.271-1.422,0-1.422-.931-2.845-.931s-1.422.931-2.844.931-1.422-.931-2.844-.931-1.422.931-2.844.931c-1.212,0-1.709-1.043-2.3-.284-1.718,2.211,4.167,9.988,4.167,9.988C105.2,35.28,113.58,58.517,128.925,58.517H141.1C156.487,58.517,164.816,35.336,138.738,18.193Z" transform="translate(-114.473 -7.559)" fill="#eabc6b"/>
                  </g>
                </g>
                <g id="Group_1184118" data-name="Group 1184118" transform="translate(15.697)">
                  <path id="Path_1039859" data-name="Path 1039859" d="M251.983,18.193s5.972-7.751,4.255-9.975c-.585-.758-1.084.271-2.295.271-1.422,0-1.422-.931-2.845-.931s-1.422.931-2.844.931c-.07,0-.134,0-.2-.008-.571,2.449-3.146,6.265-4.62,8.308.58.852,1,1.4,1,1.4q-.52.342-1.021.687c24.833,17.069,16.524,39.636,1.336,39.636h9.589c15.392,0,23.72-23.18-2.357-40.323Z" transform="translate(-243.415 -7.559)" fill="#e8ae4d"/>
                </g>
                <g id="Group_1184119" data-name="Group 1184119" transform="translate(13.416 9.03)">
                  <path id="Path_1039860" data-name="Path 1039860" d="M236.642,86.1a20.778,20.778,0,0,1-10.37,0,2.214,2.214,0,0,1-1.458-2.9l.015-.041A2.043,2.043,0,0,1,227.24,81.8a16.882,16.882,0,0,0,8.434,0,2.043,2.043,0,0,1,2.411,1.362l.015.041A2.214,2.214,0,0,1,236.642,86.1Z" transform="translate(-224.683 -81.738)" fill="#ffe07d"/>
                </g>
              </g>
            </g>
          </g>
          <g id="Group_1184137" data-name="Group 1184137" transform="translate(0 34.58)">
            <g id="Group_1184136" data-name="Group 1184136">
              <g id="Group_1184135" data-name="Group 1184135">
                <g id="Group_1184134" data-name="Group 1184134">
                  <g id="Group_1184133" data-name="Group 1184133">
                    <g id="Group_1184132" data-name="Group 1184132">
                      <g id="Group_1184131" data-name="Group 1184131">
                        <g id="Group_1184130" data-name="Group 1184130">
                          <g id="Group_1184129" data-name="Group 1184129">
                            <g id="Group_1184128" data-name="Group 1184128">
                              <g id="Group_1184127" data-name="Group 1184127" transform="translate(4.819 3.199)">
                                <g id="Group_1184126" data-name="Group 1184126">
                                  <g id="Group_1184123" data-name="Group 1184123">
                                    <path id="Path_1039861" data-name="Path 1039861" d="M54.883,335.061,68.1,339.981a10.057,10.057,0,0,0,3.508.632h13.62a10.058,10.058,0,0,0,5.383-1.562l17.054-10.807a2.993,2.993,0,0,0,.487-3.922c-.926-1.361-2.458-1.6-4.144-.8l-16.6,7.311.02-2.694a4.822,4.822,0,0,0-4.122-4.3L73.19,322.677c-2.332-.33-3.5-1.112-5.531-2.3a18.122,18.122,0,0,0-9.15-2.48H54.883v17.165Z" transform="translate(-54.883 -317.896)" fill="#ffddce"/>
                                  </g>
                                  <g id="Group_1184124" data-name="Group 1184124">
                                    <path id="Path_1039862" data-name="Path 1039862" d="M54.883,335.061,68.1,339.981a10.057,10.057,0,0,0,3.508.632h13.62a10.058,10.058,0,0,0,5.383-1.562l17.054-10.807a2.993,2.993,0,0,0,.487-3.922c-.926-1.361-2.458-1.6-4.144-.8l-16.6,7.311.02-2.694a4.822,4.822,0,0,0-4.122-4.3L73.19,322.677c-2.332-.33-3.5-1.112-5.531-2.3a18.122,18.122,0,0,0-9.15-2.48H54.883v17.165Z" transform="translate(-54.883 -317.896)" fill="#ffddce"/>
                                  </g>
                                  <path id="Path_1039863" data-name="Path 1039863" d="M108.153,361.617c-.926-1.361-2.458-1.6-4.144-.8l-4.567,2.011.4.63a2.994,2.994,0,0,1-.487,3.922l-9.937,6.3a10.056,10.056,0,0,1-4.186.914H71.608a10.057,10.057,0,0,1-3.508-.632l-13.216-4.919v3.318L68.1,377.276a10.056,10.056,0,0,0,3.508.632h13.62a10.058,10.058,0,0,0,5.383-1.562l17.054-10.806A2.994,2.994,0,0,0,108.153,361.617Z" transform="translate(-54.884 -355.191)" fill="#ffcbbe"/>
                                  <g id="Group_1184125" data-name="Group 1184125" transform="translate(31.301 7.467)">
                                    <path id="Path_1039864" data-name="Path 1039864" d="M312,379.236v.065l.043-.019Z" transform="translate(-312.004 -379.236)" fill="#f5dbcc"/>
                                  </g>
                                </g>
                              </g>
                              <path id="Path_1039865" data-name="Path 1039865" d="M22.958,314.617a1.736,1.736,0,0,1-1.736,1.736H17.031a1.736,1.736,0,0,1-1.736-1.736v-21.26a1.736,1.736,0,0,1,1.736-1.736h4.191a1.736,1.736,0,0,1,1.736,1.736Z" transform="translate(-15.295 -291.62)" fill="#407093"/>
                            </g>
                          </g>
                        </g>
                      </g>
                    </g>
                  </g>
                </g>
              </g>
            </g>
          </g>
        </g>
        <g id="Group_1184139" data-name="Group 1184139" transform="translate(7.797 -0.001)">
          <path id="Path_1039866" data-name="Path 1039866" d="M67.553,44.611c-1.163-1.709-3.135-2.126-5.277-1.118l-1.136.5A18.777,18.777,0,0,0,62.262,31.9a29.165,29.165,0,0,0-7.349-13.289.913.913,0,1,0-1.346,1.234A27.375,27.375,0,0,1,60.479,32.3a16.37,16.37,0,0,1-2.143,12.928l-11.363,5,.009-1.283a.89.89,0,0,0,0-.1,5.721,5.721,0,0,0-4.9-5.11l-.023,0-10.1-1.163c-3.883-.553-4.884-2.88-10.143-4.207a19.652,19.652,0,0,1,1.449-9.658c2-4.957,5.911-9.773,11.334-13.964,2.021,1.433,11.038,1.611,13.056-.237,1.034.785,2.02,1.594,2.94,2.413A.913.913,0,1,0,51.8,15.557c-1.007-.9-2.091-1.783-3.228-2.639a3.249,3.249,0,0,0-1.09-3.238c2.858-4.335,3.69-7.173,2.541-8.659A1.6,1.6,0,0,0,47.837.683,1.464,1.464,0,0,1,46.086.621a3.282,3.282,0,0,0-3.844,0,1.472,1.472,0,0,1-1.844,0,3.281,3.281,0,0,0-3.844,0,1.453,1.453,0,0,1-1.749.058,1.593,1.593,0,0,0-2.192.326C31.49,2.45,32.241,5.2,34.907,9.386a2.973,2.973,0,0,0-.464.31,6.163,6.163,0,0,0-5.309-2.007,6.69,6.69,0,0,1-4.541-1.074.913.913,0,1,0-1.017,1.516A8.5,8.5,0,0,0,29.337,9.5a4.461,4.461,0,0,1,4.077,1.783q-.017.058-.031.117a15.666,15.666,0,0,0-2.895.316,8.572,8.572,0,0,0-5.941,3.8.913.913,0,1,0,1.576.922c1.665-2.845,5.728-3.193,7.342-3.215.007.02.015.04.022.06-5.759,4.442-9.769,9.4-11.922,14.735a21.667,21.667,0,0,0-1.629,9.967,19,19,0,0,0-2.651-.205v-.552a2.652,2.652,0,0,0-2.649-2.649H10.446A2.652,2.652,0,0,0,7.8,37.235V58.5a2.652,2.652,0,0,0,2.649,2.649h4.191A2.652,2.652,0,0,0,17.286,58.5v-.26l9.141,3.4a10.937,10.937,0,0,0,3.827.689H43.874a10.954,10.954,0,0,0,5.872-1.7c18.17-11.519,17.067-10.8,17.172-10.895a3.915,3.915,0,0,0,.636-5.118ZM45.936,13.426a19.785,19.785,0,0,1-9.923,0c-1.433-.362-1.018-2.917.522-2.531a17.8,17.8,0,0,0,8.879,0C46.926,10.514,47.391,13.058,45.936,13.426ZM33.972,2.3l.021.011a3.239,3.239,0,0,0,3.561-.166c1.555-1.018,1.724.614,3.766.614a3.171,3.171,0,0,0,1.922-.614,1.472,1.472,0,0,1,1.845,0,3.256,3.256,0,0,0,3.576.163c.188.677-.237,2.7-2.944,6.726-1.344-.023-3.295,1.3-8.817.068-2.7-4.082-3.119-6.12-2.93-6.8ZM65.755,48.318,48.769,59.082a9.131,9.131,0,0,1-4.894,1.42H30.254a9.115,9.115,0,0,1-3.19-.574l-9.778-3.64V46.457a.913.913,0,1,0-1.826,0V58.5a.824.824,0,0,1-.823.823H10.446a.824.824,0,0,1-.823-.823V37.236a.824.824,0,0,1,.823-.823h4.191a.824.824,0,0,1,.823.823V42.19a.913.913,0,1,0,1.826,0V39.614c7.551.058,9.249,4.038,14.423,4.77l.023,0,10.1,1.163a3.9,3.9,0,0,1,3.326,3.436l-.013,1.736H35.726a.913.913,0,0,0,0,1.826H46.05a.945.945,0,0,0,.364-.076l16.607-7.312c1.194-.531,2.283-.607,3.022.479A2.085,2.085,0,0,1,65.755,48.318Z" transform="translate(-7.797 0.001)"/>
          <path id="Path_1039867" data-name="Path 1039867" d="M245.046,177.839a.913.913,0,0,0,.913-.913v-1.513a5.348,5.348,0,0,0,4.383-4.425,4.682,4.682,0,0,0-3.226-5.356c-.418-.148-.8-.289-1.158-.426v-5.82a3.754,3.754,0,0,1,1.776.78.913.913,0,0,0,1.233-1.347,5.658,5.658,0,0,0-3.008-1.277v-1.3a.913.913,0,1,0-1.826,0v1.372a6.728,6.728,0,0,0-.677.165,4.414,4.414,0,0,0-3.021,3.465,3.861,3.861,0,0,0,1.255,3.805,11.06,11.06,0,0,0,2.444,1.381v7.219a4.849,4.849,0,0,1-2.839-.984.913.913,0,1,0-1,1.528,6.686,6.686,0,0,0,3.839,1.282v1.449a.913.913,0,0,0,.913.913Zm-2.23-14.223a2.058,2.058,0,0,1-.587-2.031,2.612,2.612,0,0,1,1.753-2.055c.051-.015.1-.028.151-.042v4.931A7.7,7.7,0,0,1,242.817,163.616Zm3.692,3.738a2.873,2.873,0,0,1,2.034,3.332,3.556,3.556,0,0,1-2.583,2.862v-6.392C246.137,167.221,246.318,167.287,246.508,167.354Z" transform="translate(-211.629 -136.422)"/>
        </g>
      </g>
    </g>
  </g>
</svg>
