<svg xmlns="http://www.w3.org/2000/svg" xmlns:xlink="http://www.w3.org/1999/xlink" width="110" height="110" viewBox="0 0 110 110">
  <defs>
    <filter id="Path_982547" x="0" y="0" width="110" height="110" filterUnits="userSpaceOnUse">
      <feOffset dy="3" input="SourceAlpha"/>
      <feGaussianBlur stdDeviation="3" result="blur"/>
      <feFlood flood-opacity="0.161"/>
      <feComposite operator="in" in2="blur"/>
      <feComposite in="SourceGraphic"/>
    </filter>
  </defs>
  <g id="Group_1184788" data-name="Group 1184788" transform="translate(-776.805 -2785.587)">
    <g id="Group_1184147" data-name="Group 1184147">
      <g id="Group_1183748" data-name="Group 1183748" transform="translate(404.761 -28.413)">
        <g id="Group_1181545" data-name="Group 1181545" transform="translate(-5.417 -130)">
          <g id="Group_1177562" data-name="Group 1177562" transform="translate(0 -12113)">
            <g id="Group_1173147" data-name="Group 1173147" transform="translate(386.461 15063)">
              <g id="Group_1163801" data-name="Group 1163801" transform="translate(0 0)">
                <g id="Group_1163014" data-name="Group 1163014">
                  <g id="Group_1157015" data-name="Group 1157015" transform="translate(0 0)">
                    <g id="Group_1155792" data-name="Group 1155792" transform="translate(0 0)">
                      <g id="Group_1154703" data-name="Group 1154703">
                        <g id="Group_1150789" data-name="Group 1150789">
                          <g id="Group_1154212" data-name="Group 1154212">
                            <g id="Group_1152583" data-name="Group 1152583">
                              <g id="Group_1146973" data-name="Group 1146973" transform="translate(0 0)">
                                <g id="Group_1146954" data-name="Group 1146954">
                                  <g transform="matrix(1, 0, 0, 1, -9, -6)" filter="url(#Path_982547)">
                                    <g id="Path_982547-2" data-name="Path 982547" transform="translate(9 6)" fill="#e4f2f4">
                                      <path d="M 46.00000381469727 90.49988555908203 C 39.99188232421875 90.49988555908203 34.16427230834961 89.32352447509766 28.67905807495117 87.00347137451172 C 23.38020324707031 84.76226043701172 18.62103080749512 81.55342864990234 14.53375053405762 77.46615600585938 C 10.44645690917969 73.37887573242188 7.237643718719482 68.61971282958984 4.996417045593262 63.32085800170898 C 2.676363706588745 57.83565902709961 1.500003814697266 52.00806045532227 1.500003814697266 45.99993896484375 C 1.500003814697266 39.99181747436523 2.676363706588745 34.16421890258789 4.996417045593262 28.67901802062988 C 7.237643718719482 23.38017845153809 10.44645690917969 18.62101936340332 14.53375053405762 14.53373908996582 C 18.62103080749512 10.44645881652832 23.38020324707031 7.237632274627686 28.67905807495117 4.996418952941895 C 34.16427230834961 2.676365613937378 39.99188232421875 1.500005602836609 46.00000381469727 1.500005602836609 C 52.00812530517578 1.500005602836609 57.83573532104492 2.676365613937378 63.32094955444336 4.996418952941895 C 68.61980438232422 7.237632274627686 73.37896728515625 10.44645881652832 77.46625518798828 14.53373908996582 C 81.55353546142578 18.62101936340332 84.76236724853516 23.38017845153809 87.00359344482422 28.67901802062988 C 89.32364654541016 34.16421890258789 90.5 39.99181747436523 90.5 45.99993896484375 C 90.5 52.00806045532227 89.32364654541016 57.83565902709961 87.00359344482422 63.32085800170898 C 84.76236724853516 68.61971282958984 81.55353546142578 73.37887573242188 77.46625518798828 77.46615600585938 C 73.37896728515625 81.55342864990234 68.61980438232422 84.76226043701172 63.32094955444336 87.00347137451172 C 57.83573532104492 89.32352447509766 52.00812530517578 90.49988555908203 46.00000381469727 90.49988555908203 Z" stroke="none"/>
                                      <path d="M 46.00000381469727 2.999992370605469 C 40.19371795654297 2.999992370605469 34.56270217895508 4.136497497558594 29.26338958740234 6.377906799316406 C 24.14333343505859 8.543510437011719 19.54441833496094 11.64437866210938 15.59440612792969 15.59439849853516 C 11.64440155029297 19.54439544677734 8.54351806640625 24.14329528808594 6.377914428710938 29.26335144042969 C 4.136505126953125 34.56266784667969 3.000007629394531 40.19366836547852 3.000007629394531 45.99993896484375 C 3.000007629394531 51.80620956420898 4.136505126953125 57.43722534179688 6.377914428710938 62.73654174804688 C 8.54351806640625 67.85658264160156 11.64440155029297 72.45548248291016 15.59440612792969 76.40549468994141 C 19.54441833496094 80.35549926757812 24.14333343505859 83.45636749267578 29.26337432861328 85.62196350097656 C 34.56270217895508 87.86338043212891 40.19371795654297 88.9998779296875 46.00000381469727 88.9998779296875 C 51.80628967285156 88.9998779296875 57.43730545043945 87.86338043212891 62.73663330078125 85.62196350097656 C 67.85667419433594 83.45636749267578 72.45558929443359 80.35549926757812 76.40560150146484 76.40549468994141 C 80.35560607910156 72.45548248291016 83.45648956298828 67.85658264160156 85.62208557128906 62.73654174804688 C 87.86350250244141 57.43722534179688 89 51.80620956420898 89 45.99993896484375 C 89 40.19366836547852 87.86350250244141 34.56266784667969 85.62208557128906 29.26335144042969 C 83.45648956298828 24.14329528808594 80.35560607910156 19.54439544677734 76.40560150146484 15.59439849853516 C 72.45558929443359 11.64437866210938 67.85667419433594 8.543510437011719 62.73661804199219 6.377906799316406 C 57.43730545043945 4.136497497558594 51.80628967285156 2.999992370605469 46.00000381469727 2.999992370605469 M 46.00000381469727 -7.62939453125e-06 C 71.40510559082031 -7.62939453125e-06 92 20.59487915039062 92 45.99993896484375 C 92 71.40501403808594 71.40510559082031 91.99988555908203 46.00000381469727 91.99988555908203 C 20.59490203857422 91.99988555908203 7.62939453125e-06 71.40501403808594 7.62939453125e-06 45.99993896484375 C 7.62939453125e-06 20.59487915039062 20.59490203857422 -7.62939453125e-06 46.00000381469727 -7.62939453125e-06 Z" stroke="none" fill="#01899b"/>
                                    </g>
                                  </g>
                                </g>
                              </g>
                            </g>
                          </g>
                        </g>
                      </g>
                    </g>
                  </g>
                </g>
              </g>
            </g>
          </g>
        </g>
      </g>
      <g id="identificar" transform="translate(803.661 2809.745)">
        <path id="Path_1039880" data-name="Path 1039880" d="M135.45,7.5a19.788,19.788,0,0,0-16.335,30.6,1.286,1.286,0,0,1-.164,1.614l-6.725,6.725,4.3,4.3,6.725-6.725a1.286,1.286,0,0,1,1.614-.164A19.786,19.786,0,1,0,135.45,7.5Z" transform="translate(-99.854 -6.674)" fill="#c5d3dd"/>
        <circle id="Ellipse_12418" data-name="Ellipse 12418" cx="15.219" cy="15.219" r="15.219" transform="translate(20.612 5.393)" fill="#f9f7f8"/>
        <path id="Path_1039881" data-name="Path 1039881" d="M257.585,55.065a15.224,15.224,0,0,1-13.418,26.878,15.221,15.221,0,1,0,13.418-26.878Z" transform="translate(-217.249 -48.995)" fill="#dff6fd"/>
        <path id="Path_1039882" data-name="Path 1039882" d="M257.748,104.139l-8.336,14.438h16.672Z" transform="translate(-221.916 -92.659)" fill="#fdb441"/>
        <path id="Path_1039883" data-name="Path 1039883" d="M26.28,340.164l-6.294-6.294a.115.115,0,0,0-.163,0L7.534,346.159a.116.116,0,0,0-.034.082v6.409h6.409a.115.115,0,0,0,.082-.034L26.28,340.327A.115.115,0,0,0,26.28,340.164Z" transform="translate(-6.672 -297.035)" fill="#7a6d79"/>
        <g id="Group_1184146" data-name="Group 1184146" transform="translate(3.928 2.716)">
          <path id="Path_1039884" data-name="Path 1039884" d="M49.487,108.081l-4.42-1.145a1.522,1.522,0,0,1,.763-2.947l4.42,1.145a1.522,1.522,0,0,1-.763,2.947Z" transform="translate(-43.011 -95.199)" fill="#fe646f"/>
          <path id="Path_1039885" data-name="Path 1039885" d="M41.8,190.552l-4.557.279a1.522,1.522,0,0,1-.186-3.038l4.557-.279a1.522,1.522,0,0,1,.186,3.038Z" transform="translate(-35.628 -169.556)" fill="#fe646f"/>
          <path id="Path_1039886" data-name="Path 1039886" d="M84.651,27.334,80.8,24.878a1.522,1.522,0,0,0-1.637,2.566L83.014,29.9a1.522,1.522,0,0,0,1.637-2.566Z" transform="translate(-73.74 -24.639)" fill="#fe646f"/>
        </g>
        <path id="Path_1039887" data-name="Path 1039887" d="M79.614,358.323,72.2,350.906a.136.136,0,0,1,0-.192l2.406-2.406a.136.136,0,0,1,.192,0l7.418,7.418a.136.136,0,0,1,0,.192l-2.406,2.406A.136.136,0,0,1,79.614,358.323Z" transform="translate(-64.202 -309.876)" fill="#c5d3dd"/>
        <path id="Path_1039888" data-name="Path 1039888" d="M195.519,73.508a16.046,16.046,0,1,0-16.046-16.046A16.064,16.064,0,0,0,195.519,73.508Zm0-30.438a14.392,14.392,0,1,1-14.392,14.392A14.408,14.408,0,0,1,195.519,43.071Z" transform="translate(-159.687 -36.851)"/>
        <path id="Path_1039889" data-name="Path 1039889" d="M242.74,112.731h16.671a.827.827,0,0,0,.716-1.24l-1.495-2.589a.827.827,0,0,0-1.432.827l.779,1.349H244.172l6.9-11.958,4.158,7.2a.827.827,0,0,0,1.432-.827l-4.874-8.442a.827.827,0,0,0-1.432,0l-8.336,14.438a.827.827,0,0,0,.716,1.24Z" transform="translate(-215.244 -85.986)"/>
        <path id="Path_1039890" data-name="Path 1039890" d="M319.183,152.689a.827.827,0,1,0-1.654,0v2.272a.827.827,0,0,0,1.654,0Z" transform="translate(-282.524 -135.121)"/>
        <circle id="Ellipse_12419" data-name="Ellipse 12419" cx="0.827" cy="0.827" r="0.827" transform="translate(35.003 21.99)"/>
        <path id="Path_1039891" data-name="Path 1039891" d="M38.188,101.061l4.42,1.145a2.349,2.349,0,1,0,1.178-4.547l-4.42-1.145a2.349,2.349,0,1,0-1.178,4.547ZM38.1,98.613a.7.7,0,0,1,.847-.5l4.42,1.145a.7.7,0,1,1-.349,1.346L38.6,99.46a.7.7,0,0,1-.5-.847Z" transform="translate(-32.411 -85.806)"/>
        <path id="Path_1039892" data-name="Path 1039892" d="M30.62,184.981l4.557-.279h0a2.349,2.349,0,0,0-.287-4.689l-4.557.279a2.349,2.349,0,1,0,.287,4.689Zm-.664-2.8a.691.691,0,0,1,.478-.233l4.557-.279a.7.7,0,0,1,.085,1.388l-4.557.279A.7.7,0,0,1,29.956,182.177Z" transform="translate(-25.026 -160.165)"/>
        <path id="Path_1039893" data-name="Path 1039893" d="M72.042,21.474l3.849,2.456a2.349,2.349,0,1,0,2.527-3.96l-3.849-2.456a2.349,2.349,0,0,0-2.527,3.96Zm.677-2.354a.7.7,0,0,1,.96-.212l3.849,2.456a.7.7,0,1,1-.748,1.172L72.932,20.08a.7.7,0,0,1-.212-.96Z" transform="translate(-63.133 -15.256)"/>
        <path id="Path_1039894" data-name="Path 1039894" d="M50.406,6.037A20.653,20.653,0,0,0,22.954,4.493a.827.827,0,1,0,1.032,1.292,18.973,18.973,0,0,1,30.8,15.052A18.961,18.961,0,0,1,25.469,36.489a2.122,2.122,0,0,0-2.652.271l-4.2,4.2L15.478,37.83l4.2-4.2a2.122,2.122,0,0,0,.271-2.652,19.01,19.01,0,0,1,1.36-22.584.827.827,0,0,0-1.265-1.065,20.666,20.666,0,0,0-1.479,24.554.456.456,0,0,1-.057.577l-4.2,4.2-.41-.41a.944.944,0,0,0-1.332,0l-1.5,1.5a.962.962,0,0,0-1.249.1L7.41,40.254a.962.962,0,0,0-.1,1.249L.276,48.541A.936.936,0,0,0,0,49.206v6.409a.827.827,0,0,0,.827.827H7.237a.936.936,0,0,0,.666-.276l7.037-7.037a.963.963,0,0,0,1.249-.1L18.6,46.626a.963.963,0,0,0,.1-1.249l1.5-1.5a.942.942,0,0,0,0-1.332l-.41-.41,4.2-4.2a.456.456,0,0,1,.577-.056A20.613,20.613,0,0,0,50.406,6.037ZM13.232,37.923,18.52,43.21l-.99.99-5.288-5.288Zm2.276,9.452-.982-.982a.827.827,0,0,0-1.169,1.169l.406.406L6.942,54.788H1.655V49.5L8.476,42.68l2.151,2.151A.827.827,0,0,0,11.8,43.661L9.068,40.934,10.5,39.505l6.44,6.44Z" transform="translate(0)"/>
      </g>
    </g>
  </g>
</svg>
