<svg xmlns="http://www.w3.org/2000/svg" xmlns:xlink="http://www.w3.org/1999/xlink" width="113" height="113" viewBox="0 0 113 113">
  <defs>
    <filter id="Path_982547" x="0" y="0" width="113" height="113" filterUnits="userSpaceOnUse">
      <feOffset dy="3" input="SourceAlpha"/>
      <feGaussianBlur stdDeviation="3" result="blur"/>
      <feFlood flood-opacity="0.161"/>
      <feComposite operator="in" in2="blur"/>
      <feComposite in="SourceGraphic"/>
    </filter>
  </defs>
  <g id="Group_1184817" data-name="Group 1184817" transform="translate(-190.238 -415)">
    <g id="Group_1184624" data-name="Group 1184624">
      <g id="Group_1183774" data-name="Group 1183774" transform="translate(-2.762 -669.432)">
        <g id="Group_1173793" data-name="Group 1173793" transform="translate(202 1090.432)">
          <g id="Group_1167519" data-name="Group 1167519">
            <g id="Group_1166845" data-name="Group 1166845">
              <g id="Group_1166720" data-name="Group 1166720">
                <g id="Group_1164305" data-name="Group 1164305">
                  <g id="Group_1163948" data-name="Group 1163948">
                    <g id="Group_1158168" data-name="Group 1158168">
                      <g id="Group_1152576" data-name="Group 1152576">
                        <g id="Group_1148633" data-name="Group 1148633">
                          <g id="Group_1148525" data-name="Group 1148525">
                            <g transform="matrix(1, 0, 0, 1, -9, -6)" filter="url(#Path_982547)">
                              <g id="Path_982547-2" data-name="Path 982547" transform="translate(9 6)" fill="#e8edf7">
                                <path d="M 47.5 93.5 C 41.28937149047852 93.5 35.26533508300781 92.28397369384766 29.59518623352051 89.88570404052734 C 24.11771965026855 87.56893157958984 19.19813346862793 84.25196075439453 14.97309303283691 80.02691650390625 C 10.74804019927979 75.80186462402344 7.431066513061523 70.88229370117188 5.114293098449707 65.40481567382812 C 2.716026782989502 59.73468017578125 1.5 53.71062850952148 1.5 47.5 C 1.5 41.28937149047852 2.716026782989502 35.26533508300781 5.114293098449707 29.59518623352051 C 7.431066513061523 24.11771965026855 10.74804019927979 19.19813346862793 14.97309303283691 14.97309303283691 C 19.19813346862793 10.74804019927979 24.11771965026855 7.431066513061523 29.59518623352051 5.114293098449707 C 35.26533508300781 2.716026782989502 41.28937149047852 1.5 47.5 1.5 C 53.71062850952148 1.5 59.73468017578125 2.716026782989502 65.40481567382812 5.114293098449707 C 70.88229370117188 7.431066513061523 75.80186462402344 10.74804019927979 80.02691650390625 14.97309303283691 C 84.25196075439453 19.19813346862793 87.56893157958984 24.11771965026855 89.88570404052734 29.59518623352051 C 92.28397369384766 35.26533508300781 93.5 41.28937149047852 93.5 47.5 C 93.5 53.71062850952148 92.28397369384766 59.73468017578125 89.88570404052734 65.40481567382812 C 87.56893157958984 70.88229370117188 84.25196075439453 75.80186462402344 80.02691650390625 80.02691650390625 C 75.80186462402344 84.25196075439453 70.88229370117188 87.56893157958984 65.40481567382812 89.88570404052734 C 59.73468017578125 92.28397369384766 53.71062850952148 93.5 47.5 93.5 Z" stroke="none"/>
                                <path d="M 47.5 3 C 41.49121475219727 3 35.66376876831055 4.176155090332031 30.17950439453125 6.495796203613281 C 24.88084411621094 8.736953735351562 20.12152099609375 11.94598388671875 16.03375244140625 16.03375244140625 C 11.94598388671875 20.12152099609375 8.736953735351562 24.88084411621094 6.495796203613281 30.17950439453125 C 4.176155090332031 35.66376876831055 3 41.49121475219727 3 47.5 C 3 53.50878524780273 4.176155090332031 59.33623123168945 6.495796203613281 64.82049560546875 C 8.736953735351562 70.11915588378906 11.94598388671875 74.87847900390625 16.03375244140625 78.96624755859375 C 20.12152099609375 83.05401611328125 24.88084411621094 86.26304626464844 30.17950439453125 88.50419616699219 C 35.66376876831055 90.82384490966797 41.49121475219727 92 47.5 92 C 53.50878524780273 92 59.33623123168945 90.82384490966797 64.82049560546875 88.50419616699219 C 70.11915588378906 86.26304626464844 74.87847900390625 83.05401611328125 78.96624755859375 78.96624755859375 C 83.05401611328125 74.87847900390625 86.26304626464844 70.11915588378906 88.50419616699219 64.82049560546875 C 90.82384490966797 59.33623123168945 92 53.50878524780273 92 47.5 C 92 41.49121475219727 90.82384490966797 35.66376876831055 88.50419616699219 30.17950439453125 C 86.26304626464844 24.88084411621094 83.05401611328125 20.12152099609375 78.96624755859375 16.03375244140625 C 74.87847900390625 11.94598388671875 70.11915588378906 8.736953735351562 64.82049560546875 6.495796203613281 C 59.33623123168945 4.176155090332031 53.50878524780273 3 47.5 3 M 47.5 0 C 73.7335205078125 0 95 21.2664794921875 95 47.5 C 95 73.7335205078125 73.7335205078125 95 47.5 95 C 21.2664794921875 95 0 73.7335205078125 0 47.5 C 0 21.2664794921875 21.2664794921875 0 47.5 0 Z" stroke="none" fill="#2e5bb6"/>
                              </g>
                            </g>
                          </g>
                        </g>
                      </g>
                    </g>
                  </g>
                </g>
              </g>
            </g>
          </g>
        </g>
      </g>
      <g id="presupuesto_5_" data-name="presupuesto (5)" transform="translate(217.238 439.019)">
        <rect id="Rectangle_415898" data-name="Rectangle 415898" width="31.129" height="53.102" rx="4" transform="translate(2.916 2.914)" fill="#3d9ae2"/>
        <path id="Path_1040827" data-name="Path 1040827" d="M5.747,52.44V6.662A3.662,3.662,0,0,1,9.409,3H6.662A3.662,3.662,0,0,0,3,6.662V52.44A3.662,3.662,0,0,0,6.662,56.1H9.409A3.662,3.662,0,0,1,5.747,52.44Z" transform="translate(-0.084 -0.086)" fill="#1e81ce"/>
        <path id="Path_1040828" data-name="Path 1040828" d="M42.831,57a1.831,1.831,0,0,0,0,3.662H55.649a1.831,1.831,0,1,0,0-3.662Z" transform="translate(-3.294 -4.646)" fill="#cc7400"/>
        <path id="Path_1040829" data-name="Path 1040829" d="M43,54.831a1.831,1.831,0,0,0,1.831,1.831H57.649a1.831,1.831,0,1,0,0-3.662H44.831A1.831,1.831,0,0,0,43,54.831Z" transform="translate(-3.462 -4.309)" fill="#ff9811"/>
        <path id="Path_1040830" data-name="Path 1040830" d="M42.831,49a1.831,1.831,0,0,0,0,3.662H55.649a1.831,1.831,0,1,0,0-3.662Z" transform="translate(-3.294 -3.971)" fill="#cc7400"/>
        <path id="Path_1040831" data-name="Path 1040831" d="M43,46.831a1.831,1.831,0,0,0,1.831,1.831H57.649a1.831,1.831,0,0,0,0-3.662H44.831A1.831,1.831,0,0,0,43,46.831Z" transform="translate(-3.462 -3.633)" fill="#ff9811"/>
        <path id="Path_1040832" data-name="Path 1040832" d="M41,42.831a1.831,1.831,0,0,0,1.831,1.831H55.649a1.831,1.831,0,1,0,0-3.662H42.831A1.831,1.831,0,0,0,41,42.831Z" transform="translate(-3.294 -3.295)" fill="#ffb655"/>
        <path id="Path_1040833" data-name="Path 1040833" d="M42.831,37a1.831,1.831,0,0,0,0,3.662H55.649a1.831,1.831,0,1,0,0-3.662Z" transform="translate(-3.294 -2.957)" fill="#ee8700"/>
        <path id="Path_1040834" data-name="Path 1040834" d="M43,34.831a1.831,1.831,0,0,0,1.831,1.831H57.649a1.831,1.831,0,0,0,0-3.662H44.831A1.831,1.831,0,0,0,43,34.831Z" transform="translate(-3.462 -2.62)" fill="#ffa733"/>
        <path id="Path_1040835" data-name="Path 1040835" d="M43,30.831a1.831,1.831,0,0,0,1.831,1.831H57.649a1.831,1.831,0,0,0,0-3.662H44.831A1.831,1.831,0,0,0,43,30.831Z" transform="translate(-3.462 -2.282)" fill="#ffb655"/>
        <path id="Path_1040836" data-name="Path 1040836" d="M7,7H30.8v7.324H7Z" transform="translate(-0.422 -0.424)" fill="#7ed63e"/>
        <g id="Group_1184623" data-name="Group 1184623" transform="translate(6.578 19.394)">
          <path id="Path_1040837" data-name="Path 1040837" d="M7,21h5.493v5.493H7Z" transform="translate(-7 -21)" fill="#d1d3d4"/>
          <path id="Path_1040838" data-name="Path 1040838" d="M17,21h5.493v5.493H17Z" transform="translate(-7.845 -21)" fill="#d1d3d4"/>
          <path id="Path_1040839" data-name="Path 1040839" d="M27,21h5.493v5.493H27Z" transform="translate(-8.689 -21)" fill="#d1d3d4"/>
          <path id="Path_1040840" data-name="Path 1040840" d="M7,31h5.493v5.493H7Z" transform="translate(-7 -21.845)" fill="#d1d3d4"/>
          <path id="Path_1040841" data-name="Path 1040841" d="M17,31h5.493v5.493H17Z" transform="translate(-7.845 -21.845)" fill="#d1d3d4"/>
          <path id="Path_1040842" data-name="Path 1040842" d="M27,31h5.493v5.493H27Z" transform="translate(-8.689 -21.845)" fill="#d1d3d4"/>
          <path id="Path_1040843" data-name="Path 1040843" d="M7,41h5.493v5.493H7Z" transform="translate(-7 -22.689)" fill="#d1d3d4"/>
          <path id="Path_1040844" data-name="Path 1040844" d="M17,41h5.493v5.493H17Z" transform="translate(-7.845 -22.689)" fill="#d1d3d4"/>
        </g>
        <path id="Path_1040845" data-name="Path 1040845" d="M27,41h5.493V55.649H27Z" transform="translate(-2.111 -3.295)" fill="#d80027"/>
        <path id="Path_1040846" data-name="Path 1040846" d="M7,51h5.493v5.493H7Z" transform="translate(-0.422 -4.14)" fill="#d1d3d4"/>
        <path id="Path_1040847" data-name="Path 1040847" d="M17,51h5.493v5.493H17Z" transform="translate(-1.267 -4.14)" fill="#d1d3d4"/>
        <circle id="Ellipse_12495" data-name="Ellipse 12495" cx="8.24" cy="8.24" r="8.24" transform="translate(39.538 2.914)" fill="#ffb655"/>
        <path id="Path_1040848" data-name="Path 1040848" d="M42.831,25a1.831,1.831,0,0,0,0,3.662H55.649a1.831,1.831,0,1,0,0-3.662Z" transform="translate(-3.294 -1.944)" fill="#ee8700"/>
        <path id="Path_1040849" data-name="Path 1040849" d="M43,22.831a1.831,1.831,0,0,0,1.831,1.831H57.649a1.831,1.831,0,0,0,0-3.662H44.831A1.831,1.831,0,0,0,43,22.831Z" transform="translate(-3.462 -1.606)" fill="#ffc477"/>
        <path id="Path_1040850" data-name="Path 1040850" d="M30.382,56.933H6.578A4.583,4.583,0,0,1,2,52.355V6.578A4.583,4.583,0,0,1,6.578,2h23.8A4.583,4.583,0,0,1,34.96,6.578V52.355a4.583,4.583,0,0,1-4.578,4.578Zm-23.8-53.1A2.747,2.747,0,0,0,3.831,6.578V52.355A2.747,2.747,0,0,0,6.578,55.1h23.8a2.747,2.747,0,0,0,2.747-2.747V6.578a2.747,2.747,0,0,0-2.747-2.747Z" transform="translate(0 -0.002)"/>
        <path id="Path_1040851" data-name="Path 1040851" d="M30.72,15.155H6.916A.916.916,0,0,1,6,14.24V6.916A.916.916,0,0,1,6.916,6h23.8a.916.916,0,0,1,.916.916V14.24A.916.916,0,0,1,30.72,15.155ZM7.831,13.324H29.8V7.831H7.831Z" transform="translate(-0.338 -0.339)"/>
        <path id="Path_1040852" data-name="Path 1040852" d="M12.409,27.324H6.916A.916.916,0,0,1,6,26.409V20.916A.916.916,0,0,1,6.916,20h5.493a.916.916,0,0,1,.916.916v5.493A.916.916,0,0,1,12.409,27.324ZM7.831,25.493h3.662V21.831H7.831Z" transform="translate(-0.338 -1.522)"/>
        <path id="Path_1040853" data-name="Path 1040853" d="M22.409,27.324H16.916A.916.916,0,0,1,16,26.409V20.916A.916.916,0,0,1,16.916,20h5.493a.916.916,0,0,1,.916.916v5.493A.916.916,0,0,1,22.409,27.324Zm-4.578-1.831h3.662V21.831H17.831Z" transform="translate(-1.182 -1.522)"/>
        <path id="Path_1040854" data-name="Path 1040854" d="M32.409,27.324H26.916A.916.916,0,0,1,26,26.409V20.916A.916.916,0,0,1,26.916,20h5.493a.916.916,0,0,1,.916.916v5.493A.916.916,0,0,1,32.409,27.324Zm-4.578-1.831h3.662V21.831H27.831Z" transform="translate(-2.027 -1.522)"/>
        <path id="Path_1040855" data-name="Path 1040855" d="M12.409,37.324H6.916A.916.916,0,0,1,6,36.409V30.916A.916.916,0,0,1,6.916,30h5.493a.916.916,0,0,1,.916.916v5.493A.916.916,0,0,1,12.409,37.324ZM7.831,35.493h3.662V31.831H7.831Z" transform="translate(-0.338 -2.366)"/>
        <path id="Path_1040856" data-name="Path 1040856" d="M22.409,37.324H16.916A.916.916,0,0,1,16,36.409V30.916A.916.916,0,0,1,16.916,30h5.493a.916.916,0,0,1,.916.916v5.493A.916.916,0,0,1,22.409,37.324Zm-4.578-1.831h3.662V31.831H17.831Z" transform="translate(-1.182 -2.366)"/>
        <path id="Path_1040857" data-name="Path 1040857" d="M32.409,37.324H26.916A.916.916,0,0,1,26,36.409V30.916A.916.916,0,0,1,26.916,30h5.493a.916.916,0,0,1,.916.916v5.493A.916.916,0,0,1,32.409,37.324Zm-4.578-1.831h3.662V31.831H27.831Z" transform="translate(-2.027 -2.366)"/>
        <path id="Path_1040858" data-name="Path 1040858" d="M12.409,47.324H6.916A.916.916,0,0,1,6,46.409V40.916A.916.916,0,0,1,6.916,40h5.493a.916.916,0,0,1,.916.916v5.493A.916.916,0,0,1,12.409,47.324ZM7.831,45.493h3.662V41.831H7.831Z" transform="translate(-0.338 -3.211)"/>
        <path id="Path_1040859" data-name="Path 1040859" d="M22.409,47.324H16.916A.916.916,0,0,1,16,46.409V40.916A.916.916,0,0,1,16.916,40h5.493a.916.916,0,0,1,.916.916v5.493A.916.916,0,0,1,22.409,47.324Zm-4.578-1.831h3.662V41.831H17.831Z" transform="translate(-1.182 -3.211)"/>
        <path id="Path_1040860" data-name="Path 1040860" d="M32.409,56.48H26.916A.916.916,0,0,1,26,55.564V40.916A.916.916,0,0,1,26.916,40h5.493a.916.916,0,0,1,.916.916V55.564A.916.916,0,0,1,32.409,56.48Zm-4.578-1.831h3.662V41.831H27.831Z" transform="translate(-2.027 -3.211)"/>
        <path id="Path_1040861" data-name="Path 1040861" d="M12.409,57.324H6.916A.916.916,0,0,1,6,56.409V50.916A.916.916,0,0,1,6.916,50h5.493a.916.916,0,0,1,.916.916v5.493A.916.916,0,0,1,12.409,57.324ZM7.831,55.493h3.662V51.831H7.831Z" transform="translate(-0.338 -4.055)"/>
        <path id="Path_1040862" data-name="Path 1040862" d="M22.409,57.324H16.916A.916.916,0,0,1,16,56.409V50.916A.916.916,0,0,1,16.916,50h5.493a.916.916,0,0,1,.916.916v5.493A.916.916,0,0,1,22.409,57.324Zm-4.578-1.831h3.662V51.831H17.831Z" transform="translate(-1.182 -4.055)"/>
        <path id="Path_1040863" data-name="Path 1040863" d="M51.747,8.662a.916.916,0,0,1,.916.916.916.916,0,1,0,1.831,0A2.747,2.747,0,0,0,52.662,7V5.916a.916.916,0,0,0-1.831,0V7a2.74,2.74,0,0,0,.916,5.325.916.916,0,1,1-.916.916.916.916,0,1,0-1.831,0,2.747,2.747,0,0,0,1.831,2.578V16.9a.916.916,0,0,0,1.831,0V15.818a2.74,2.74,0,0,0-.916-5.325.916.916,0,0,1,0-1.831Z" transform="translate(-3.969 -0.255)"/>
        <path id="Path_1040864" data-name="Path 1040864" d="M60.142,21.225A2.747,2.747,0,0,0,57.4,18.478h-.939a9.155,9.155,0,1,0-10.939,0h-.939a2.737,2.737,0,0,0-2.545,3.768,2.731,2.731,0,0,0,0,5.281,2.7,2.7,0,0,0,.513,2.853,2.7,2.7,0,0,0-.513,2.853A2.722,2.722,0,0,0,40.714,37.7a2.722,2.722,0,0,0,1.318,4.472,2.693,2.693,0,0,0,0,2.044,2.731,2.731,0,0,0,0,5.281,2.693,2.693,0,0,0,0,2.044,2.74,2.74,0,0,0,.714,5.387H55.564a2.737,2.737,0,0,0,2.545-3.768,2.731,2.731,0,0,0,0-5.281,2.693,2.693,0,0,0,0-2.044,2.731,2.731,0,0,0,0-5.281A2.7,2.7,0,0,0,57.6,37.7a2.7,2.7,0,0,0,.513-2.853,2.722,2.722,0,0,0,1.318-4.472,2.722,2.722,0,0,0-1.318-4.472,2.693,2.693,0,0,0,0-2.044,2.747,2.747,0,0,0,2.033-2.64ZM43.662,11.154a7.324,7.324,0,1,1,7.324,7.324A7.324,7.324,0,0,1,43.662,11.154Zm-.916,12.818H55.564a.916.916,0,1,1,0,1.831H42.747a.916.916,0,0,1,0-1.831Zm0,10.987H55.564a.916.916,0,1,1,0,1.831H42.747a.916.916,0,0,1,0-1.831Zm0,3.662H55.564a.916.916,0,1,1,0,1.831H42.747a.916.916,0,0,1,0-1.831Zm0,7.324H55.564a.916.916,0,1,1,0,1.831H42.747a.916.916,0,0,1,0-1.831ZM55.564,55.1H42.747a.916.916,0,0,1,0-1.831H55.564a.916.916,0,1,1,0,1.831ZM57.4,51.438H44.578a.916.916,0,1,1,0-1.831H57.4a.916.916,0,0,1,0,1.831Zm0-7.324H44.578a.916.916,0,0,1,0-1.831H57.4a.916.916,0,0,1,0,1.831Zm0-10.987H44.578a.916.916,0,1,1,0-1.831H57.4a.916.916,0,0,1,0,1.831Zm0-3.662H44.578a.916.916,0,1,1,0-1.831H57.4a.916.916,0,0,1,0,1.831Zm0-7.324H44.578a.916.916,0,1,1,0-1.831H57.4a.916.916,0,0,1,0,1.831Z" transform="translate(-3.209 0)"/>
      </g>
    </g>
  </g>
</svg>
